%TF.GenerationSoftware,KiCad,Pcbnew,5.99.0-unknown-a208dac8d8~131~ubuntu20.04.1*%
%TF.CreationDate,2021-09-06T21:34:53-05:00*%
%TF.ProjectId,minimum,6d696e69-6d75-46d2-9e6b-696361645f70,rev?*%
%TF.SameCoordinates,Original*%
%TF.FileFunction,Legend,Top*%
%TF.FilePolarity,Positive*%
%FSLAX46Y46*%
G04 Gerber Fmt 4.6, Leading zero omitted, Abs format (unit mm)*
G04 Created by KiCad (PCBNEW 5.99.0-unknown-a208dac8d8~131~ubuntu20.04.1) date 2021-09-06 21:34:53*
%MOMM*%
%LPD*%
G01*
G04 APERTURE LIST*
%ADD10C,0.150000*%
%ADD11C,0.120000*%
%ADD12C,0.200000*%
G04 APERTURE END LIST*
D10*
%TO.C,U2*%
X95332857Y-66701428D02*
X95332857Y-67187142D01*
X95361428Y-67244285D01*
X95390000Y-67272857D01*
X95447142Y-67301428D01*
X95561428Y-67301428D01*
X95618571Y-67272857D01*
X95647142Y-67244285D01*
X95675714Y-67187142D01*
X95675714Y-66701428D01*
X95932857Y-66758571D02*
X95961428Y-66730000D01*
X96018571Y-66701428D01*
X96161428Y-66701428D01*
X96218571Y-66730000D01*
X96247142Y-66758571D01*
X96275714Y-66815714D01*
X96275714Y-66872857D01*
X96247142Y-66958571D01*
X95904285Y-67301428D01*
X96275714Y-67301428D01*
%TO.C,J1*%
X96910000Y-61341428D02*
X96910000Y-61770000D01*
X96881428Y-61855714D01*
X96824285Y-61912857D01*
X96738571Y-61941428D01*
X96681428Y-61941428D01*
X97510000Y-61941428D02*
X97167142Y-61941428D01*
X97338571Y-61941428D02*
X97338571Y-61341428D01*
X97281428Y-61427142D01*
X97224285Y-61484285D01*
X97167142Y-61512857D01*
D11*
%TO.C,U2*%
X96250000Y-67500000D02*
X94500000Y-67500000D01*
X105100000Y-77700000D02*
X105100000Y-76350000D01*
X103750000Y-67500000D02*
X105100000Y-67500000D01*
X105100000Y-67500000D02*
X105100000Y-68850000D01*
X94900000Y-77700000D02*
X94900000Y-76350000D01*
X96250000Y-77700000D02*
X94900000Y-77700000D01*
X103750000Y-77700000D02*
X105100000Y-77700000D01*
X94900000Y-67100000D02*
X94900000Y-68700000D01*
X94760000Y-67370000D02*
X94510000Y-67370000D01*
X94510000Y-67370000D02*
X94510000Y-67120000D01*
X94510000Y-67120000D02*
X94760000Y-67120000D01*
X94760000Y-67120000D02*
X94760000Y-67370000D01*
%TO.C,R4*%
X106020000Y-77653641D02*
X106020000Y-77346359D01*
X106780000Y-77653641D02*
X106780000Y-77346359D01*
%TO.C,C8*%
X106140000Y-69892164D02*
X106140000Y-70107836D01*
X106860000Y-69892164D02*
X106860000Y-70107836D01*
D10*
%TO.C,D1*%
X92230000Y-71400000D02*
X92230000Y-73070000D01*
D11*
%TO.C,R3*%
X106020000Y-75466359D02*
X106020000Y-75773641D01*
X106780000Y-75466359D02*
X106780000Y-75773641D01*
%TO.C,R6*%
X103123641Y-65670000D02*
X102816359Y-65670000D01*
X103123641Y-66430000D02*
X102816359Y-66430000D01*
%TO.C,R7*%
X96733641Y-65780000D02*
X96426359Y-65780000D01*
X96733641Y-66540000D02*
X96426359Y-66540000D01*
D12*
%TO.C,U4*%
X92660000Y-64280000D02*
G75*
G03*
X92660000Y-64280000I-100000J0D01*
G01*
D11*
%TO.C,C18*%
X93320000Y-68669420D02*
X93320000Y-68950580D01*
X92300000Y-68669420D02*
X92300000Y-68950580D01*
%TO.C,C17*%
X92990000Y-62140580D02*
X92990000Y-61859420D01*
X94010000Y-62140580D02*
X94010000Y-61859420D01*
%TO.C,J1*%
X95800000Y-62600000D02*
X95800000Y-64000000D01*
X104200000Y-58550000D02*
X104200000Y-58150000D01*
X104200000Y-64000000D02*
X104200000Y-62650000D01*
X104200000Y-61050000D02*
X104200000Y-60150000D01*
X95800000Y-58150000D02*
X95800000Y-58550000D01*
X95800000Y-64000000D02*
X96200000Y-64000000D01*
X95800000Y-60150000D02*
X95800000Y-61100000D01*
X103800000Y-64000000D02*
X104200000Y-64000000D01*
%TO.C,C9*%
X93190000Y-75897836D02*
X93190000Y-75682164D01*
X93910000Y-75897836D02*
X93910000Y-75682164D01*
%TD*%
M02*
