M48
; DRILL file {KiCad 5.99.0-unknown-a208dac8d8~131~ubuntu20.04.1} date Mon Sep  6 21:34:46 2021
; FORMAT={-:-/ absolute / metric / decimal}
; #@! TF.CreationDate,2021-09-06T21:34:46-05:00
; #@! TF.GenerationSoftware,Kicad,Pcbnew,5.99.0-unknown-a208dac8d8~131~ubuntu20.04.1
; #@! TF.FileFunction,Plated,1,4,PTH
FMAT,2
METRIC
; #@! TA.AperFunction,Plated,PTH,ViaDrill
T1C0.300
; #@! TA.AperFunction,Plated,PTH,ComponentDrill
T2C0.300
; #@! TA.AperFunction,Plated,PTH,ComponentDrill
T3C0.350
%
G90
G05
T1
X92.608Y-65.386
X93.0Y-67.0
X93.24Y-73.55
X93.429Y-72.013
X93.54Y-76.81
X93.849Y-69.701
X94.225Y-69.053
X94.5Y-72.29
X95.0Y-69.2
X95.66Y-67.6
X96.14Y-76.89
X96.85Y-68.02
X96.862Y-78.311
X97.255Y-62.495
X99.625Y-62.505
X100.375Y-62.505
X100.7Y-59.28
X100.743Y-65.957
X102.434Y-61.229
X103.01Y-75.604
X103.033Y-59.525
X103.184Y-61.245
X103.362Y-67.83
X103.7Y-66.926
X103.98Y-60.6
X104.229Y-76.299
X104.31Y-77.09
X104.74Y-68.109
X105.509Y-71.641
X105.87Y-75.04
X106.2Y-68.6
X106.2Y-72.4
X106.4Y-78.65
X107.0Y-69.0
T2
X98.725Y-69.975
X98.725Y-71.25
X100.0Y-69.975
X100.0Y-71.25
X100.0Y-72.525
X101.275Y-69.975
X101.275Y-71.25
X101.275Y-72.525
T3
X98.725Y-72.525
T0
M30
