%TF.GenerationSoftware,KiCad,Pcbnew,5.99.0-unknown-a208dac8d8~131~ubuntu20.04.1*%
%TF.CreationDate,2021-09-06T21:34:51-05:00*%
%TF.ProjectId,minimum,6d696e69-6d75-46d2-9e6b-696361645f70,rev?*%
%TF.SameCoordinates,Original*%
%TF.FileFunction,Copper,L1,Top*%
%TF.FilePolarity,Positive*%
%FSLAX46Y46*%
G04 Gerber Fmt 4.6, Leading zero omitted, Abs format (unit mm)*
G04 Created by KiCad (PCBNEW 5.99.0-unknown-a208dac8d8~131~ubuntu20.04.1) date 2021-09-06 21:34:51*
%MOMM*%
%LPD*%
G01*
G04 APERTURE LIST*
G04 Aperture macros list*
%AMRoundRect*
0 Rectangle with rounded corners*
0 $1 Rounding radius*
0 $2 $3 $4 $5 $6 $7 $8 $9 X,Y pos of 4 corners*
0 Add a 4 corners polygon primitive as box body*
4,1,4,$2,$3,$4,$5,$6,$7,$8,$9,$2,$3,0*
0 Add four circle primitives for the rounded corners*
1,1,$1+$1,$2,$3*
1,1,$1+$1,$4,$5*
1,1,$1+$1,$6,$7*
1,1,$1+$1,$8,$9*
0 Add four rect primitives between the rounded corners*
20,1,$1+$1,$2,$3,$4,$5,0*
20,1,$1+$1,$4,$5,$6,$7,0*
20,1,$1+$1,$6,$7,$8,$9,0*
20,1,$1+$1,$8,$9,$2,$3,0*%
%AMOutline5P*
0 Free polygon, 5 corners , with rotation*
0 The origin of the aperture is its center*
0 number of corners: always 5*
0 $1 to $10 corner X, Y*
0 $11 Rotation angle, in degrees counterclockwise*
0 create outline with 5 corners*
4,1,5,$1,$2,$3,$4,$5,$6,$7,$8,$9,$10,$1,$2,$11*%
%AMOutline6P*
0 Free polygon, 6 corners , with rotation*
0 The origin of the aperture is its center*
0 number of corners: always 6*
0 $1 to $12 corner X, Y*
0 $13 Rotation angle, in degrees counterclockwise*
0 create outline with 6 corners*
4,1,6,$1,$2,$3,$4,$5,$6,$7,$8,$9,$10,$11,$12,$1,$2,$13*%
%AMOutline7P*
0 Free polygon, 7 corners , with rotation*
0 The origin of the aperture is its center*
0 number of corners: always 7*
0 $1 to $14 corner X, Y*
0 $15 Rotation angle, in degrees counterclockwise*
0 create outline with 7 corners*
4,1,7,$1,$2,$3,$4,$5,$6,$7,$8,$9,$10,$11,$12,$13,$14,$1,$2,$15*%
%AMOutline8P*
0 Free polygon, 8 corners , with rotation*
0 The origin of the aperture is its center*
0 number of corners: always 8*
0 $1 to $16 corner X, Y*
0 $17 Rotation angle, in degrees counterclockwise*
0 create outline with 8 corners*
4,1,8,$1,$2,$3,$4,$5,$6,$7,$8,$9,$10,$11,$12,$13,$14,$15,$16,$1,$2,$17*%
G04 Aperture macros list end*
%TA.AperFunction,ComponentPad*%
%ADD10C,0.600000*%
%TD*%
%TA.AperFunction,SMDPad,CuDef*%
%ADD11R,1.500000X0.800000*%
%TD*%
%TA.AperFunction,SMDPad,CuDef*%
%ADD12R,0.800000X1.500000*%
%TD*%
%TA.AperFunction,SMDPad,CuDef*%
%ADD13R,2.400000X2.400000*%
%TD*%
%TA.AperFunction,SMDPad,CuDef*%
%ADD14RoundRect,0.135000X0.185000X-0.135000X0.185000X0.135000X-0.185000X0.135000X-0.185000X-0.135000X0*%
%TD*%
%TA.AperFunction,SMDPad,CuDef*%
%ADD15RoundRect,0.140000X-0.170000X0.140000X-0.170000X-0.140000X0.170000X-0.140000X0.170000X0.140000X0*%
%TD*%
%TA.AperFunction,SMDPad,CuDef*%
%ADD16R,0.900000X0.850000*%
%TD*%
%TA.AperFunction,SMDPad,CuDef*%
%ADD17R,0.500000X0.450000*%
%TD*%
%TA.AperFunction,SMDPad,CuDef*%
%ADD18RoundRect,0.135000X-0.185000X0.135000X-0.185000X-0.135000X0.185000X-0.135000X0.185000X0.135000X0*%
%TD*%
%TA.AperFunction,SMDPad,CuDef*%
%ADD19RoundRect,0.135000X0.135000X0.185000X-0.135000X0.185000X-0.135000X-0.185000X0.135000X-0.185000X0*%
%TD*%
%TA.AperFunction,SMDPad,CuDef*%
%ADD20R,0.375000X0.350000*%
%TD*%
%TA.AperFunction,SMDPad,CuDef*%
%ADD21R,2.100000X0.400000*%
%TD*%
%TA.AperFunction,SMDPad,CuDef*%
%ADD22R,1.100000X0.750000*%
%TD*%
%TA.AperFunction,SMDPad,CuDef*%
%ADD23Outline5P,-0.375000X0.900000X0.375000X0.900000X0.375000X-0.900000X0.000000X-0.900000X-0.375000X-0.525000X90.000000*%
%TD*%
%TA.AperFunction,SMDPad,CuDef*%
%ADD24R,1.800000X0.600000*%
%TD*%
%TA.AperFunction,SMDPad,CuDef*%
%ADD25R,0.900000X1.300000*%
%TD*%
%TA.AperFunction,SMDPad,CuDef*%
%ADD26Outline5P,-0.375000X0.900000X0.375000X0.900000X0.375000X-0.525000X0.000000X-0.900000X-0.375000X-0.900000X90.000000*%
%TD*%
%TA.AperFunction,SMDPad,CuDef*%
%ADD27RoundRect,0.225000X-0.250000X0.225000X-0.250000X-0.225000X0.250000X-0.225000X0.250000X0.225000X0*%
%TD*%
%TA.AperFunction,SMDPad,CuDef*%
%ADD28RoundRect,0.225000X0.250000X-0.225000X0.250000X0.225000X-0.250000X0.225000X-0.250000X-0.225000X0*%
%TD*%
%TA.AperFunction,SMDPad,CuDef*%
%ADD29R,0.350000X1.900000*%
%TD*%
%TA.AperFunction,SMDPad,CuDef*%
%ADD30R,1.200000X1.200000*%
%TD*%
%TA.AperFunction,SMDPad,CuDef*%
%ADD31R,1.500000X1.300000*%
%TD*%
%TA.AperFunction,SMDPad,CuDef*%
%ADD32R,1.500000X1.400000*%
%TD*%
%TA.AperFunction,SMDPad,CuDef*%
%ADD33R,0.650000X2.100000*%
%TD*%
%TA.AperFunction,SMDPad,CuDef*%
%ADD34RoundRect,0.140000X0.170000X-0.140000X0.170000X0.140000X-0.170000X0.140000X-0.170000X-0.140000X0*%
%TD*%
%TA.AperFunction,ViaPad*%
%ADD35C,0.600000*%
%TD*%
%TA.AperFunction,Conductor*%
%ADD36C,0.300000*%
%TD*%
%TA.AperFunction,Conductor*%
%ADD37C,0.600000*%
%TD*%
%TA.AperFunction,Conductor*%
%ADD38C,0.150000*%
%TD*%
%TA.AperFunction,Conductor*%
%ADD39C,0.200000*%
%TD*%
%TA.AperFunction,Conductor*%
%ADD40C,0.350000*%
%TD*%
%TA.AperFunction,Conductor*%
%ADD41C,0.218186*%
%TD*%
%TA.AperFunction,Conductor*%
%ADD42C,0.400000*%
%TD*%
G04 APERTURE END LIST*
D10*
%TO.P,U1,57,GND*%
%TO.N,GND*%
X98725000Y-72525000D03*
X100000000Y-72525000D03*
X101275000Y-72525000D03*
X98725000Y-71250000D03*
X100000000Y-69975000D03*
X101275000Y-71250000D03*
X100000000Y-71250000D03*
X101275000Y-69975000D03*
X98725000Y-69975000D03*
%TD*%
D11*
%TO.P,U2,1*%
%TO.N,N/C*%
X95700000Y-70100000D03*
%TO.P,U2,2*%
X95700000Y-71350000D03*
%TO.P,U2,3*%
X95700000Y-72600000D03*
%TO.P,U2,4*%
X95700000Y-73850000D03*
%TO.P,U2,5*%
X95700000Y-75100000D03*
D12*
%TO.P,U2,6,GND*%
%TO.N,GND*%
X97500000Y-76900000D03*
%TO.P,U2,7,VDD*%
%TO.N,+3V3*%
X98750000Y-76900000D03*
%TO.P,U2,8*%
%TO.N,N/C*%
X100000000Y-76900000D03*
%TO.P,U2,9,SCL*%
%TO.N,/SCL*%
X101250000Y-76900000D03*
%TO.P,U2,10,SDA*%
%TO.N,/SDA*%
X102500000Y-76900000D03*
D11*
%TO.P,U2,11*%
%TO.N,N/C*%
X104300000Y-75100000D03*
%TO.P,U2,12*%
X104300000Y-73850000D03*
%TO.P,U2,13*%
X104300000Y-72600000D03*
%TO.P,U2,14*%
X104300000Y-71350000D03*
%TO.P,U2,15*%
X104300000Y-70100000D03*
D12*
%TO.P,U2,16*%
X102500000Y-68300000D03*
%TO.P,U2,17*%
X101250000Y-68300000D03*
%TO.P,U2,18*%
X100000000Y-68300000D03*
%TO.P,U2,19,VDDH*%
%TO.N,+3V3*%
X98750000Y-68300000D03*
%TO.P,U2,20,GND*%
%TO.N,GND*%
X97500000Y-68300000D03*
D13*
%TO.P,U2,21,GND*%
X101200000Y-73800000D03*
X98800000Y-71400000D03*
X101200000Y-71400000D03*
X98800000Y-73800000D03*
%TD*%
D14*
%TO.P,R4,1*%
%TO.N,+3V3*%
X106400000Y-78010000D03*
%TO.P,R4,2*%
%TO.N,/SDA*%
X106400000Y-76990000D03*
%TD*%
D15*
%TO.P,C8,1*%
%TO.N,+3V3*%
X106500000Y-69520000D03*
%TO.P,C8,2*%
%TO.N,GND*%
X106500000Y-70480000D03*
%TD*%
D16*
%TO.P,D1,1,BK*%
%TO.N,Net-(D1-Pad1)*%
X92550000Y-73575000D03*
D17*
%TO.P,D1,2,A*%
%TO.N,+3V3*%
X92950000Y-72625000D03*
%TO.P,D1,3,RK*%
%TO.N,Net-(D1-Pad3)*%
X92950000Y-71775000D03*
D16*
%TO.P,D1,4,GK*%
%TO.N,Net-(D1-Pad4)*%
X92550000Y-70825000D03*
%TD*%
D18*
%TO.P,R3,1*%
%TO.N,+3V3*%
X106400000Y-75110000D03*
%TO.P,R3,2*%
%TO.N,/SCL*%
X106400000Y-76130000D03*
%TD*%
D19*
%TO.P,R6,1*%
%TO.N,Net-(R6-Pad1)*%
X103480000Y-66050000D03*
%TO.P,R6,2*%
%TO.N,/QSPI_SS*%
X102460000Y-66050000D03*
%TD*%
%TO.P,R7,1*%
%TO.N,VBUS*%
X97090000Y-66160000D03*
%TO.P,R7,2*%
%TO.N,Net-(R7-Pad2)*%
X96070000Y-66160000D03*
%TD*%
D20*
%TO.P,U4,1,Lx*%
%TO.N,Net-(U4-Pad1)*%
X93062500Y-64850000D03*
%TO.P,U4,2,AGND*%
%TO.N,GND*%
X93062500Y-65400000D03*
%TO.P,U4,3,Vout*%
%TO.N,+3V3*%
X93062500Y-65950000D03*
%TO.P,U4,4,CE*%
%TO.N,Net-(R7-Pad2)*%
X94937500Y-65950000D03*
%TO.P,U4,5,PGND*%
%TO.N,GND*%
X94937500Y-65400000D03*
%TO.P,U4,6,Vin*%
%TO.N,VBUS*%
X94937500Y-64850000D03*
D21*
%TO.P,U4,7,L1*%
%TO.N,Net-(U4-Pad1)*%
X94000000Y-64150000D03*
%TO.P,U4,8,L2*%
%TO.N,+3V3*%
X94000000Y-66650000D03*
D22*
%TO.P,U4,PAD,PAD*%
%TO.N,GND*%
X94000000Y-65025000D03*
X94000000Y-65775000D03*
%TD*%
D23*
%TO.P,SW1,1,1*%
%TO.N,GND*%
X105374650Y-66215000D03*
D24*
%TO.P,SW1,2,2*%
%TO.N,Net-(R6-Pad1)*%
X105372950Y-64990000D03*
D25*
X107328750Y-63140000D03*
X107328750Y-66840000D03*
D26*
%TO.P,SW1,3*%
%TO.N,N/C*%
X105374650Y-63765000D03*
%TD*%
D27*
%TO.P,C18,1*%
%TO.N,+3V3*%
X92810000Y-68035000D03*
%TO.P,C18,2*%
%TO.N,GND*%
X92810000Y-69585000D03*
%TD*%
D28*
%TO.P,C17,1*%
%TO.N,VBUS*%
X93500000Y-62775000D03*
%TO.P,C17,2*%
%TO.N,GND*%
X93500000Y-61225000D03*
%TD*%
D29*
%TO.P,J1,A1,GNDA*%
%TO.N,GND*%
X97250000Y-63950000D03*
%TO.P,J1,A4,A_VBUS*%
%TO.N,VBUS*%
X98750000Y-63950000D03*
%TO.P,J1,A5,CC1*%
%TO.N,unconnected-(J1-PadA5)*%
X99250000Y-63950000D03*
%TO.P,J1,A6,DA+*%
%TO.N,/USB_D+*%
X99750000Y-63950000D03*
%TO.P,J1,A7,DA-*%
%TO.N,/USB_D-*%
X100250000Y-63950000D03*
%TO.P,J1,A10,RX2-*%
%TO.N,unconnected-(J1-PadA10)*%
X101750000Y-63950000D03*
%TO.P,J1,A11,RX2+*%
%TO.N,unconnected-(J1-PadA11)*%
X102250000Y-63950000D03*
%TO.P,J1,B2,TX2+*%
%TO.N,unconnected-(J1-PadB2)*%
X102750000Y-63950000D03*
%TO.P,J1,B3,TX2-*%
%TO.N,unconnected-(J1-PadB3)*%
X101250000Y-63950000D03*
%TO.P,J1,B5,CC2*%
%TO.N,unconnected-(J1-PadB5)*%
X100750000Y-63950000D03*
%TO.P,J1,B9,B_VBUS*%
%TO.N,VBUS*%
X98250000Y-63950000D03*
%TO.P,J1,B12,GNDB*%
%TO.N,GND*%
X97750000Y-63950000D03*
D30*
%TO.P,J1,S1*%
%TO.N,N/C*%
X101750000Y-59250000D03*
D31*
X95450000Y-61850000D03*
D30*
X98750000Y-61000000D03*
D32*
X104550000Y-59350000D03*
D33*
X96600000Y-63850000D03*
D30*
X101250000Y-61000000D03*
D33*
X103400000Y-63850000D03*
D32*
X104550000Y-61850000D03*
D30*
X98250000Y-59250000D03*
D32*
X95450000Y-59350000D03*
%TD*%
D34*
%TO.P,C9,1*%
%TO.N,+3V3*%
X93550000Y-76270000D03*
%TO.P,C9,2*%
%TO.N,GND*%
X93550000Y-75310000D03*
%TD*%
D35*
%TO.N,+3V3*%
X105870000Y-75040000D03*
X94500000Y-72290000D03*
X95000000Y-69200000D03*
X107000000Y-69000000D03*
X106400000Y-78650000D03*
X105509368Y-71640816D03*
X103032947Y-59524975D03*
X93540000Y-76810000D03*
X96861995Y-78310888D03*
X95660000Y-67600000D03*
X93000000Y-67000000D03*
X104740000Y-68109011D03*
X100743233Y-65957329D03*
%TO.N,GND*%
X103980000Y-60600000D03*
X94224578Y-69052584D03*
X104310000Y-77090000D03*
X100700498Y-59280000D03*
X96140000Y-76890000D03*
X97255295Y-62495112D03*
X106200000Y-72400000D03*
X106200000Y-68600000D03*
X96850500Y-68019863D03*
X92607820Y-65386478D03*
%TO.N,/QSPI_SD1*%
X103183831Y-61244693D03*
X103699636Y-66925692D03*
%TO.N,/QSPI_SS*%
X102434500Y-61228683D03*
X103361820Y-67829542D03*
%TO.N,/USB_D+*%
X99625000Y-62504836D03*
%TO.N,/USB_D-*%
X100375000Y-62504836D03*
%TO.N,/SCL*%
X103010011Y-75604095D03*
%TO.N,/SDA*%
X104228806Y-76299011D03*
%TO.N,Net-(D1-Pad3)*%
X93428915Y-72013154D03*
%TO.N,Net-(D1-Pad4)*%
X93848539Y-69700927D03*
%TO.N,Net-(D1-Pad1)*%
X93240000Y-73550000D03*
%TD*%
D36*
%TO.N,+3V3*%
X93990500Y-67000000D02*
X93500000Y-67000000D01*
D37*
X95660000Y-67600000D02*
X95060000Y-67000000D01*
D38*
X106400000Y-75110000D02*
X105940000Y-75110000D01*
D39*
X92950000Y-72625000D02*
X94165000Y-72625000D01*
D36*
X98750000Y-76550000D02*
X98050489Y-75850489D01*
D39*
X106470000Y-78580000D02*
X106400000Y-78650000D01*
X106470000Y-78110000D02*
X106470000Y-78580000D01*
D36*
X106500000Y-69500000D02*
X107000000Y-69000000D01*
X99375489Y-69375489D02*
X106355489Y-69375489D01*
X106355489Y-69375489D02*
X106500000Y-69520000D01*
X93500000Y-67000000D02*
X93000000Y-67000000D01*
D40*
X92810000Y-68035000D02*
X92810000Y-67190000D01*
D36*
X93062500Y-65950000D02*
X93062500Y-66937500D01*
X93550000Y-76800000D02*
X93540000Y-76810000D01*
X94000000Y-66990500D02*
X93990500Y-67000000D01*
X98750000Y-68750000D02*
X99375489Y-69375489D01*
X98050489Y-75850489D02*
X93969511Y-75850489D01*
D38*
X105940000Y-75110000D02*
X105870000Y-75040000D01*
D36*
X93550000Y-76270000D02*
X93550000Y-76800000D01*
D39*
X94165000Y-72625000D02*
X94500000Y-72290000D01*
D37*
X95060000Y-67000000D02*
X93500000Y-67000000D01*
D36*
X94000000Y-66650000D02*
X94000000Y-66990500D01*
X93969511Y-75850489D02*
X93550000Y-76270000D01*
X93062500Y-66937500D02*
X93000000Y-67000000D01*
D40*
X92810000Y-67190000D02*
X93000000Y-67000000D01*
D39*
%TO.N,GND*%
X97500000Y-68300000D02*
X97130637Y-68300000D01*
D40*
X97750000Y-63950000D02*
X97750000Y-62989817D01*
D38*
X93062500Y-65400000D02*
X92621342Y-65400000D01*
D36*
X94937500Y-65400000D02*
X94760000Y-65400000D01*
X93342416Y-69052584D02*
X92810000Y-69585000D01*
X93625000Y-65400000D02*
X94000000Y-65025000D01*
D39*
X97130637Y-68300000D02*
X96850500Y-68019863D01*
D38*
X94000000Y-65775000D02*
X93855000Y-65775000D01*
X94375000Y-65400000D02*
X94760000Y-65400000D01*
D36*
X94224578Y-69052584D02*
X93342416Y-69052584D01*
X94375000Y-65400000D02*
X94000000Y-65025000D01*
D38*
X94000000Y-65775000D02*
X94375000Y-65400000D01*
X92621342Y-65400000D02*
X92607820Y-65386478D01*
D40*
X97250000Y-63950000D02*
X97250000Y-62500407D01*
X97250000Y-62500407D02*
X97255295Y-62495112D01*
D36*
X93480000Y-65400000D02*
X93625000Y-65400000D01*
D40*
X97750000Y-62989817D02*
X97255295Y-62495112D01*
D38*
X93855000Y-65775000D02*
X93480000Y-65400000D01*
D36*
X93062500Y-65400000D02*
X93480000Y-65400000D01*
D38*
%TO.N,/QSPI_SS*%
X103361820Y-67829542D02*
X103124511Y-67592233D01*
X103124511Y-66714511D02*
X102460000Y-66050000D01*
X103124511Y-67592233D02*
X103124511Y-66714511D01*
D41*
%TO.N,/USB_D+*%
X99815907Y-63109093D02*
X99815907Y-62695743D01*
X99815907Y-62695743D02*
X99625000Y-62504836D01*
%TO.N,/USB_D-*%
X100184093Y-63109093D02*
X100184093Y-62695743D01*
X100184093Y-62695743D02*
X100375000Y-62504836D01*
D39*
%TO.N,/SCL*%
X103155427Y-75749511D02*
X106099511Y-75749511D01*
X106099511Y-75749511D02*
X106480000Y-76130000D01*
X102195905Y-75604095D02*
X101250000Y-76550000D01*
X103010011Y-75604095D02*
X103155427Y-75749511D01*
X103010011Y-75604095D02*
X102195905Y-75604095D01*
%TO.N,/SDA*%
X105679011Y-76299011D02*
X106470000Y-77090000D01*
X102500000Y-76900000D02*
X103627817Y-76900000D01*
X104228806Y-76299011D02*
X105679011Y-76299011D01*
X103627817Y-76900000D02*
X104228806Y-76299011D01*
D40*
%TO.N,Net-(R7-Pad2)*%
X95440000Y-66160000D02*
X96070000Y-66160000D01*
X94937500Y-65950000D02*
X95230000Y-65950000D01*
X95230000Y-65950000D02*
X95440000Y-66160000D01*
D36*
%TO.N,Net-(U4-Pad1)*%
X93062500Y-64375000D02*
X93287500Y-64150000D01*
X93062500Y-64850000D02*
X93062500Y-64375000D01*
D40*
%TO.N,VBUS*%
X94524022Y-62775000D02*
X93500000Y-62775000D01*
D42*
X98030000Y-65250000D02*
X98030489Y-65249511D01*
D40*
X98250000Y-65030000D02*
X98250000Y-65224022D01*
X98224511Y-65249511D02*
X98030489Y-65249511D01*
X97090000Y-65360000D02*
X97200000Y-65250000D01*
X98750000Y-64530000D02*
X98250000Y-65030000D01*
D42*
X95550000Y-64850000D02*
X95950000Y-65250000D01*
X95950000Y-65250000D02*
X97200000Y-65250000D01*
D40*
X95350000Y-64850000D02*
X94937500Y-64850000D01*
D42*
X94937500Y-64850000D02*
X95550000Y-64850000D01*
D40*
X95374511Y-63625489D02*
X94524022Y-62775000D01*
X95350000Y-64850000D02*
X95374511Y-64825489D01*
X95374511Y-64825489D02*
X95374511Y-63625489D01*
D42*
X97200000Y-65250000D02*
X98030000Y-65250000D01*
D40*
X97090000Y-66160000D02*
X97090000Y-65360000D01*
X98250000Y-65224022D02*
X98224511Y-65249511D01*
X98250000Y-63950000D02*
X98250000Y-65030000D01*
D39*
%TO.N,Net-(R6-Pad1)*%
X107178750Y-64000000D02*
X106178750Y-65000000D01*
X106178750Y-65000000D02*
X105222950Y-65000000D01*
X103480000Y-66050000D02*
X104530000Y-65000000D01*
X107178750Y-66850000D02*
X107178750Y-66000000D01*
X107178750Y-63150000D02*
X107178750Y-64000000D01*
X107178750Y-66000000D02*
X106178750Y-65000000D01*
%TO.N,Net-(D1-Pad3)*%
X93428915Y-72013154D02*
X93188154Y-72013154D01*
X93188154Y-72013154D02*
X92950000Y-71775000D01*
D38*
%TO.N,Net-(D1-Pad4)*%
X93150000Y-70825000D02*
X93848539Y-70126461D01*
X93848539Y-70126461D02*
X93848539Y-69700927D01*
X92550000Y-70825000D02*
X93150000Y-70825000D01*
D39*
%TO.N,Net-(D1-Pad1)*%
X93240000Y-73550000D02*
X92575000Y-73550000D01*
%TD*%
%TA.AperFunction,Conductor*%
%TO.N,GND*%
G36*
X94685574Y-72777812D02*
G01*
X94733292Y-72816109D01*
X94749500Y-72870391D01*
X94749500Y-73019748D01*
X94761133Y-73078231D01*
X94805448Y-73144552D01*
X94813558Y-73149971D01*
X94818583Y-73154996D01*
X94846360Y-73209513D01*
X94836789Y-73269945D01*
X94818583Y-73295004D01*
X94813558Y-73300029D01*
X94805448Y-73305448D01*
X94761133Y-73371769D01*
X94749500Y-73430252D01*
X94749500Y-74269748D01*
X94761133Y-74328231D01*
X94805448Y-74394552D01*
X94813558Y-74399971D01*
X94818583Y-74404996D01*
X94846360Y-74459513D01*
X94836789Y-74519945D01*
X94818583Y-74545004D01*
X94813558Y-74550029D01*
X94805448Y-74555448D01*
X94761133Y-74621769D01*
X94759231Y-74631332D01*
X94759230Y-74631334D01*
X94755285Y-74651167D01*
X94749500Y-74680252D01*
X94749500Y-75400989D01*
X94730593Y-75459180D01*
X94681093Y-75495144D01*
X94650500Y-75499989D01*
X94017459Y-75499989D01*
X93996623Y-75497771D01*
X93995341Y-75497495D01*
X93986250Y-75495538D01*
X93954440Y-75499303D01*
X93948548Y-75499650D01*
X93948548Y-75499653D01*
X93944481Y-75499989D01*
X93940396Y-75499989D01*
X93936370Y-75500659D01*
X93936359Y-75500660D01*
X93922392Y-75502985D01*
X93917780Y-75503642D01*
X93870372Y-75509253D01*
X93870263Y-75508330D01*
X93858526Y-75510000D01*
X92857864Y-75510000D01*
X92845179Y-75514122D01*
X92843959Y-75515800D01*
X92843481Y-75520720D01*
X92849893Y-75573705D01*
X92852998Y-75585932D01*
X92902637Y-75711305D01*
X92909201Y-75722955D01*
X92990490Y-75830050D01*
X92999955Y-75839515D01*
X93039580Y-75869592D01*
X93074500Y-75919834D01*
X93073218Y-75981006D01*
X93069453Y-75990278D01*
X93046028Y-76040513D01*
X93039500Y-76090099D01*
X93039501Y-76449900D01*
X93039924Y-76453110D01*
X93039924Y-76453117D01*
X93044779Y-76489996D01*
X93046028Y-76499487D01*
X93049228Y-76506350D01*
X93049229Y-76506352D01*
X93069701Y-76550253D01*
X93077158Y-76610982D01*
X93069594Y-76634162D01*
X93056447Y-76662163D01*
X93055362Y-76669132D01*
X93055361Y-76669135D01*
X93051022Y-76697005D01*
X93034391Y-76803823D01*
X93035306Y-76810820D01*
X93035306Y-76810821D01*
X93037934Y-76830919D01*
X93052980Y-76945979D01*
X93055821Y-76952435D01*
X93055821Y-76952436D01*
X93063586Y-76970082D01*
X93110720Y-77077203D01*
X93136100Y-77107396D01*
X93198431Y-77181549D01*
X93198434Y-77181551D01*
X93202970Y-77186948D01*
X93208841Y-77190856D01*
X93208842Y-77190857D01*
X93226689Y-77202737D01*
X93322313Y-77266390D01*
X93422920Y-77297821D01*
X93452425Y-77307039D01*
X93452426Y-77307039D01*
X93459157Y-77309142D01*
X93530828Y-77310456D01*
X93595445Y-77311641D01*
X93595447Y-77311641D01*
X93602499Y-77311770D01*
X93609302Y-77309915D01*
X93609304Y-77309915D01*
X93684503Y-77289413D01*
X93740817Y-77274060D01*
X93862991Y-77199045D01*
X93867845Y-77193683D01*
X93954468Y-77097982D01*
X93959200Y-77092754D01*
X94021710Y-76963733D01*
X94023185Y-76954970D01*
X94044862Y-76826124D01*
X94044862Y-76826120D01*
X94045496Y-76822354D01*
X94045647Y-76810000D01*
X94028712Y-76691748D01*
X94026323Y-76675063D01*
X94026323Y-76675061D01*
X94025323Y-76668082D01*
X94022405Y-76661665D01*
X94022403Y-76661657D01*
X94019524Y-76655326D01*
X94012649Y-76594528D01*
X94019918Y-76572515D01*
X94053972Y-76499487D01*
X94060500Y-76449901D01*
X94060499Y-76299989D01*
X94079406Y-76241799D01*
X94128906Y-76205835D01*
X94159499Y-76200989D01*
X96601000Y-76200989D01*
X96659191Y-76219896D01*
X96695155Y-76269396D01*
X96700000Y-76299989D01*
X96700000Y-76684320D01*
X96704122Y-76697005D01*
X96708243Y-76700000D01*
X97601000Y-76700000D01*
X97659191Y-76718907D01*
X97695155Y-76768407D01*
X97700000Y-76799000D01*
X97700000Y-78034319D01*
X97704122Y-78047004D01*
X97708243Y-78049999D01*
X97927585Y-78049999D01*
X97935329Y-78049389D01*
X98017449Y-78036384D01*
X98032091Y-78031627D01*
X98131106Y-77981177D01*
X98143551Y-77972135D01*
X98222135Y-77893551D01*
X98225865Y-77888417D01*
X98275365Y-77852453D01*
X98320570Y-77849789D01*
X98320640Y-77849075D01*
X98325147Y-77849519D01*
X98325280Y-77849511D01*
X98330252Y-77850500D01*
X99169748Y-77850500D01*
X99195995Y-77845279D01*
X99218666Y-77840770D01*
X99218668Y-77840769D01*
X99228231Y-77838867D01*
X99294552Y-77794552D01*
X99299971Y-77786442D01*
X99304996Y-77781417D01*
X99359513Y-77753640D01*
X99419945Y-77763211D01*
X99445004Y-77781417D01*
X99450029Y-77786442D01*
X99455448Y-77794552D01*
X99521769Y-77838867D01*
X99531332Y-77840769D01*
X99531334Y-77840770D01*
X99554005Y-77845279D01*
X99580252Y-77850500D01*
X100419748Y-77850500D01*
X100445995Y-77845279D01*
X100468666Y-77840770D01*
X100468668Y-77840769D01*
X100478231Y-77838867D01*
X100544552Y-77794552D01*
X100549971Y-77786442D01*
X100554996Y-77781417D01*
X100609513Y-77753640D01*
X100669945Y-77763211D01*
X100695004Y-77781417D01*
X100700029Y-77786442D01*
X100705448Y-77794552D01*
X100771769Y-77838867D01*
X100781332Y-77840769D01*
X100781334Y-77840770D01*
X100804005Y-77845279D01*
X100830252Y-77850500D01*
X101669748Y-77850500D01*
X101695995Y-77845279D01*
X101718666Y-77840770D01*
X101718668Y-77840769D01*
X101728231Y-77838867D01*
X101794552Y-77794552D01*
X101799971Y-77786442D01*
X101804996Y-77781417D01*
X101859513Y-77753640D01*
X101919945Y-77763211D01*
X101945004Y-77781417D01*
X101950029Y-77786442D01*
X101955448Y-77794552D01*
X102021769Y-77838867D01*
X102031332Y-77840769D01*
X102031334Y-77840770D01*
X102054005Y-77845279D01*
X102080252Y-77850500D01*
X102919748Y-77850500D01*
X102945995Y-77845279D01*
X102968666Y-77840770D01*
X102968668Y-77840769D01*
X102978231Y-77838867D01*
X103044552Y-77794552D01*
X103088867Y-77728231D01*
X103100500Y-77669748D01*
X103100500Y-77299500D01*
X103119407Y-77241309D01*
X103168907Y-77205345D01*
X103199500Y-77200500D01*
X103574309Y-77200500D01*
X103578434Y-77200803D01*
X103583159Y-77202425D01*
X103632578Y-77200570D01*
X103636291Y-77200500D01*
X103655765Y-77200500D01*
X103660195Y-77199675D01*
X103665388Y-77199339D01*
X103681419Y-77198737D01*
X103685892Y-77198569D01*
X103695025Y-77198226D01*
X103703419Y-77194620D01*
X103703422Y-77194619D01*
X103705600Y-77193683D01*
X103726551Y-77187317D01*
X103737870Y-77185209D01*
X103760546Y-77171232D01*
X103773413Y-77164548D01*
X103791459Y-77156795D01*
X103791460Y-77156794D01*
X103797880Y-77154036D01*
X103802766Y-77150022D01*
X103807130Y-77145658D01*
X103825185Y-77131387D01*
X103833165Y-77126468D01*
X103850835Y-77103231D01*
X103859627Y-77093161D01*
X104124765Y-76828023D01*
X104179282Y-76800246D01*
X104196580Y-76799044D01*
X104240896Y-76799857D01*
X104284252Y-76800652D01*
X104284254Y-76800652D01*
X104291305Y-76800781D01*
X104298108Y-76798926D01*
X104298110Y-76798926D01*
X104373309Y-76778424D01*
X104429623Y-76763071D01*
X104551797Y-76688056D01*
X104569877Y-76668082D01*
X104602468Y-76632075D01*
X104655536Y-76601621D01*
X104675866Y-76599511D01*
X105513533Y-76599511D01*
X105571724Y-76618418D01*
X105583537Y-76628508D01*
X105850504Y-76895476D01*
X105878281Y-76949992D01*
X105879500Y-76965479D01*
X105879500Y-77164316D01*
X105885932Y-77213173D01*
X105889135Y-77220041D01*
X105889135Y-77220042D01*
X105931909Y-77311770D01*
X105935935Y-77320404D01*
X106019596Y-77404065D01*
X106032919Y-77410277D01*
X106077664Y-77452005D01*
X106089338Y-77512067D01*
X106063479Y-77567519D01*
X106032920Y-77589722D01*
X106019596Y-77595935D01*
X105935935Y-77679596D01*
X105932275Y-77687444D01*
X105932274Y-77687446D01*
X105901407Y-77753640D01*
X105885932Y-77786827D01*
X105879500Y-77835684D01*
X105879500Y-78184316D01*
X105885932Y-78233173D01*
X105889135Y-78240041D01*
X105889135Y-78240042D01*
X105932273Y-78332552D01*
X105932275Y-78332554D01*
X105935935Y-78340404D01*
X105938430Y-78342899D01*
X105955475Y-78398651D01*
X105946105Y-78438994D01*
X105916447Y-78502163D01*
X105894391Y-78643823D01*
X105895306Y-78650820D01*
X105895306Y-78650821D01*
X105911780Y-78776802D01*
X105912980Y-78785979D01*
X105915821Y-78792435D01*
X105915821Y-78792436D01*
X105923586Y-78810082D01*
X105970720Y-78917203D01*
X106002114Y-78954551D01*
X106058431Y-79021549D01*
X106058434Y-79021551D01*
X106062970Y-79026948D01*
X106068841Y-79030856D01*
X106068842Y-79030857D01*
X106081143Y-79039045D01*
X106182313Y-79106390D01*
X106267671Y-79133057D01*
X106312425Y-79147039D01*
X106312426Y-79147039D01*
X106319157Y-79149142D01*
X106390828Y-79150456D01*
X106455445Y-79151641D01*
X106455447Y-79151641D01*
X106462499Y-79151770D01*
X106469302Y-79149915D01*
X106469304Y-79149915D01*
X106544503Y-79129413D01*
X106600817Y-79114060D01*
X106722991Y-79039045D01*
X106730403Y-79030857D01*
X106814468Y-78937982D01*
X106819200Y-78932754D01*
X106881710Y-78803733D01*
X106883484Y-78793188D01*
X106884878Y-78790515D01*
X106885024Y-78790059D01*
X106885103Y-78790084D01*
X106911785Y-78738941D01*
X106966567Y-78711689D01*
X107026904Y-78721842D01*
X107062208Y-78752831D01*
X107074756Y-78770751D01*
X107077235Y-78774292D01*
X107225708Y-78922765D01*
X107303223Y-78977041D01*
X107374498Y-79026948D01*
X107397708Y-79043200D01*
X107588008Y-79131939D01*
X107644362Y-79147039D01*
X107726623Y-79169081D01*
X107777938Y-79202405D01*
X107800000Y-79264708D01*
X107800000Y-79701000D01*
X107781093Y-79759191D01*
X107731593Y-79795155D01*
X107701000Y-79800000D01*
X92299000Y-79800000D01*
X92240809Y-79781093D01*
X92204845Y-79731593D01*
X92200000Y-79701000D01*
X92200000Y-79264708D01*
X92218907Y-79206517D01*
X92273377Y-79169081D01*
X92355638Y-79147039D01*
X92411992Y-79131939D01*
X92602292Y-79043200D01*
X92625503Y-79026948D01*
X92696777Y-78977041D01*
X92774292Y-78922765D01*
X92922765Y-78774292D01*
X93009795Y-78650000D01*
X93040718Y-78605837D01*
X93040719Y-78605835D01*
X93043200Y-78602292D01*
X93131939Y-78411992D01*
X93160685Y-78304711D01*
X96356386Y-78304711D01*
X96357301Y-78311708D01*
X96357301Y-78311709D01*
X96365996Y-78378200D01*
X96374975Y-78446867D01*
X96377816Y-78453323D01*
X96377816Y-78453324D01*
X96402374Y-78509135D01*
X96432715Y-78578091D01*
X96445787Y-78593642D01*
X96520426Y-78682437D01*
X96520429Y-78682439D01*
X96524965Y-78687836D01*
X96530836Y-78691744D01*
X96530837Y-78691745D01*
X96543138Y-78699933D01*
X96644308Y-78767278D01*
X96718687Y-78790515D01*
X96774420Y-78807927D01*
X96774421Y-78807927D01*
X96781152Y-78810030D01*
X96852823Y-78811344D01*
X96917440Y-78812529D01*
X96917442Y-78812529D01*
X96924494Y-78812658D01*
X96931297Y-78810803D01*
X96931299Y-78810803D01*
X97022351Y-78785979D01*
X97062812Y-78774948D01*
X97184986Y-78699933D01*
X97192398Y-78691745D01*
X97276463Y-78598870D01*
X97281195Y-78593642D01*
X97343705Y-78464621D01*
X97347870Y-78439870D01*
X97366857Y-78327012D01*
X97366857Y-78327008D01*
X97367491Y-78323242D01*
X97367642Y-78310888D01*
X97347318Y-78168970D01*
X97308878Y-78084425D01*
X97300000Y-78043449D01*
X97300000Y-77115680D01*
X97295878Y-77102995D01*
X97291757Y-77100000D01*
X96715681Y-77100000D01*
X96702996Y-77104122D01*
X96700001Y-77108243D01*
X96700001Y-77677585D01*
X96700611Y-77685330D01*
X96710181Y-77745763D01*
X96700609Y-77806195D01*
X96655420Y-77849152D01*
X96655524Y-77849316D01*
X96534275Y-77925818D01*
X96529608Y-77931102D01*
X96529606Y-77931104D01*
X96444039Y-78027991D01*
X96444037Y-78027993D01*
X96439372Y-78033276D01*
X96378442Y-78163051D01*
X96377357Y-78170020D01*
X96377356Y-78170023D01*
X96371932Y-78204863D01*
X96356386Y-78304711D01*
X93160685Y-78304711D01*
X93178013Y-78240042D01*
X93185165Y-78213351D01*
X93185165Y-78213349D01*
X93186284Y-78209174D01*
X93204584Y-78000000D01*
X93186284Y-77790826D01*
X93185110Y-77786442D01*
X93153841Y-77669748D01*
X93131939Y-77588008D01*
X93043200Y-77397708D01*
X93011746Y-77352786D01*
X92983026Y-77311770D01*
X92922765Y-77225708D01*
X92774292Y-77077235D01*
X92614687Y-76965479D01*
X92605837Y-76959282D01*
X92605835Y-76959281D01*
X92602292Y-76956800D01*
X92411992Y-76868061D01*
X92343508Y-76849711D01*
X92273377Y-76830919D01*
X92222062Y-76797595D01*
X92200000Y-76735292D01*
X92200000Y-75094432D01*
X92844068Y-75094432D01*
X92846636Y-75107522D01*
X92848156Y-75108934D01*
X92852984Y-75110000D01*
X93334320Y-75110000D01*
X93347005Y-75105878D01*
X93350000Y-75101757D01*
X93350000Y-74645680D01*
X93347583Y-74638243D01*
X93750000Y-74638243D01*
X93750000Y-75094320D01*
X93754122Y-75107005D01*
X93758243Y-75110000D01*
X94242136Y-75110000D01*
X94254821Y-75105878D01*
X94256041Y-75104200D01*
X94256519Y-75099280D01*
X94250107Y-75046295D01*
X94247002Y-75034068D01*
X94197363Y-74908695D01*
X94190799Y-74897045D01*
X94109510Y-74789950D01*
X94100050Y-74780490D01*
X93992955Y-74699201D01*
X93981305Y-74692637D01*
X93855933Y-74642999D01*
X93843705Y-74639893D01*
X93764920Y-74630359D01*
X93764630Y-74630341D01*
X93752995Y-74634122D01*
X93750000Y-74638243D01*
X93347583Y-74638243D01*
X93345878Y-74632995D01*
X93341757Y-74630000D01*
X93341034Y-74630000D01*
X93335080Y-74630359D01*
X93256295Y-74639893D01*
X93244067Y-74642999D01*
X93118695Y-74692637D01*
X93107045Y-74699201D01*
X92999950Y-74780490D01*
X92990490Y-74789950D01*
X92909201Y-74897045D01*
X92902637Y-74908695D01*
X92852998Y-75034068D01*
X92849893Y-75046295D01*
X92844068Y-75094432D01*
X92200000Y-75094432D01*
X92200000Y-74299500D01*
X92218907Y-74241309D01*
X92268407Y-74205345D01*
X92299000Y-74200500D01*
X93019748Y-74200500D01*
X93045995Y-74195279D01*
X93068666Y-74190770D01*
X93068668Y-74190769D01*
X93078231Y-74188867D01*
X93144552Y-74144552D01*
X93177660Y-74095003D01*
X93225709Y-74057125D01*
X93261787Y-74051023D01*
X93281872Y-74051392D01*
X93295446Y-74051641D01*
X93295448Y-74051641D01*
X93302499Y-74051770D01*
X93309302Y-74049915D01*
X93309304Y-74049915D01*
X93384503Y-74029413D01*
X93440817Y-74014060D01*
X93562991Y-73939045D01*
X93659200Y-73832754D01*
X93721710Y-73703733D01*
X93739163Y-73600000D01*
X93744862Y-73566124D01*
X93744862Y-73566120D01*
X93745496Y-73562354D01*
X93745647Y-73550000D01*
X93725323Y-73408082D01*
X93682346Y-73313558D01*
X93668905Y-73283996D01*
X93668904Y-73283995D01*
X93665984Y-73277572D01*
X93599574Y-73200500D01*
X93577005Y-73174307D01*
X93577004Y-73174306D01*
X93572400Y-73168963D01*
X93477690Y-73107575D01*
X93439144Y-73060059D01*
X93435888Y-72998960D01*
X93469167Y-72947617D01*
X93531537Y-72925500D01*
X94111492Y-72925500D01*
X94115617Y-72925803D01*
X94120342Y-72927425D01*
X94169761Y-72925570D01*
X94173474Y-72925500D01*
X94192948Y-72925500D01*
X94197378Y-72924675D01*
X94202571Y-72924339D01*
X94218602Y-72923737D01*
X94223075Y-72923569D01*
X94232208Y-72923226D01*
X94240602Y-72919620D01*
X94240605Y-72919619D01*
X94242783Y-72918683D01*
X94263734Y-72912317D01*
X94275053Y-72910209D01*
X94297729Y-72896232D01*
X94310596Y-72889548D01*
X94328642Y-72881795D01*
X94328643Y-72881794D01*
X94335063Y-72879036D01*
X94339949Y-72875022D01*
X94344313Y-72870658D01*
X94362368Y-72856387D01*
X94370348Y-72851468D01*
X94387360Y-72829096D01*
X94437632Y-72794220D01*
X94467979Y-72790037D01*
X94555445Y-72791641D01*
X94555447Y-72791641D01*
X94562499Y-72791770D01*
X94624461Y-72774877D01*
X94685574Y-72777812D01*
G37*
%TD.AperFunction*%
%TA.AperFunction,Conductor*%
G36*
X105533841Y-66033907D02*
G01*
X105569805Y-66083407D01*
X105574650Y-66114000D01*
X105574650Y-66974321D01*
X105578772Y-66987007D01*
X105582765Y-66989908D01*
X105618729Y-67039408D01*
X105622728Y-67082922D01*
X105619408Y-67108138D01*
X105620063Y-67114071D01*
X105620063Y-67114075D01*
X105635125Y-67250500D01*
X105636685Y-67264633D01*
X105642709Y-67281093D01*
X105688276Y-67405611D01*
X105690793Y-67412490D01*
X105694122Y-67417444D01*
X105775279Y-67538219D01*
X105775282Y-67538223D01*
X105778608Y-67543172D01*
X105783019Y-67547186D01*
X105783021Y-67547188D01*
X105890645Y-67645118D01*
X105895060Y-67649135D01*
X105939839Y-67673448D01*
X106028180Y-67721414D01*
X106028182Y-67721415D01*
X106033426Y-67724262D01*
X106113184Y-67745186D01*
X106179950Y-67762702D01*
X106179954Y-67762702D01*
X106185719Y-67764215D01*
X106191680Y-67764309D01*
X106191683Y-67764309D01*
X106264432Y-67765452D01*
X106343145Y-67766688D01*
X106399710Y-67753733D01*
X106490799Y-67732871D01*
X106490801Y-67732870D01*
X106496618Y-67731538D01*
X106503705Y-67727974D01*
X106583931Y-67687624D01*
X106637275Y-67660795D01*
X106641815Y-67656917D01*
X106646784Y-67653616D01*
X106647832Y-67655193D01*
X106696598Y-67634991D01*
X106759370Y-67651372D01*
X106800519Y-67678867D01*
X106810082Y-67680769D01*
X106810084Y-67680770D01*
X106829185Y-67684569D01*
X106859002Y-67690500D01*
X107701000Y-67690500D01*
X107759191Y-67709407D01*
X107795155Y-67758907D01*
X107800000Y-67789500D01*
X107800000Y-76735292D01*
X107781093Y-76793483D01*
X107726623Y-76830919D01*
X107656492Y-76849711D01*
X107588008Y-76868061D01*
X107397708Y-76956800D01*
X107394165Y-76959281D01*
X107394163Y-76959282D01*
X107385313Y-76965479D01*
X107225708Y-77077235D01*
X107089504Y-77213439D01*
X107034987Y-77241216D01*
X106974555Y-77231645D01*
X106931290Y-77188380D01*
X106920500Y-77143435D01*
X106920500Y-76815684D01*
X106914068Y-76766827D01*
X106899363Y-76735292D01*
X106867726Y-76667446D01*
X106867725Y-76667444D01*
X106864065Y-76659596D01*
X106834473Y-76630004D01*
X106806696Y-76575487D01*
X106816267Y-76515055D01*
X106834473Y-76489996D01*
X106864065Y-76460404D01*
X106868964Y-76449900D01*
X106910865Y-76360042D01*
X106910865Y-76360041D01*
X106914068Y-76353173D01*
X106920500Y-76304316D01*
X106920500Y-75955684D01*
X106914068Y-75906827D01*
X106864065Y-75799596D01*
X106780404Y-75715935D01*
X106767081Y-75709723D01*
X106722336Y-75667995D01*
X106710662Y-75607933D01*
X106736521Y-75552481D01*
X106767080Y-75530278D01*
X106780404Y-75524065D01*
X106864065Y-75440404D01*
X106873874Y-75419370D01*
X106910865Y-75340042D01*
X106910865Y-75340041D01*
X106914068Y-75333173D01*
X106920500Y-75284316D01*
X106920500Y-74935684D01*
X106914068Y-74886827D01*
X106910865Y-74879958D01*
X106867726Y-74787446D01*
X106867725Y-74787444D01*
X106864065Y-74779596D01*
X106780404Y-74695935D01*
X106772556Y-74692275D01*
X106772554Y-74692274D01*
X106680042Y-74649135D01*
X106680041Y-74649135D01*
X106673173Y-74645932D01*
X106624316Y-74639500D01*
X106201650Y-74639500D01*
X106147803Y-74623575D01*
X106088016Y-74584823D01*
X106088017Y-74584823D01*
X106082095Y-74580985D01*
X105944739Y-74539907D01*
X105861497Y-74539398D01*
X105808427Y-74539074D01*
X105808426Y-74539074D01*
X105801376Y-74539031D01*
X105794599Y-74540968D01*
X105794598Y-74540968D01*
X105670309Y-74576490D01*
X105670307Y-74576491D01*
X105663529Y-74578428D01*
X105542280Y-74654930D01*
X105537613Y-74660214D01*
X105537611Y-74660216D01*
X105452044Y-74757103D01*
X105452042Y-74757105D01*
X105447377Y-74762388D01*
X105444381Y-74768769D01*
X105439114Y-74779988D01*
X105397268Y-74824626D01*
X105337176Y-74836143D01*
X105281792Y-74810139D01*
X105252270Y-74756547D01*
X105250500Y-74737913D01*
X105250500Y-74680252D01*
X105244715Y-74651167D01*
X105240770Y-74631334D01*
X105240769Y-74631332D01*
X105238867Y-74621769D01*
X105194552Y-74555448D01*
X105186442Y-74550029D01*
X105181417Y-74545004D01*
X105153640Y-74490487D01*
X105163211Y-74430055D01*
X105181417Y-74404996D01*
X105186442Y-74399971D01*
X105194552Y-74394552D01*
X105238867Y-74328231D01*
X105250500Y-74269748D01*
X105250500Y-73430252D01*
X105238867Y-73371769D01*
X105194552Y-73305448D01*
X105186442Y-73300029D01*
X105181417Y-73295004D01*
X105153640Y-73240487D01*
X105163211Y-73180055D01*
X105181417Y-73154996D01*
X105186442Y-73149971D01*
X105194552Y-73144552D01*
X105238867Y-73078231D01*
X105250500Y-73019748D01*
X105250500Y-72218989D01*
X105269407Y-72160798D01*
X105318907Y-72124834D01*
X105379021Y-72124493D01*
X105421790Y-72137854D01*
X105428525Y-72139958D01*
X105500196Y-72141272D01*
X105564813Y-72142457D01*
X105564815Y-72142457D01*
X105571867Y-72142586D01*
X105578670Y-72140731D01*
X105578672Y-72140731D01*
X105677966Y-72113660D01*
X105710185Y-72104876D01*
X105832359Y-72029861D01*
X105841335Y-72019945D01*
X105923836Y-71928798D01*
X105928568Y-71923570D01*
X105991078Y-71794549D01*
X106000134Y-71740726D01*
X106014230Y-71656940D01*
X106014230Y-71656936D01*
X106014864Y-71653170D01*
X106015015Y-71640816D01*
X105994691Y-71498898D01*
X105972686Y-71450500D01*
X105938273Y-71374812D01*
X105938272Y-71374811D01*
X105935352Y-71368388D01*
X105841768Y-71259779D01*
X105721463Y-71181801D01*
X105584107Y-71140723D01*
X105500865Y-71140214D01*
X105447795Y-71139890D01*
X105447794Y-71139890D01*
X105440744Y-71139847D01*
X105433963Y-71141785D01*
X105376704Y-71158149D01*
X105315558Y-71155960D01*
X105267377Y-71118248D01*
X105250500Y-71062960D01*
X105250500Y-70930252D01*
X105238867Y-70871769D01*
X105194552Y-70805448D01*
X105186442Y-70800029D01*
X105181417Y-70795004D01*
X105153640Y-70740487D01*
X105161522Y-70690720D01*
X105793481Y-70690720D01*
X105799893Y-70743705D01*
X105802998Y-70755932D01*
X105852637Y-70881305D01*
X105859201Y-70892955D01*
X105940490Y-71000050D01*
X105949950Y-71009510D01*
X106057045Y-71090799D01*
X106068695Y-71097363D01*
X106194067Y-71147001D01*
X106206295Y-71150107D01*
X106285080Y-71159641D01*
X106285370Y-71159659D01*
X106297005Y-71155878D01*
X106300000Y-71151757D01*
X106300000Y-70695680D01*
X106297583Y-70688243D01*
X106700000Y-70688243D01*
X106700000Y-71144320D01*
X106704122Y-71157005D01*
X106708243Y-71160000D01*
X106708966Y-71160000D01*
X106714920Y-71159641D01*
X106793705Y-71150107D01*
X106805933Y-71147001D01*
X106931305Y-71097363D01*
X106942955Y-71090799D01*
X107050050Y-71009510D01*
X107059510Y-71000050D01*
X107140799Y-70892955D01*
X107147363Y-70881305D01*
X107197002Y-70755932D01*
X107200107Y-70743705D01*
X107205932Y-70695568D01*
X107203364Y-70682478D01*
X107201844Y-70681066D01*
X107197016Y-70680000D01*
X106715680Y-70680000D01*
X106702995Y-70684122D01*
X106700000Y-70688243D01*
X106297583Y-70688243D01*
X106295878Y-70682995D01*
X106291757Y-70680000D01*
X105807864Y-70680000D01*
X105795179Y-70684122D01*
X105793959Y-70685800D01*
X105793481Y-70690720D01*
X105161522Y-70690720D01*
X105163211Y-70680055D01*
X105181417Y-70654996D01*
X105186442Y-70649971D01*
X105194552Y-70644552D01*
X105238867Y-70578231D01*
X105250500Y-70519748D01*
X105250500Y-69824989D01*
X105269407Y-69766798D01*
X105318907Y-69730834D01*
X105349500Y-69725989D01*
X105922001Y-69725989D01*
X105980192Y-69744896D01*
X106011724Y-69783147D01*
X106019448Y-69799712D01*
X106026907Y-69860439D01*
X105997245Y-69913954D01*
X105989580Y-69920408D01*
X105949955Y-69950485D01*
X105940490Y-69959950D01*
X105859201Y-70067045D01*
X105852637Y-70078695D01*
X105802998Y-70204068D01*
X105799893Y-70216295D01*
X105794068Y-70264432D01*
X105796636Y-70277522D01*
X105798156Y-70278934D01*
X105802984Y-70280000D01*
X107192136Y-70280000D01*
X107204821Y-70275878D01*
X107206041Y-70274200D01*
X107206519Y-70269280D01*
X107200107Y-70216295D01*
X107197002Y-70204068D01*
X107147363Y-70078695D01*
X107140799Y-70067045D01*
X107059510Y-69959950D01*
X107050045Y-69950485D01*
X107010420Y-69920408D01*
X106975500Y-69870166D01*
X106976782Y-69808994D01*
X106980547Y-69799722D01*
X107003972Y-69749487D01*
X107010500Y-69699901D01*
X107010499Y-69591569D01*
X107029406Y-69533379D01*
X107083458Y-69496056D01*
X107200817Y-69464060D01*
X107322991Y-69389045D01*
X107385587Y-69319890D01*
X107414468Y-69287982D01*
X107419200Y-69282754D01*
X107481710Y-69153733D01*
X107493219Y-69085329D01*
X107504862Y-69016124D01*
X107504862Y-69016120D01*
X107505496Y-69012354D01*
X107505549Y-69008065D01*
X107505600Y-69003826D01*
X107505647Y-69000000D01*
X107485323Y-68858082D01*
X107432631Y-68742191D01*
X107428905Y-68733996D01*
X107428904Y-68733995D01*
X107425984Y-68727572D01*
X107365582Y-68657472D01*
X107337005Y-68624307D01*
X107337004Y-68624306D01*
X107332400Y-68618963D01*
X107212095Y-68540985D01*
X107074739Y-68499907D01*
X106991497Y-68499398D01*
X106938427Y-68499074D01*
X106938426Y-68499074D01*
X106931376Y-68499031D01*
X106924599Y-68500968D01*
X106924598Y-68500968D01*
X106800309Y-68536490D01*
X106800307Y-68536491D01*
X106793529Y-68538428D01*
X106756973Y-68561493D01*
X106682817Y-68608282D01*
X106672280Y-68614930D01*
X106667613Y-68620214D01*
X106667611Y-68620216D01*
X106582044Y-68717103D01*
X106582042Y-68717105D01*
X106577377Y-68722388D01*
X106516447Y-68852163D01*
X106507603Y-68908965D01*
X106502715Y-68940358D01*
X106475081Y-68994947D01*
X106420637Y-69022867D01*
X106400890Y-69023204D01*
X106400025Y-69022945D01*
X106391850Y-69023266D01*
X106391849Y-69023266D01*
X106349935Y-69024913D01*
X106346048Y-69024989D01*
X103199500Y-69024989D01*
X103141309Y-69006082D01*
X103105345Y-68956582D01*
X103100500Y-68925989D01*
X103100500Y-68406949D01*
X103119407Y-68348758D01*
X103168907Y-68312794D01*
X103229021Y-68312453D01*
X103274242Y-68326580D01*
X103280977Y-68328684D01*
X103352648Y-68329998D01*
X103417265Y-68331183D01*
X103417267Y-68331183D01*
X103424319Y-68331312D01*
X103431122Y-68329457D01*
X103431124Y-68329457D01*
X103548948Y-68297334D01*
X103562637Y-68293602D01*
X103684811Y-68218587D01*
X103781020Y-68112296D01*
X103785604Y-68102834D01*
X104234391Y-68102834D01*
X104235306Y-68109831D01*
X104235306Y-68109832D01*
X104236493Y-68118907D01*
X104252980Y-68244990D01*
X104255821Y-68251446D01*
X104255821Y-68251447D01*
X104290963Y-68331312D01*
X104310720Y-68376214D01*
X104356845Y-68431087D01*
X104398431Y-68480560D01*
X104398434Y-68480562D01*
X104402970Y-68485959D01*
X104408841Y-68489867D01*
X104408842Y-68489868D01*
X104430256Y-68504122D01*
X104522313Y-68565401D01*
X104622920Y-68596832D01*
X104652425Y-68606050D01*
X104652426Y-68606050D01*
X104659157Y-68608153D01*
X104730828Y-68609467D01*
X104795445Y-68610652D01*
X104795447Y-68610652D01*
X104802499Y-68610781D01*
X104809302Y-68608926D01*
X104809304Y-68608926D01*
X104884503Y-68588424D01*
X104940817Y-68573071D01*
X105062991Y-68498056D01*
X105070403Y-68489868D01*
X105154468Y-68396993D01*
X105159200Y-68391765D01*
X105221710Y-68262744D01*
X105225875Y-68237993D01*
X105244862Y-68125135D01*
X105244862Y-68125131D01*
X105245496Y-68121365D01*
X105245647Y-68109011D01*
X105225323Y-67967093D01*
X105186977Y-67882754D01*
X105168905Y-67843007D01*
X105168904Y-67843006D01*
X105165984Y-67836583D01*
X105099054Y-67758907D01*
X105077005Y-67733318D01*
X105077004Y-67733317D01*
X105072400Y-67727974D01*
X104952095Y-67649996D01*
X104814739Y-67608918D01*
X104731497Y-67608409D01*
X104678427Y-67608085D01*
X104678426Y-67608085D01*
X104671376Y-67608042D01*
X104664599Y-67609979D01*
X104664598Y-67609979D01*
X104540309Y-67645501D01*
X104540307Y-67645502D01*
X104533529Y-67647439D01*
X104412280Y-67723941D01*
X104407613Y-67729225D01*
X104407611Y-67729227D01*
X104322044Y-67826114D01*
X104322042Y-67826116D01*
X104317377Y-67831399D01*
X104314381Y-67837781D01*
X104314380Y-67837782D01*
X104296247Y-67876404D01*
X104256447Y-67961174D01*
X104255362Y-67968143D01*
X104255361Y-67968146D01*
X104252017Y-67989624D01*
X104234391Y-68102834D01*
X103785604Y-68102834D01*
X103843530Y-67983275D01*
X103845078Y-67974077D01*
X103866682Y-67845666D01*
X103866682Y-67845662D01*
X103867316Y-67841896D01*
X103867367Y-67837782D01*
X103867420Y-67833368D01*
X103867467Y-67829542D01*
X103847143Y-67687624D01*
X103787804Y-67557114D01*
X103784663Y-67553469D01*
X103769498Y-67495257D01*
X103791821Y-67438290D01*
X103842283Y-67405611D01*
X103893653Y-67391606D01*
X103893654Y-67391606D01*
X103900453Y-67389752D01*
X104022627Y-67314737D01*
X104043656Y-67291505D01*
X104114104Y-67213674D01*
X104118836Y-67208446D01*
X104181346Y-67079425D01*
X104188398Y-67037507D01*
X104216697Y-66983261D01*
X104271478Y-66956008D01*
X104330971Y-66965723D01*
X104342562Y-66971629D01*
X104357197Y-66976384D01*
X104439323Y-66989391D01*
X104447062Y-66990000D01*
X105158970Y-66990000D01*
X105171655Y-66985878D01*
X105174650Y-66981757D01*
X105174650Y-66114000D01*
X105193557Y-66055809D01*
X105243057Y-66019845D01*
X105273650Y-66015000D01*
X105475650Y-66015000D01*
X105533841Y-66033907D01*
G37*
%TD.AperFunction*%
%TA.AperFunction,Conductor*%
G36*
X96647519Y-66496521D02*
G01*
X96669722Y-66527080D01*
X96675935Y-66540404D01*
X96759596Y-66624065D01*
X96767444Y-66627725D01*
X96767446Y-66627726D01*
X96859958Y-66670865D01*
X96866827Y-66674068D01*
X96915684Y-66680500D01*
X97151000Y-66680500D01*
X97209191Y-66699407D01*
X97245155Y-66748907D01*
X97250000Y-66779500D01*
X97250000Y-67051001D01*
X97231093Y-67109192D01*
X97181593Y-67145156D01*
X97151000Y-67150001D01*
X97072415Y-67150001D01*
X97064671Y-67150611D01*
X96982551Y-67163616D01*
X96967909Y-67168373D01*
X96868894Y-67218823D01*
X96856449Y-67227865D01*
X96777865Y-67306449D01*
X96768823Y-67318894D01*
X96718371Y-67417912D01*
X96713616Y-67432547D01*
X96700609Y-67514673D01*
X96700000Y-67522412D01*
X96700000Y-68084320D01*
X96704122Y-68097005D01*
X96708243Y-68100000D01*
X97601000Y-68100000D01*
X97659191Y-68118907D01*
X97695155Y-68168407D01*
X97700000Y-68199000D01*
X97700000Y-69434319D01*
X97704122Y-69447004D01*
X97708243Y-69449999D01*
X97927585Y-69449999D01*
X97935329Y-69449389D01*
X98017450Y-69436384D01*
X98033902Y-69431039D01*
X98095088Y-69431040D01*
X98144587Y-69467005D01*
X98163493Y-69525196D01*
X98145490Y-69582119D01*
X98106989Y-69636901D01*
X98101389Y-69647344D01*
X98066448Y-69736963D01*
X98027694Y-69784311D01*
X97974211Y-69800001D01*
X97572415Y-69800001D01*
X97564671Y-69800611D01*
X97482551Y-69813616D01*
X97467909Y-69818373D01*
X97368894Y-69868823D01*
X97356449Y-69877865D01*
X97277865Y-69956449D01*
X97268823Y-69968894D01*
X97218371Y-70067912D01*
X97213616Y-70082547D01*
X97200609Y-70164673D01*
X97200000Y-70172412D01*
X97200000Y-71184320D01*
X97204122Y-71197005D01*
X97208243Y-71200000D01*
X98584320Y-71200000D01*
X98597005Y-71195878D01*
X98600000Y-71191757D01*
X98600000Y-69859000D01*
X98618907Y-69800809D01*
X98668407Y-69764845D01*
X98699000Y-69760000D01*
X98901000Y-69760000D01*
X98959191Y-69778907D01*
X98995155Y-69828407D01*
X99000000Y-69859000D01*
X99000000Y-71184320D01*
X99004122Y-71197005D01*
X99008243Y-71200000D01*
X100984320Y-71200000D01*
X100997005Y-71195878D01*
X101000000Y-71191757D01*
X101000000Y-69859000D01*
X101018907Y-69800809D01*
X101068407Y-69764845D01*
X101099000Y-69760000D01*
X101301000Y-69760000D01*
X101359191Y-69778907D01*
X101395155Y-69828407D01*
X101400000Y-69859000D01*
X101400000Y-71184320D01*
X101404122Y-71197005D01*
X101408243Y-71200000D01*
X102784319Y-71200000D01*
X102797004Y-71195878D01*
X102799999Y-71191757D01*
X102799999Y-70172415D01*
X102799389Y-70164671D01*
X102786384Y-70082551D01*
X102781627Y-70067909D01*
X102731177Y-69968894D01*
X102722135Y-69956449D01*
X102660679Y-69894993D01*
X102632902Y-69840476D01*
X102642473Y-69780044D01*
X102685738Y-69736779D01*
X102730683Y-69725989D01*
X103250500Y-69725989D01*
X103308691Y-69744896D01*
X103344655Y-69794396D01*
X103349500Y-69824989D01*
X103349500Y-70519748D01*
X103361133Y-70578231D01*
X103405448Y-70644552D01*
X103413558Y-70649971D01*
X103418583Y-70654996D01*
X103446360Y-70709513D01*
X103436789Y-70769945D01*
X103418583Y-70795004D01*
X103413558Y-70800029D01*
X103405448Y-70805448D01*
X103361133Y-70871769D01*
X103349500Y-70930252D01*
X103349500Y-71769748D01*
X103361133Y-71828231D01*
X103405448Y-71894552D01*
X103413558Y-71899971D01*
X103418583Y-71904996D01*
X103446360Y-71959513D01*
X103436789Y-72019945D01*
X103418583Y-72045004D01*
X103413558Y-72050029D01*
X103405448Y-72055448D01*
X103361133Y-72121769D01*
X103349500Y-72180252D01*
X103349500Y-73019748D01*
X103361133Y-73078231D01*
X103405448Y-73144552D01*
X103413558Y-73149971D01*
X103418583Y-73154996D01*
X103446360Y-73209513D01*
X103436789Y-73269945D01*
X103418583Y-73295004D01*
X103413558Y-73300029D01*
X103405448Y-73305448D01*
X103361133Y-73371769D01*
X103349500Y-73430252D01*
X103349500Y-74269748D01*
X103361133Y-74328231D01*
X103405448Y-74394552D01*
X103413558Y-74399971D01*
X103418583Y-74404996D01*
X103446360Y-74459513D01*
X103436789Y-74519945D01*
X103418583Y-74545004D01*
X103413558Y-74550029D01*
X103405448Y-74555448D01*
X103361133Y-74621769D01*
X103359231Y-74631332D01*
X103359230Y-74631334D01*
X103355285Y-74651167D01*
X103349500Y-74680252D01*
X103349500Y-75050244D01*
X103330593Y-75108435D01*
X103281093Y-75144399D01*
X103222310Y-75144399D01*
X103222106Y-75145080D01*
X103104806Y-75110000D01*
X103084750Y-75104002D01*
X103001508Y-75103493D01*
X102948438Y-75103169D01*
X102948437Y-75103169D01*
X102941387Y-75103126D01*
X102934610Y-75105063D01*
X102934609Y-75105063D01*
X102926205Y-75107465D01*
X102865059Y-75105276D01*
X102816877Y-75067564D01*
X102800000Y-75012276D01*
X102800000Y-74015680D01*
X102795878Y-74002995D01*
X102791757Y-74000000D01*
X101415680Y-74000000D01*
X101402995Y-74004122D01*
X101400000Y-74008243D01*
X101400000Y-75384319D01*
X101404122Y-75397004D01*
X101408243Y-75399999D01*
X101736022Y-75399999D01*
X101794213Y-75418906D01*
X101830177Y-75468406D01*
X101830177Y-75529592D01*
X101806026Y-75569003D01*
X101454525Y-75920504D01*
X101400008Y-75948281D01*
X101384521Y-75949500D01*
X100830252Y-75949500D01*
X100804005Y-75954721D01*
X100781334Y-75959230D01*
X100781332Y-75959231D01*
X100771769Y-75961133D01*
X100705448Y-76005448D01*
X100700029Y-76013558D01*
X100695004Y-76018583D01*
X100640487Y-76046360D01*
X100580055Y-76036789D01*
X100554996Y-76018583D01*
X100549971Y-76013558D01*
X100544552Y-76005448D01*
X100478231Y-75961133D01*
X100468668Y-75959231D01*
X100468666Y-75959230D01*
X100445995Y-75954721D01*
X100419748Y-75949500D01*
X99580252Y-75949500D01*
X99554005Y-75954721D01*
X99531334Y-75959230D01*
X99531332Y-75959231D01*
X99521769Y-75961133D01*
X99455448Y-76005448D01*
X99450029Y-76013558D01*
X99445004Y-76018583D01*
X99390487Y-76046360D01*
X99330055Y-76036789D01*
X99304996Y-76018583D01*
X99299971Y-76013558D01*
X99294552Y-76005448D01*
X99228231Y-75961133D01*
X99218668Y-75959231D01*
X99218666Y-75959230D01*
X99195995Y-75954721D01*
X99169748Y-75949500D01*
X98686190Y-75949500D01*
X98627999Y-75930593D01*
X98616186Y-75920504D01*
X98332234Y-75636552D01*
X98319069Y-75620249D01*
X98317756Y-75618215D01*
X98317753Y-75618211D01*
X98313314Y-75611337D01*
X98288157Y-75591504D01*
X98283752Y-75587590D01*
X98283751Y-75587591D01*
X98280622Y-75584940D01*
X98277743Y-75582061D01*
X98274229Y-75579550D01*
X98274177Y-75579479D01*
X98271306Y-75577047D01*
X98271880Y-75576370D01*
X98237875Y-75530336D01*
X98237391Y-75469153D01*
X98272963Y-75419370D01*
X98331785Y-75400000D01*
X98584320Y-75400000D01*
X98597005Y-75395878D01*
X98600000Y-75391757D01*
X98600000Y-74015680D01*
X98597583Y-74008243D01*
X99000000Y-74008243D01*
X99000000Y-75384319D01*
X99004122Y-75397004D01*
X99008243Y-75399999D01*
X99968507Y-75399999D01*
X99968531Y-75400000D01*
X100984320Y-75400000D01*
X100997005Y-75395878D01*
X101000000Y-75391757D01*
X101000000Y-74015680D01*
X100995878Y-74002995D01*
X100991757Y-74000000D01*
X99015680Y-74000000D01*
X99002995Y-74004122D01*
X99000000Y-74008243D01*
X98597583Y-74008243D01*
X98595878Y-74002995D01*
X98591757Y-74000000D01*
X97215681Y-74000000D01*
X97202996Y-74004122D01*
X97200001Y-74008243D01*
X97200001Y-75027585D01*
X97200611Y-75035329D01*
X97213616Y-75117449D01*
X97218373Y-75132091D01*
X97268823Y-75231106D01*
X97277865Y-75243551D01*
X97361955Y-75327641D01*
X97360617Y-75328979D01*
X97390707Y-75370393D01*
X97390710Y-75431578D01*
X97354748Y-75481079D01*
X97296554Y-75499989D01*
X96749500Y-75499989D01*
X96691309Y-75481082D01*
X96655345Y-75431582D01*
X96650500Y-75400989D01*
X96650500Y-74680252D01*
X96644715Y-74651167D01*
X96640770Y-74631334D01*
X96640769Y-74631332D01*
X96638867Y-74621769D01*
X96594552Y-74555448D01*
X96586442Y-74550029D01*
X96581417Y-74545004D01*
X96553640Y-74490487D01*
X96563211Y-74430055D01*
X96581417Y-74404996D01*
X96586442Y-74399971D01*
X96594552Y-74394552D01*
X96638867Y-74328231D01*
X96650500Y-74269748D01*
X96650500Y-73430252D01*
X96638867Y-73371769D01*
X96594552Y-73305448D01*
X96586442Y-73300029D01*
X96581417Y-73295004D01*
X96553640Y-73240487D01*
X96563211Y-73180055D01*
X96581417Y-73154996D01*
X96586442Y-73149971D01*
X96594552Y-73144552D01*
X96638867Y-73078231D01*
X96650500Y-73019748D01*
X96650500Y-72568531D01*
X97200000Y-72568531D01*
X97200000Y-73584320D01*
X97204122Y-73597005D01*
X97208243Y-73600000D01*
X98584320Y-73600000D01*
X98597005Y-73595878D01*
X98600000Y-73591757D01*
X98600000Y-71615680D01*
X98597583Y-71608243D01*
X99000000Y-71608243D01*
X99000000Y-73584320D01*
X99004122Y-73597005D01*
X99008243Y-73600000D01*
X100984320Y-73600000D01*
X100997005Y-73595878D01*
X101000000Y-73591757D01*
X101000000Y-71615680D01*
X100997583Y-71608243D01*
X101400000Y-71608243D01*
X101400000Y-73584320D01*
X101404122Y-73597005D01*
X101408243Y-73600000D01*
X102784319Y-73600000D01*
X102797004Y-73595878D01*
X102799999Y-73591757D01*
X102799999Y-72631493D01*
X102800000Y-72631469D01*
X102800000Y-71615680D01*
X102795878Y-71602995D01*
X102791757Y-71600000D01*
X101415680Y-71600000D01*
X101402995Y-71604122D01*
X101400000Y-71608243D01*
X100997583Y-71608243D01*
X100995878Y-71602995D01*
X100991757Y-71600000D01*
X99015680Y-71600000D01*
X99002995Y-71604122D01*
X99000000Y-71608243D01*
X98597583Y-71608243D01*
X98595878Y-71602995D01*
X98591757Y-71600000D01*
X97215681Y-71600000D01*
X97202996Y-71604122D01*
X97200001Y-71608243D01*
X97200001Y-72568507D01*
X97200000Y-72568531D01*
X96650500Y-72568531D01*
X96650500Y-72180252D01*
X96638867Y-72121769D01*
X96594552Y-72055448D01*
X96586442Y-72050029D01*
X96581417Y-72045004D01*
X96553640Y-71990487D01*
X96563211Y-71930055D01*
X96581417Y-71904996D01*
X96586442Y-71899971D01*
X96594552Y-71894552D01*
X96638867Y-71828231D01*
X96650500Y-71769748D01*
X96650500Y-70930252D01*
X96638867Y-70871769D01*
X96594552Y-70805448D01*
X96586442Y-70800029D01*
X96581417Y-70795004D01*
X96553640Y-70740487D01*
X96563211Y-70680055D01*
X96581417Y-70654996D01*
X96586442Y-70649971D01*
X96594552Y-70644552D01*
X96638867Y-70578231D01*
X96650500Y-70519748D01*
X96650500Y-69680252D01*
X96638867Y-69621769D01*
X96594552Y-69555448D01*
X96528231Y-69511133D01*
X96518668Y-69509231D01*
X96518666Y-69509230D01*
X96495995Y-69504721D01*
X96469748Y-69499500D01*
X95569059Y-69499500D01*
X95510868Y-69480593D01*
X95474904Y-69431093D01*
X95474904Y-69369907D01*
X95477772Y-69362783D01*
X95478634Y-69360081D01*
X95481710Y-69353733D01*
X95485875Y-69328982D01*
X95504862Y-69216124D01*
X95504862Y-69216120D01*
X95505496Y-69212354D01*
X95505647Y-69200000D01*
X95485323Y-69058082D01*
X95439174Y-68956582D01*
X95428905Y-68933996D01*
X95428904Y-68933995D01*
X95425984Y-68927572D01*
X95332400Y-68818963D01*
X95212095Y-68740985D01*
X95074739Y-68699907D01*
X94991497Y-68699398D01*
X94938427Y-68699074D01*
X94938426Y-68699074D01*
X94931376Y-68699031D01*
X94924599Y-68700968D01*
X94924598Y-68700968D01*
X94800309Y-68736490D01*
X94800307Y-68736491D01*
X94793529Y-68738428D01*
X94672280Y-68814930D01*
X94667613Y-68820214D01*
X94667611Y-68820216D01*
X94582044Y-68917103D01*
X94582042Y-68917105D01*
X94577377Y-68922388D01*
X94516447Y-69052163D01*
X94515362Y-69059132D01*
X94515361Y-69059135D01*
X94506540Y-69115793D01*
X94494391Y-69193823D01*
X94495306Y-69200820D01*
X94495306Y-69200821D01*
X94506020Y-69282754D01*
X94512980Y-69335979D01*
X94515821Y-69342435D01*
X94515821Y-69342436D01*
X94562883Y-69449391D01*
X94570720Y-69467203D01*
X94599777Y-69501770D01*
X94658431Y-69571549D01*
X94658434Y-69571551D01*
X94662970Y-69576948D01*
X94668841Y-69580856D01*
X94668842Y-69580857D01*
X94705358Y-69605164D01*
X94743321Y-69653148D01*
X94749500Y-69687575D01*
X94749500Y-70519748D01*
X94761133Y-70578231D01*
X94805448Y-70644552D01*
X94813558Y-70649971D01*
X94818583Y-70654996D01*
X94846360Y-70709513D01*
X94836789Y-70769945D01*
X94818583Y-70795004D01*
X94813558Y-70800029D01*
X94805448Y-70805448D01*
X94761133Y-70871769D01*
X94749500Y-70930252D01*
X94749500Y-71709232D01*
X94730593Y-71767423D01*
X94681093Y-71803387D01*
X94622134Y-71804081D01*
X94581500Y-71791929D01*
X94574739Y-71789907D01*
X94491497Y-71789398D01*
X94438427Y-71789074D01*
X94438426Y-71789074D01*
X94431376Y-71789031D01*
X94424599Y-71790968D01*
X94424598Y-71790968D01*
X94300309Y-71826490D01*
X94300307Y-71826491D01*
X94293529Y-71828428D01*
X94172280Y-71904930D01*
X94167613Y-71910214D01*
X94167611Y-71910216D01*
X94138965Y-71942652D01*
X94096720Y-71990487D01*
X94096225Y-71991047D01*
X94043533Y-72022147D01*
X93982625Y-72016337D01*
X93936764Y-71975834D01*
X93924021Y-71939548D01*
X93915238Y-71878220D01*
X93914238Y-71871236D01*
X93879371Y-71794549D01*
X93857820Y-71747150D01*
X93857819Y-71747149D01*
X93854899Y-71740726D01*
X93776163Y-71649349D01*
X93765920Y-71637461D01*
X93765919Y-71637460D01*
X93761315Y-71632117D01*
X93641010Y-71554139D01*
X93503654Y-71513061D01*
X93468627Y-71512847D01*
X93410553Y-71493585D01*
X93386917Y-71468851D01*
X93377893Y-71455345D01*
X93344552Y-71405448D01*
X93278231Y-71361133D01*
X93268667Y-71359231D01*
X93261614Y-71356309D01*
X93215088Y-71316572D01*
X93200500Y-71264845D01*
X93200500Y-71172214D01*
X93219407Y-71114023D01*
X93256616Y-71084690D01*
X93257495Y-71084515D01*
X93299465Y-71056471D01*
X93325622Y-71038994D01*
X93325623Y-71038993D01*
X93348624Y-71023624D01*
X93358574Y-71008733D01*
X93370885Y-70993731D01*
X94017270Y-70347346D01*
X94032272Y-70335035D01*
X94039053Y-70330504D01*
X94047163Y-70325085D01*
X94093694Y-70255448D01*
X94108054Y-70233956D01*
X94120296Y-70172412D01*
X94123410Y-70156758D01*
X94153307Y-70103374D01*
X94160125Y-70098208D01*
X94160092Y-70098168D01*
X94165518Y-70093663D01*
X94171530Y-70089972D01*
X94181738Y-70078695D01*
X94263007Y-69988909D01*
X94267739Y-69983681D01*
X94330249Y-69854660D01*
X94332636Y-69840476D01*
X94353401Y-69717051D01*
X94353401Y-69717047D01*
X94354035Y-69713281D01*
X94354186Y-69700927D01*
X94333862Y-69559009D01*
X94292031Y-69467005D01*
X94277444Y-69434923D01*
X94277443Y-69434922D01*
X94274523Y-69428499D01*
X94180939Y-69319890D01*
X94060634Y-69241912D01*
X93923278Y-69200834D01*
X93840036Y-69200325D01*
X93786966Y-69200001D01*
X93786965Y-69200001D01*
X93779915Y-69199958D01*
X93773138Y-69201895D01*
X93773137Y-69201895D01*
X93767980Y-69203369D01*
X93706834Y-69201180D01*
X93658652Y-69163468D01*
X93645706Y-69135801D01*
X93639893Y-69115793D01*
X93634983Y-69104447D01*
X93560941Y-68979247D01*
X93553371Y-68969488D01*
X93450512Y-68866629D01*
X93440753Y-68859059D01*
X93310190Y-68781845D01*
X93311545Y-68779554D01*
X93273954Y-68746421D01*
X93260599Y-68686711D01*
X93284891Y-68630555D01*
X93300970Y-68615923D01*
X93306284Y-68612062D01*
X93313220Y-68608528D01*
X93408528Y-68513220D01*
X93411064Y-68508243D01*
X96700001Y-68508243D01*
X96700001Y-69077585D01*
X96700611Y-69085329D01*
X96713616Y-69167449D01*
X96718373Y-69182091D01*
X96768823Y-69281106D01*
X96777865Y-69293551D01*
X96856449Y-69372135D01*
X96868894Y-69381177D01*
X96967912Y-69431629D01*
X96982547Y-69436384D01*
X97064673Y-69449391D01*
X97072412Y-69450000D01*
X97284320Y-69450000D01*
X97297005Y-69445878D01*
X97300000Y-69441757D01*
X97300000Y-68515680D01*
X97295878Y-68502995D01*
X97291757Y-68500000D01*
X96715681Y-68500000D01*
X96702996Y-68504122D01*
X96700001Y-68508243D01*
X93411064Y-68508243D01*
X93414374Y-68501748D01*
X93466183Y-68400066D01*
X93466183Y-68400065D01*
X93469719Y-68393126D01*
X93471543Y-68381613D01*
X93484891Y-68297334D01*
X93484891Y-68297332D01*
X93485500Y-68293488D01*
X93485500Y-67776512D01*
X93483975Y-67766885D01*
X93470938Y-67684569D01*
X93470938Y-67684568D01*
X93469719Y-67676874D01*
X93466184Y-67669936D01*
X93466182Y-67669930D01*
X93453196Y-67644444D01*
X93443625Y-67584012D01*
X93471403Y-67529496D01*
X93525920Y-67501719D01*
X93541406Y-67500500D01*
X94811678Y-67500500D01*
X94869869Y-67519407D01*
X94881682Y-67529496D01*
X95287447Y-67935261D01*
X95293226Y-67941563D01*
X95318431Y-67971549D01*
X95318434Y-67971551D01*
X95322970Y-67976948D01*
X95368710Y-68007395D01*
X95373210Y-68010576D01*
X95411528Y-68039294D01*
X95411533Y-68039297D01*
X95417176Y-68043526D01*
X95423780Y-68046002D01*
X95429965Y-68049388D01*
X95429828Y-68049638D01*
X95429954Y-68049702D01*
X95430076Y-68049446D01*
X95436445Y-68052484D01*
X95442313Y-68056390D01*
X95449041Y-68058492D01*
X95494749Y-68072772D01*
X95499977Y-68074568D01*
X95544812Y-68091376D01*
X95544818Y-68091377D01*
X95551419Y-68093852D01*
X95558450Y-68094375D01*
X95565341Y-68095890D01*
X95565281Y-68096164D01*
X95565419Y-68096190D01*
X95565464Y-68095912D01*
X95572425Y-68097039D01*
X95579157Y-68099142D01*
X95634071Y-68100149D01*
X95639584Y-68100404D01*
X95694391Y-68104476D01*
X95701292Y-68103003D01*
X95708326Y-68102523D01*
X95708345Y-68102806D01*
X95708483Y-68102793D01*
X95708448Y-68102512D01*
X95715446Y-68101640D01*
X95722499Y-68101770D01*
X95775521Y-68087314D01*
X95780876Y-68086014D01*
X95834599Y-68074546D01*
X95840808Y-68071195D01*
X95847424Y-68068761D01*
X95847522Y-68069028D01*
X95847650Y-68068977D01*
X95847537Y-68068717D01*
X95854014Y-68065914D01*
X95860817Y-68064060D01*
X95907656Y-68035301D01*
X95912405Y-68032565D01*
X95960771Y-68006468D01*
X95965791Y-68001508D01*
X95971458Y-67997315D01*
X95971628Y-67997544D01*
X95971734Y-67997461D01*
X95971552Y-67997241D01*
X95976977Y-67992737D01*
X95982991Y-67989045D01*
X95996540Y-67974077D01*
X96019858Y-67948315D01*
X96023681Y-67944322D01*
X96057743Y-67910673D01*
X96062763Y-67905714D01*
X96066188Y-67899548D01*
X96070454Y-67893928D01*
X96070679Y-67894099D01*
X96070757Y-67893989D01*
X96070522Y-67893831D01*
X96074465Y-67887986D01*
X96079200Y-67882754D01*
X96103147Y-67833326D01*
X96105695Y-67828422D01*
X96128951Y-67786554D01*
X96128951Y-67786553D01*
X96132378Y-67780384D01*
X96133935Y-67773500D01*
X96136450Y-67766915D01*
X96136715Y-67767016D01*
X96136761Y-67766885D01*
X96136490Y-67766798D01*
X96138634Y-67760082D01*
X96141710Y-67753733D01*
X96145445Y-67731538D01*
X96150823Y-67699571D01*
X96151892Y-67694149D01*
X96162463Y-67647431D01*
X96162463Y-67647427D01*
X96164019Y-67640552D01*
X96163582Y-67633514D01*
X96164148Y-67626484D01*
X96164429Y-67626507D01*
X96164772Y-67619954D01*
X96164520Y-67619931D01*
X96164862Y-67616126D01*
X96165496Y-67612354D01*
X96165647Y-67600000D01*
X96165104Y-67596207D01*
X96158899Y-67552879D01*
X96158089Y-67544976D01*
X96155578Y-67504499D01*
X96155577Y-67504496D01*
X96155141Y-67497462D01*
X96152748Y-67490833D01*
X96152747Y-67490829D01*
X96151658Y-67487813D01*
X96146777Y-67468236D01*
X96146323Y-67465064D01*
X96146323Y-67465063D01*
X96145323Y-67458082D01*
X96142404Y-67451663D01*
X96142403Y-67451658D01*
X96125619Y-67414743D01*
X96122623Y-67407385D01*
X96116257Y-67389752D01*
X96106460Y-67362613D01*
X96100408Y-67354328D01*
X96090232Y-67336914D01*
X96085984Y-67327572D01*
X96067783Y-67306449D01*
X96054907Y-67291505D01*
X96049967Y-67285284D01*
X96046905Y-67281093D01*
X96041478Y-67273664D01*
X96030014Y-67262200D01*
X96025019Y-67256819D01*
X95997005Y-67224307D01*
X95997004Y-67224306D01*
X95992400Y-67218963D01*
X95985189Y-67214289D01*
X95969032Y-67201218D01*
X95472318Y-66704504D01*
X95444541Y-66649987D01*
X95454112Y-66589555D01*
X95497377Y-66546290D01*
X95542322Y-66535500D01*
X95610023Y-66535500D01*
X95668214Y-66554407D01*
X95680027Y-66564496D01*
X95739596Y-66624065D01*
X95747444Y-66627725D01*
X95747446Y-66627726D01*
X95839958Y-66670865D01*
X95846827Y-66674068D01*
X95895684Y-66680500D01*
X96244316Y-66680500D01*
X96293173Y-66674068D01*
X96300042Y-66670865D01*
X96392554Y-66627726D01*
X96392556Y-66627725D01*
X96400404Y-66624065D01*
X96484065Y-66540404D01*
X96490277Y-66527081D01*
X96532005Y-66482336D01*
X96592067Y-66470662D01*
X96647519Y-66496521D01*
G37*
%TD.AperFunction*%
%TA.AperFunction,Conductor*%
G36*
X93125986Y-60218907D02*
G01*
X93161950Y-60268407D01*
X93161950Y-60329593D01*
X93125986Y-60379093D01*
X93095415Y-60394069D01*
X93005795Y-60420106D01*
X92994447Y-60425017D01*
X92869247Y-60499059D01*
X92859488Y-60506629D01*
X92756629Y-60609488D01*
X92749059Y-60619247D01*
X92675017Y-60744447D01*
X92670106Y-60755795D01*
X92629201Y-60896592D01*
X92627392Y-60906494D01*
X92625153Y-60934948D01*
X92625000Y-60938836D01*
X92625000Y-61009320D01*
X92629122Y-61022005D01*
X92633243Y-61025000D01*
X93601000Y-61025000D01*
X93659191Y-61043907D01*
X93695155Y-61093407D01*
X93700000Y-61124000D01*
X93700000Y-61326000D01*
X93681093Y-61384191D01*
X93631593Y-61420155D01*
X93601000Y-61425000D01*
X92640680Y-61425000D01*
X92627995Y-61429122D01*
X92625000Y-61433243D01*
X92625000Y-61511164D01*
X92625153Y-61515052D01*
X92627392Y-61543506D01*
X92629201Y-61553408D01*
X92670106Y-61694205D01*
X92675017Y-61705553D01*
X92749059Y-61830753D01*
X92756629Y-61840512D01*
X92859488Y-61943371D01*
X92869247Y-61950941D01*
X92999810Y-62028155D01*
X92998455Y-62030446D01*
X93036046Y-62063579D01*
X93049401Y-62123289D01*
X93025109Y-62179445D01*
X93009030Y-62194077D01*
X93003716Y-62197938D01*
X92996780Y-62201472D01*
X92901472Y-62296780D01*
X92897937Y-62303717D01*
X92897936Y-62303719D01*
X92843817Y-62409934D01*
X92840281Y-62416874D01*
X92824500Y-62516512D01*
X92824500Y-63033488D01*
X92840281Y-63133126D01*
X92843817Y-63140065D01*
X92843817Y-63140066D01*
X92894751Y-63240029D01*
X92901472Y-63253220D01*
X92996780Y-63348528D01*
X93003717Y-63352063D01*
X93003719Y-63352064D01*
X93109934Y-63406183D01*
X93116874Y-63409719D01*
X93124568Y-63410938D01*
X93124569Y-63410938D01*
X93212666Y-63424891D01*
X93212668Y-63424891D01*
X93216512Y-63425500D01*
X93783488Y-63425500D01*
X93787332Y-63424891D01*
X93787334Y-63424891D01*
X93875431Y-63410938D01*
X93875432Y-63410938D01*
X93883126Y-63409719D01*
X93890066Y-63406183D01*
X93996281Y-63352064D01*
X93996283Y-63352063D01*
X94003220Y-63348528D01*
X94098528Y-63253220D01*
X94123324Y-63204555D01*
X94166589Y-63161290D01*
X94211534Y-63150500D01*
X94327477Y-63150500D01*
X94385668Y-63169407D01*
X94397481Y-63179496D01*
X94798481Y-63580496D01*
X94826258Y-63635013D01*
X94816687Y-63695445D01*
X94773422Y-63738710D01*
X94728477Y-63749500D01*
X92930252Y-63749500D01*
X92904005Y-63754721D01*
X92881334Y-63759230D01*
X92881332Y-63759231D01*
X92871769Y-63761133D01*
X92805448Y-63805448D01*
X92761133Y-63871769D01*
X92749500Y-63930252D01*
X92749500Y-64186302D01*
X92742088Y-64218280D01*
X92743389Y-64218669D01*
X92729708Y-64264415D01*
X92728267Y-64268851D01*
X92712445Y-64313906D01*
X92712000Y-64319044D01*
X92712000Y-64321182D01*
X92711926Y-64322901D01*
X92711811Y-64324262D01*
X92709956Y-64330464D01*
X92710277Y-64338635D01*
X92711924Y-64380554D01*
X92712000Y-64384441D01*
X92712000Y-64528025D01*
X92695316Y-64583026D01*
X92686133Y-64596769D01*
X92674500Y-64655252D01*
X92674500Y-64821144D01*
X92655593Y-64879335D01*
X92633689Y-64901238D01*
X92631448Y-64902866D01*
X92552865Y-64981449D01*
X92543823Y-64993894D01*
X92493371Y-65092912D01*
X92488616Y-65107547D01*
X92475609Y-65189673D01*
X92475000Y-65197412D01*
X92475000Y-65209320D01*
X92479122Y-65222005D01*
X92483243Y-65225000D01*
X92850175Y-65225000D01*
X92853580Y-65225167D01*
X92855252Y-65225500D01*
X93138500Y-65225500D01*
X93196691Y-65244407D01*
X93232655Y-65293907D01*
X93237500Y-65324500D01*
X93237500Y-65475500D01*
X93218593Y-65533691D01*
X93169093Y-65569655D01*
X93138500Y-65574500D01*
X92855252Y-65574500D01*
X92853580Y-65574833D01*
X92850175Y-65575000D01*
X92490681Y-65575000D01*
X92477996Y-65579122D01*
X92475001Y-65583243D01*
X92475001Y-65602585D01*
X92475611Y-65610329D01*
X92488616Y-65692449D01*
X92493373Y-65707091D01*
X92543823Y-65806106D01*
X92552865Y-65818551D01*
X92631448Y-65897134D01*
X92633689Y-65898762D01*
X92635318Y-65901004D01*
X92636955Y-65902641D01*
X92636696Y-65902900D01*
X92669654Y-65948262D01*
X92674500Y-65978856D01*
X92674500Y-66144748D01*
X92686133Y-66203231D01*
X92691550Y-66211339D01*
X92691551Y-66211340D01*
X92695316Y-66216974D01*
X92712000Y-66271975D01*
X92712000Y-66536695D01*
X92693093Y-66594886D01*
X92677695Y-66611513D01*
X92672280Y-66614930D01*
X92667609Y-66620219D01*
X92582044Y-66717103D01*
X92582042Y-66717105D01*
X92577377Y-66722388D01*
X92516447Y-66852163D01*
X92515362Y-66859134D01*
X92515361Y-66859136D01*
X92500336Y-66955638D01*
X92484314Y-66992401D01*
X92485406Y-66993001D01*
X92481463Y-67000173D01*
X92476397Y-67006600D01*
X92473863Y-67013815D01*
X92472574Y-67016298D01*
X92468128Y-67022519D01*
X92465783Y-67030360D01*
X92465782Y-67030362D01*
X92453425Y-67071682D01*
X92451984Y-67076118D01*
X92438655Y-67114075D01*
X92434977Y-67124548D01*
X92434500Y-67130055D01*
X92434500Y-67132193D01*
X92434448Y-67133399D01*
X92434242Y-67135825D01*
X92432310Y-67142287D01*
X92432631Y-67150459D01*
X92432631Y-67150460D01*
X92434424Y-67196090D01*
X92434500Y-67199977D01*
X92434500Y-67335728D01*
X92415593Y-67393919D01*
X92380444Y-67423938D01*
X92343944Y-67442535D01*
X92283512Y-67452106D01*
X92228995Y-67424328D01*
X92201219Y-67369811D01*
X92200000Y-67354325D01*
X92200000Y-60533954D01*
X92202518Y-60511768D01*
X92202643Y-60511223D01*
X92205142Y-60500357D01*
X92202751Y-60489790D01*
X92203897Y-60475384D01*
X92212230Y-60422777D01*
X92221800Y-60393325D01*
X92250175Y-60337636D01*
X92268380Y-60312578D01*
X92274365Y-60306593D01*
X92312580Y-60268379D01*
X92337633Y-60250177D01*
X92393325Y-60221801D01*
X92422780Y-60212230D01*
X92435035Y-60210289D01*
X92475579Y-60203868D01*
X92489414Y-60202791D01*
X92499642Y-60205143D01*
X92510514Y-60202683D01*
X92510515Y-60202683D01*
X92511583Y-60202441D01*
X92533432Y-60200000D01*
X93067795Y-60200000D01*
X93125986Y-60218907D01*
G37*
%TD.AperFunction*%
%TA.AperFunction,Conductor*%
G36*
X94501685Y-64843907D02*
G01*
X94537649Y-64893407D01*
X94541275Y-64908512D01*
X94548281Y-64952743D01*
X94549500Y-64968231D01*
X94549500Y-65044748D01*
X94550448Y-65049512D01*
X94561133Y-65103231D01*
X94558167Y-65103821D01*
X94561730Y-65149114D01*
X94529759Y-65201282D01*
X94473231Y-65224695D01*
X94465466Y-65225000D01*
X94215680Y-65225000D01*
X94202995Y-65229122D01*
X94200000Y-65233243D01*
X94200000Y-65559320D01*
X94204122Y-65572005D01*
X94208243Y-65575000D01*
X94465466Y-65575000D01*
X94523657Y-65593907D01*
X94559621Y-65643407D01*
X94559621Y-65696468D01*
X94561133Y-65696769D01*
X94549500Y-65755252D01*
X94549500Y-65876000D01*
X94530593Y-65934191D01*
X94481093Y-65970155D01*
X94450500Y-65975000D01*
X93549500Y-65975000D01*
X93491309Y-65956093D01*
X93455345Y-65906593D01*
X93450500Y-65876000D01*
X93450500Y-65755252D01*
X93438867Y-65696769D01*
X93441833Y-65696179D01*
X93438270Y-65650886D01*
X93470241Y-65598718D01*
X93526769Y-65575305D01*
X93534534Y-65575000D01*
X93784320Y-65575000D01*
X93797005Y-65570878D01*
X93800000Y-65566757D01*
X93800000Y-65240680D01*
X93795878Y-65227995D01*
X93791757Y-65225000D01*
X93534534Y-65225000D01*
X93476343Y-65206093D01*
X93440379Y-65156593D01*
X93440379Y-65103532D01*
X93438867Y-65103231D01*
X93440379Y-65095630D01*
X93450500Y-65044748D01*
X93450500Y-64924000D01*
X93469407Y-64865809D01*
X93518907Y-64829845D01*
X93549500Y-64825000D01*
X94443494Y-64825000D01*
X94501685Y-64843907D01*
G37*
%TD.AperFunction*%
%TA.AperFunction,Conductor*%
G36*
X103541003Y-59811500D02*
G01*
X103586366Y-59852559D01*
X103599500Y-59901835D01*
X103599500Y-60069748D01*
X103611133Y-60128231D01*
X103655448Y-60194552D01*
X103721769Y-60238867D01*
X103731332Y-60240769D01*
X103731334Y-60240770D01*
X103754005Y-60245279D01*
X103780252Y-60250500D01*
X105319748Y-60250500D01*
X105345995Y-60245279D01*
X105368666Y-60240770D01*
X105368668Y-60240769D01*
X105378231Y-60238867D01*
X105444552Y-60194552D01*
X105488867Y-60128231D01*
X105500500Y-60069748D01*
X105500500Y-59939202D01*
X105519407Y-59881011D01*
X105568907Y-59845047D01*
X105630093Y-59845047D01*
X105663794Y-59863921D01*
X105792473Y-59973824D01*
X105795779Y-59975850D01*
X105795786Y-59975855D01*
X105950208Y-60070485D01*
X105950212Y-60070487D01*
X105953523Y-60072516D01*
X105957108Y-60074001D01*
X105957114Y-60074004D01*
X106074501Y-60122627D01*
X106128029Y-60144799D01*
X106131804Y-60145705D01*
X106131806Y-60145706D01*
X106301482Y-60186442D01*
X106311695Y-60188894D01*
X106315560Y-60189198D01*
X106315565Y-60189199D01*
X106482191Y-60202313D01*
X106488246Y-60203247D01*
X106488247Y-60203237D01*
X106493815Y-60203878D01*
X106499281Y-60205145D01*
X106499997Y-60205146D01*
X106505445Y-60203903D01*
X106505447Y-60203903D01*
X106511690Y-60202479D01*
X106533707Y-60200000D01*
X107466040Y-60200000D01*
X107488227Y-60202518D01*
X107499642Y-60205143D01*
X107510209Y-60202752D01*
X107524615Y-60203898D01*
X107570292Y-60211133D01*
X107577218Y-60212230D01*
X107606674Y-60221801D01*
X107662362Y-60250175D01*
X107687422Y-60268381D01*
X107731618Y-60312577D01*
X107749824Y-60337637D01*
X107778198Y-60393325D01*
X107787769Y-60422782D01*
X107796131Y-60475577D01*
X107797208Y-60489413D01*
X107794856Y-60499641D01*
X107797316Y-60510513D01*
X107797559Y-60511585D01*
X107800000Y-60533435D01*
X107800000Y-62190500D01*
X107781093Y-62248691D01*
X107731593Y-62284655D01*
X107701000Y-62289500D01*
X106859002Y-62289500D01*
X106832755Y-62294721D01*
X106810084Y-62299230D01*
X106810082Y-62299231D01*
X106800519Y-62301133D01*
X106759619Y-62328462D01*
X106700734Y-62345070D01*
X106649868Y-62328025D01*
X106648626Y-62326919D01*
X106578519Y-62289799D01*
X106514755Y-62256037D01*
X106514752Y-62256036D01*
X106509481Y-62253245D01*
X106433129Y-62234067D01*
X106362568Y-62216343D01*
X106362565Y-62216343D01*
X106356778Y-62214889D01*
X106277214Y-62214473D01*
X106205300Y-62214096D01*
X106205298Y-62214096D01*
X106199334Y-62214065D01*
X106046238Y-62250820D01*
X105980684Y-62284655D01*
X105911635Y-62320293D01*
X105911633Y-62320295D01*
X105906329Y-62323032D01*
X105787684Y-62426533D01*
X105697151Y-62555348D01*
X105694984Y-62560906D01*
X105694983Y-62560908D01*
X105691738Y-62569231D01*
X105652985Y-62616579D01*
X105593802Y-62632106D01*
X105536796Y-62609881D01*
X105503741Y-62558393D01*
X105500500Y-62533270D01*
X105500500Y-61130252D01*
X105488867Y-61071769D01*
X105444552Y-61005448D01*
X105378231Y-60961133D01*
X105368668Y-60959231D01*
X105368666Y-60959230D01*
X105345995Y-60954721D01*
X105319748Y-60949500D01*
X103780252Y-60949500D01*
X103754005Y-60954721D01*
X103731334Y-60959230D01*
X103731332Y-60959231D01*
X103721769Y-60961133D01*
X103713660Y-60966551D01*
X103704654Y-60970282D01*
X103703668Y-60967902D01*
X103658568Y-60980621D01*
X103601165Y-60959442D01*
X103587459Y-60946320D01*
X103581011Y-60938836D01*
X103516231Y-60863656D01*
X103395926Y-60785678D01*
X103258570Y-60744600D01*
X103175328Y-60744091D01*
X103122258Y-60743767D01*
X103122257Y-60743767D01*
X103115207Y-60743724D01*
X103108430Y-60745661D01*
X103108429Y-60745661D01*
X102984140Y-60781183D01*
X102984138Y-60781184D01*
X102977360Y-60783121D01*
X102873777Y-60848476D01*
X102814476Y-60863537D01*
X102768815Y-60844691D01*
X102766900Y-60847646D01*
X102690904Y-60798388D01*
X102646595Y-60769668D01*
X102509239Y-60728590D01*
X102425997Y-60728081D01*
X102372927Y-60727757D01*
X102372926Y-60727757D01*
X102365876Y-60727714D01*
X102359099Y-60729651D01*
X102359098Y-60729651D01*
X102234809Y-60765173D01*
X102234807Y-60765174D01*
X102228029Y-60767111D01*
X102222067Y-60770873D01*
X102222064Y-60770874D01*
X102202328Y-60783327D01*
X102143025Y-60798388D01*
X102086195Y-60775715D01*
X102053546Y-60723969D01*
X102050500Y-60699600D01*
X102050500Y-60380252D01*
X102045279Y-60354005D01*
X102040770Y-60331334D01*
X102040769Y-60331332D01*
X102038867Y-60321769D01*
X101994552Y-60255448D01*
X101959183Y-60231815D01*
X101921304Y-60183765D01*
X101918902Y-60122627D01*
X101952895Y-60071753D01*
X102014185Y-60050500D01*
X102369748Y-60050500D01*
X102395995Y-60045279D01*
X102418666Y-60040770D01*
X102418668Y-60040769D01*
X102428231Y-60038867D01*
X102494552Y-59994552D01*
X102538867Y-59928231D01*
X102538942Y-59928281D01*
X102574494Y-59886656D01*
X102633989Y-59872373D01*
X102691886Y-59897127D01*
X102695917Y-59901923D01*
X102701788Y-59905831D01*
X102701789Y-59905832D01*
X102714090Y-59914020D01*
X102815260Y-59981365D01*
X102915867Y-60012796D01*
X102945372Y-60022014D01*
X102945373Y-60022014D01*
X102952104Y-60024117D01*
X103023775Y-60025431D01*
X103088392Y-60026616D01*
X103088394Y-60026616D01*
X103095446Y-60026745D01*
X103102249Y-60024890D01*
X103102251Y-60024890D01*
X103213528Y-59994552D01*
X103233764Y-59989035D01*
X103355938Y-59914020D01*
X103360673Y-59908789D01*
X103427102Y-59835399D01*
X103480170Y-59804945D01*
X103541003Y-59811500D01*
G37*
%TD.AperFunction*%
%TA.AperFunction,Conductor*%
G36*
X105259191Y-58218907D02*
G01*
X105295155Y-58268407D01*
X105300000Y-58299000D01*
X105300000Y-58350500D01*
X105281093Y-58408691D01*
X105231593Y-58444655D01*
X105201000Y-58449500D01*
X103780252Y-58449500D01*
X103754005Y-58454721D01*
X103731334Y-58459230D01*
X103731332Y-58459231D01*
X103721769Y-58461133D01*
X103655448Y-58505448D01*
X103611133Y-58571769D01*
X103599500Y-58630252D01*
X103599500Y-59149127D01*
X103580593Y-59207318D01*
X103531093Y-59243282D01*
X103469907Y-59243282D01*
X103425501Y-59213750D01*
X103369952Y-59149282D01*
X103369951Y-59149281D01*
X103365347Y-59143938D01*
X103245042Y-59065960D01*
X103107686Y-59024882D01*
X103024444Y-59024373D01*
X102971374Y-59024049D01*
X102971373Y-59024049D01*
X102964323Y-59024006D01*
X102957546Y-59025943D01*
X102957545Y-59025943D01*
X102833256Y-59061465D01*
X102833254Y-59061466D01*
X102826476Y-59063403D01*
X102705227Y-59139905D01*
X102704030Y-59138009D01*
X102657090Y-59157354D01*
X102597621Y-59142963D01*
X102557968Y-59096367D01*
X102550500Y-59058645D01*
X102550500Y-58630252D01*
X102538867Y-58571769D01*
X102494552Y-58505448D01*
X102428231Y-58461133D01*
X102418668Y-58459231D01*
X102418666Y-58459230D01*
X102395995Y-58454721D01*
X102369748Y-58449500D01*
X101130252Y-58449500D01*
X101104005Y-58454721D01*
X101081334Y-58459230D01*
X101081332Y-58459231D01*
X101071769Y-58461133D01*
X101005448Y-58505448D01*
X100961133Y-58571769D01*
X100949500Y-58630252D01*
X100949500Y-59869748D01*
X100952863Y-59886656D01*
X100959041Y-59917712D01*
X100961133Y-59928231D01*
X100968464Y-59939202D01*
X100972364Y-59945039D01*
X100988973Y-60003927D01*
X100967796Y-60061330D01*
X100916923Y-60095324D01*
X100855784Y-60092922D01*
X100820045Y-60070045D01*
X100250000Y-59500000D01*
X99149500Y-59500000D01*
X99091309Y-59481093D01*
X99055345Y-59431593D01*
X99050500Y-59401000D01*
X99050500Y-58630252D01*
X99038867Y-58571769D01*
X98994552Y-58505448D01*
X98928231Y-58461133D01*
X98918668Y-58459231D01*
X98918666Y-58459230D01*
X98895995Y-58454721D01*
X98869748Y-58449500D01*
X97630252Y-58449500D01*
X97604005Y-58454721D01*
X97581334Y-58459230D01*
X97581332Y-58459231D01*
X97571769Y-58461133D01*
X97505448Y-58505448D01*
X97461133Y-58571769D01*
X97449500Y-58630252D01*
X97449500Y-59869748D01*
X97452863Y-59886656D01*
X97459041Y-59917712D01*
X97461133Y-59928231D01*
X97466549Y-59936336D01*
X97469678Y-59943890D01*
X97474480Y-60004887D01*
X97448219Y-60051781D01*
X97250000Y-60250000D01*
X97250000Y-62501001D01*
X97231093Y-62559192D01*
X97181593Y-62595156D01*
X97151000Y-62600001D01*
X97047414Y-62600001D01*
X97039669Y-62600611D01*
X97007394Y-62605722D01*
X96972595Y-62605039D01*
X96950333Y-62600611D01*
X96944748Y-62599500D01*
X96499500Y-62599500D01*
X96441309Y-62580593D01*
X96405345Y-62531093D01*
X96400500Y-62500500D01*
X96400500Y-61180252D01*
X96388867Y-61121769D01*
X96344552Y-61055448D01*
X96278231Y-61011133D01*
X96268668Y-61009231D01*
X96268666Y-61009230D01*
X96245995Y-61004721D01*
X96219748Y-60999500D01*
X94680252Y-60999500D01*
X94654005Y-61004721D01*
X94631334Y-61009230D01*
X94631332Y-61009231D01*
X94621769Y-61011133D01*
X94555448Y-61055448D01*
X94550029Y-61063558D01*
X94544004Y-61069583D01*
X94489487Y-61097360D01*
X94429055Y-61087789D01*
X94385790Y-61044524D01*
X94375000Y-60999579D01*
X94375000Y-60938836D01*
X94374847Y-60934948D01*
X94372608Y-60906494D01*
X94370799Y-60896592D01*
X94329894Y-60755795D01*
X94324983Y-60744447D01*
X94250941Y-60619247D01*
X94243371Y-60609488D01*
X94140512Y-60506629D01*
X94130753Y-60499059D01*
X94005553Y-60425017D01*
X93994205Y-60420106D01*
X93853408Y-60379201D01*
X93843506Y-60377392D01*
X93815052Y-60375153D01*
X93811164Y-60375000D01*
X93749554Y-60375000D01*
X93691363Y-60356093D01*
X93655399Y-60306593D01*
X93655399Y-60245407D01*
X93691363Y-60195907D01*
X93726444Y-60179735D01*
X93743351Y-60175676D01*
X93871967Y-60144799D01*
X94046473Y-60072516D01*
X94083947Y-60049552D01*
X94204212Y-59975855D01*
X94204216Y-59975852D01*
X94207524Y-59973825D01*
X94297166Y-59897264D01*
X94336205Y-59863922D01*
X94392733Y-59840507D01*
X94452228Y-59854791D01*
X94491964Y-59901317D01*
X94499500Y-59939202D01*
X94499500Y-60069748D01*
X94511133Y-60128231D01*
X94555448Y-60194552D01*
X94621769Y-60238867D01*
X94631332Y-60240769D01*
X94631334Y-60240770D01*
X94654005Y-60245279D01*
X94680252Y-60250500D01*
X96219748Y-60250500D01*
X96245995Y-60245279D01*
X96268666Y-60240770D01*
X96268668Y-60240769D01*
X96278231Y-60238867D01*
X96344552Y-60194552D01*
X96388867Y-60128231D01*
X96400500Y-60069748D01*
X96400500Y-58630252D01*
X96388867Y-58571769D01*
X96344552Y-58505448D01*
X96278231Y-58461133D01*
X96268668Y-58459231D01*
X96268666Y-58459230D01*
X96245995Y-58454721D01*
X96219748Y-58449500D01*
X94799000Y-58449500D01*
X94740809Y-58430593D01*
X94704845Y-58381093D01*
X94700000Y-58350500D01*
X94700000Y-58299000D01*
X94718907Y-58240809D01*
X94768407Y-58204845D01*
X94799000Y-58200000D01*
X105201000Y-58200000D01*
X105259191Y-58218907D01*
G37*
%TD.AperFunction*%
%TD*%
M02*
