%TF.GenerationSoftware,KiCad,Pcbnew,5.99.0-unknown-a208dac8d8~131~ubuntu20.04.1*%
%TF.CreationDate,2021-09-06T21:34:52-05:00*%
%TF.ProjectId,minimum,6d696e69-6d75-46d2-9e6b-696361645f70,rev?*%
%TF.SameCoordinates,Original*%
%TF.FileFunction,Copper,L2,Inr*%
%TF.FilePolarity,Positive*%
%FSLAX46Y46*%
G04 Gerber Fmt 4.6, Leading zero omitted, Abs format (unit mm)*
G04 Created by KiCad (PCBNEW 5.99.0-unknown-a208dac8d8~131~ubuntu20.04.1) date 2021-09-06 21:34:52*
%MOMM*%
%LPD*%
G01*
G04 APERTURE LIST*
%TA.AperFunction,ComponentPad*%
%ADD10C,0.600000*%
%TD*%
%TA.AperFunction,ViaPad*%
%ADD11C,0.600000*%
%TD*%
%TA.AperFunction,Conductor*%
%ADD12C,0.150000*%
%TD*%
G04 APERTURE END LIST*
D10*
%TO.N,GND*%
%TO.C,U1*%
X98725000Y-72525000D03*
X100000000Y-72525000D03*
X101275000Y-72525000D03*
X98725000Y-71250000D03*
X100000000Y-69975000D03*
X101275000Y-71250000D03*
X100000000Y-71250000D03*
X101275000Y-69975000D03*
X98725000Y-69975000D03*
%TD*%
D11*
%TO.N,+3V3*%
X105870000Y-75040000D03*
X94500000Y-72290000D03*
X95000000Y-69200000D03*
X107000000Y-69000000D03*
X106400000Y-78650000D03*
X105509368Y-71640816D03*
X103032947Y-59524975D03*
X93540000Y-76810000D03*
X96861995Y-78310888D03*
X95660000Y-67600000D03*
X93000000Y-67000000D03*
X104740000Y-68109011D03*
X100743233Y-65957329D03*
%TO.N,GND*%
X103980000Y-60600000D03*
X94224578Y-69052584D03*
X104310000Y-77090000D03*
X100700498Y-59280000D03*
X96140000Y-76890000D03*
X97255295Y-62495112D03*
X106200000Y-72400000D03*
X106200000Y-68600000D03*
X96850500Y-68019863D03*
X92607820Y-65386478D03*
%TO.N,/QSPI_SD1*%
X103183831Y-61244693D03*
X103699636Y-66925692D03*
%TO.N,/QSPI_SS*%
X102434500Y-61228683D03*
X103361820Y-67829542D03*
%TO.N,/USB_D+*%
X99625000Y-62504836D03*
%TO.N,/USB_D-*%
X100375000Y-62504836D03*
%TO.N,/SCL*%
X103010011Y-75604095D03*
%TO.N,/SDA*%
X104228806Y-76299011D03*
%TO.N,Net-(D1-Pad3)*%
X93428915Y-72013154D03*
%TO.N,Net-(D1-Pad4)*%
X93848539Y-69700927D03*
%TO.N,Net-(D1-Pad1)*%
X93240000Y-73550000D03*
%TD*%
D12*
%TO.N,/QSPI_SD1*%
X103699636Y-66925692D02*
X103097095Y-66323151D01*
X103097095Y-66323151D02*
X103097095Y-61246445D01*
X103098847Y-61244693D02*
X103183831Y-61244693D01*
X103097095Y-61246445D02*
X103098847Y-61244693D01*
%TO.N,/QSPI_SS*%
X103361820Y-67829542D02*
X102599356Y-67067078D01*
X102599356Y-61393539D02*
X102434500Y-61228683D01*
X102599356Y-67067078D02*
X102599356Y-61393539D01*
%TD*%
%TA.AperFunction,Conductor*%
%TO.N,+3V3*%
G36*
X105212811Y-59018907D02*
G01*
X105248775Y-59068407D01*
X105253314Y-59091230D01*
X105261571Y-59196147D01*
X105307502Y-59387465D01*
X105308989Y-59391054D01*
X105377984Y-59557625D01*
X105382796Y-59569243D01*
X105384829Y-59572560D01*
X105458580Y-59692912D01*
X105485599Y-59737004D01*
X105613381Y-59886617D01*
X105762993Y-60014399D01*
X105766306Y-60016429D01*
X105766307Y-60016430D01*
X105927439Y-60115173D01*
X105927443Y-60115175D01*
X105930754Y-60117204D01*
X105934339Y-60118689D01*
X105934345Y-60118692D01*
X106108941Y-60191012D01*
X106112531Y-60192499D01*
X106116305Y-60193405D01*
X106116308Y-60193406D01*
X106195958Y-60212528D01*
X106303849Y-60238430D01*
X106307714Y-60238734D01*
X106307719Y-60238735D01*
X106397592Y-60245808D01*
X106485596Y-60252735D01*
X106487504Y-60252999D01*
X106488951Y-60252999D01*
X106491403Y-60253192D01*
X106499996Y-60254901D01*
X106509558Y-60252999D01*
X106515073Y-60251902D01*
X106534387Y-60250000D01*
X107465625Y-60250000D01*
X107484939Y-60251902D01*
X107490437Y-60252996D01*
X107490439Y-60252996D01*
X107500001Y-60254898D01*
X107509567Y-60252995D01*
X107511118Y-60252995D01*
X107526606Y-60254214D01*
X107561771Y-60259784D01*
X107591221Y-60269352D01*
X107632976Y-60290627D01*
X107658032Y-60308831D01*
X107691168Y-60341967D01*
X107709372Y-60367023D01*
X107730647Y-60408778D01*
X107740215Y-60438228D01*
X107744095Y-60462722D01*
X107745785Y-60473390D01*
X107747004Y-60488881D01*
X107747004Y-60490432D01*
X107745101Y-60499998D01*
X107747003Y-60509560D01*
X107747003Y-60509562D01*
X107748098Y-60515065D01*
X107750000Y-60534379D01*
X107750000Y-76696797D01*
X107731093Y-76754988D01*
X107681593Y-76790952D01*
X107675306Y-76792767D01*
X107592735Y-76813677D01*
X107588997Y-76815317D01*
X107588993Y-76815318D01*
X107491170Y-76858227D01*
X107403027Y-76896890D01*
X107229603Y-77010194D01*
X107077193Y-77150497D01*
X107074676Y-77153731D01*
X106974357Y-77282621D01*
X106949955Y-77313972D01*
X106948006Y-77317574D01*
X106853308Y-77492559D01*
X106853305Y-77492566D01*
X106851360Y-77496160D01*
X106850032Y-77500029D01*
X106850030Y-77500033D01*
X106825715Y-77570861D01*
X106784097Y-77692091D01*
X106750000Y-77896422D01*
X106750000Y-78103578D01*
X106784097Y-78307909D01*
X106851360Y-78503840D01*
X106853305Y-78507434D01*
X106853308Y-78507441D01*
X106907059Y-78606763D01*
X106949955Y-78686028D01*
X107077193Y-78849503D01*
X107229603Y-78989806D01*
X107403027Y-79103110D01*
X107491170Y-79141773D01*
X107588993Y-79184682D01*
X107588997Y-79184683D01*
X107592735Y-79186323D01*
X107600124Y-79188194D01*
X107651894Y-79220805D01*
X107674609Y-79277618D01*
X107659592Y-79336932D01*
X107645830Y-79354170D01*
X107278996Y-79721004D01*
X107224479Y-79748781D01*
X107208992Y-79750000D01*
X92349000Y-79750000D01*
X92290809Y-79731093D01*
X92254845Y-79681593D01*
X92250000Y-79651000D01*
X92250000Y-79303203D01*
X92268907Y-79245012D01*
X92318407Y-79209048D01*
X92324697Y-79207232D01*
X92399877Y-79188194D01*
X92407265Y-79186323D01*
X92411003Y-79184683D01*
X92411007Y-79184682D01*
X92508830Y-79141773D01*
X92596973Y-79103110D01*
X92770397Y-78989806D01*
X92922807Y-78849503D01*
X93050045Y-78686028D01*
X93092941Y-78606763D01*
X93146692Y-78507441D01*
X93146695Y-78507434D01*
X93148640Y-78503840D01*
X93215903Y-78307909D01*
X93250000Y-78103578D01*
X93250000Y-77896422D01*
X93215903Y-77692091D01*
X93174285Y-77570861D01*
X93149970Y-77500033D01*
X93149968Y-77500029D01*
X93148640Y-77496160D01*
X93146695Y-77492566D01*
X93146692Y-77492559D01*
X93051994Y-77317574D01*
X93050045Y-77313972D01*
X93025644Y-77282621D01*
X92925324Y-77153731D01*
X92922807Y-77150497D01*
X92770397Y-77010194D01*
X92596973Y-76896890D01*
X92581265Y-76890000D01*
X95584750Y-76890000D01*
X95603670Y-77033709D01*
X95659139Y-77167625D01*
X95747379Y-77282621D01*
X95862375Y-77370861D01*
X95996291Y-77426330D01*
X96002720Y-77427176D01*
X96002722Y-77427177D01*
X96133567Y-77444403D01*
X96140000Y-77445250D01*
X96146433Y-77444403D01*
X96277278Y-77427177D01*
X96277280Y-77427176D01*
X96283709Y-77426330D01*
X96417625Y-77370861D01*
X96532621Y-77282621D01*
X96620861Y-77167625D01*
X96676330Y-77033709D01*
X96695250Y-76890000D01*
X96684352Y-76807222D01*
X96677177Y-76752722D01*
X96677176Y-76752720D01*
X96676330Y-76746291D01*
X96620861Y-76612375D01*
X96532621Y-76497379D01*
X96417625Y-76409139D01*
X96283709Y-76353670D01*
X96277280Y-76352824D01*
X96277278Y-76352823D01*
X96146433Y-76335597D01*
X96140000Y-76334750D01*
X96133567Y-76335597D01*
X96002722Y-76352823D01*
X96002720Y-76352824D01*
X95996291Y-76353670D01*
X95862375Y-76409139D01*
X95747379Y-76497379D01*
X95659139Y-76612375D01*
X95603670Y-76746291D01*
X95602824Y-76752720D01*
X95602823Y-76752722D01*
X95595648Y-76807222D01*
X95584750Y-76890000D01*
X92581265Y-76890000D01*
X92508830Y-76858227D01*
X92411007Y-76815318D01*
X92411003Y-76815317D01*
X92407265Y-76813677D01*
X92324697Y-76792768D01*
X92272928Y-76760154D01*
X92250216Y-76703340D01*
X92250000Y-76696797D01*
X92250000Y-76299011D01*
X103673556Y-76299011D01*
X103692476Y-76442720D01*
X103747945Y-76576636D01*
X103751895Y-76581783D01*
X103751898Y-76581789D01*
X103832741Y-76687145D01*
X103853165Y-76744820D01*
X103834973Y-76800819D01*
X103836335Y-76801605D01*
X103833090Y-76807226D01*
X103829139Y-76812375D01*
X103773670Y-76946291D01*
X103772824Y-76952720D01*
X103772823Y-76952722D01*
X103765257Y-77010194D01*
X103754750Y-77090000D01*
X103755597Y-77096433D01*
X103766631Y-77180240D01*
X103773670Y-77233709D01*
X103829139Y-77367625D01*
X103917379Y-77482621D01*
X104032375Y-77570861D01*
X104166291Y-77626330D01*
X104172720Y-77627176D01*
X104172722Y-77627177D01*
X104303567Y-77644403D01*
X104310000Y-77645250D01*
X104316433Y-77644403D01*
X104447278Y-77627177D01*
X104447280Y-77627176D01*
X104453709Y-77626330D01*
X104587625Y-77570861D01*
X104702621Y-77482621D01*
X104790861Y-77367625D01*
X104846330Y-77233709D01*
X104853370Y-77180240D01*
X104864403Y-77096433D01*
X104865250Y-77090000D01*
X104854743Y-77010194D01*
X104847177Y-76952722D01*
X104847176Y-76952720D01*
X104846330Y-76946291D01*
X104790861Y-76812375D01*
X104786911Y-76807228D01*
X104786908Y-76807222D01*
X104706065Y-76701866D01*
X104685641Y-76644191D01*
X104703833Y-76588192D01*
X104702471Y-76587406D01*
X104705716Y-76581785D01*
X104709667Y-76576636D01*
X104765136Y-76442720D01*
X104784056Y-76299011D01*
X104765136Y-76155302D01*
X104709667Y-76021386D01*
X104621427Y-75906390D01*
X104506431Y-75818150D01*
X104372515Y-75762681D01*
X104366086Y-75761835D01*
X104366084Y-75761834D01*
X104235239Y-75744608D01*
X104228806Y-75743761D01*
X104222373Y-75744608D01*
X104091528Y-75761834D01*
X104091526Y-75761835D01*
X104085097Y-75762681D01*
X103951181Y-75818150D01*
X103836185Y-75906390D01*
X103747945Y-76021386D01*
X103692476Y-76155302D01*
X103673556Y-76299011D01*
X92250000Y-76299011D01*
X92250000Y-75604095D01*
X102454761Y-75604095D01*
X102473681Y-75747804D01*
X102529150Y-75881720D01*
X102617390Y-75996716D01*
X102732386Y-76084956D01*
X102866302Y-76140425D01*
X102872731Y-76141271D01*
X102872733Y-76141272D01*
X103003578Y-76158498D01*
X103010011Y-76159345D01*
X103016444Y-76158498D01*
X103147289Y-76141272D01*
X103147291Y-76141271D01*
X103153720Y-76140425D01*
X103287636Y-76084956D01*
X103402632Y-75996716D01*
X103490872Y-75881720D01*
X103546341Y-75747804D01*
X103565261Y-75604095D01*
X103546341Y-75460386D01*
X103490872Y-75326470D01*
X103402632Y-75211474D01*
X103287636Y-75123234D01*
X103153720Y-75067765D01*
X103147291Y-75066919D01*
X103147289Y-75066918D01*
X103016444Y-75049692D01*
X103010011Y-75048845D01*
X103003578Y-75049692D01*
X102872733Y-75066918D01*
X102872731Y-75066919D01*
X102866302Y-75067765D01*
X102732386Y-75123234D01*
X102617390Y-75211474D01*
X102529150Y-75326470D01*
X102473681Y-75460386D01*
X102454761Y-75604095D01*
X92250000Y-75604095D01*
X92250000Y-73550000D01*
X92684750Y-73550000D01*
X92703670Y-73693709D01*
X92759139Y-73827625D01*
X92847379Y-73942621D01*
X92962375Y-74030861D01*
X93096291Y-74086330D01*
X93102720Y-74087176D01*
X93102722Y-74087177D01*
X93233567Y-74104403D01*
X93240000Y-74105250D01*
X93246433Y-74104403D01*
X93377278Y-74087177D01*
X93377280Y-74087176D01*
X93383709Y-74086330D01*
X93517625Y-74030861D01*
X93632621Y-73942621D01*
X93720861Y-73827625D01*
X93776330Y-73693709D01*
X93795250Y-73550000D01*
X93776330Y-73406291D01*
X93720861Y-73272375D01*
X93632621Y-73157379D01*
X93517625Y-73069139D01*
X93383709Y-73013670D01*
X93377280Y-73012824D01*
X93377278Y-73012823D01*
X93246433Y-72995597D01*
X93240000Y-72994750D01*
X93233567Y-72995597D01*
X93102722Y-73012823D01*
X93102720Y-73012824D01*
X93096291Y-73013670D01*
X92962375Y-73069139D01*
X92847379Y-73157379D01*
X92759139Y-73272375D01*
X92703670Y-73406291D01*
X92684750Y-73550000D01*
X92250000Y-73550000D01*
X92250000Y-72013154D01*
X92873665Y-72013154D01*
X92874512Y-72019587D01*
X92889362Y-72132379D01*
X92892585Y-72156863D01*
X92948054Y-72290779D01*
X93036294Y-72405775D01*
X93151290Y-72494015D01*
X93285206Y-72549484D01*
X93291635Y-72550330D01*
X93291637Y-72550331D01*
X93422482Y-72567557D01*
X93428915Y-72568404D01*
X93435348Y-72567557D01*
X93566193Y-72550331D01*
X93566195Y-72550330D01*
X93572624Y-72549484D01*
X93706540Y-72494015D01*
X93821536Y-72405775D01*
X93909776Y-72290779D01*
X93965245Y-72156863D01*
X93968469Y-72132379D01*
X93983318Y-72019587D01*
X93984165Y-72013154D01*
X93978451Y-71969750D01*
X93966092Y-71875876D01*
X93966091Y-71875874D01*
X93965245Y-71869445D01*
X93909776Y-71735529D01*
X93821536Y-71620533D01*
X93706540Y-71532293D01*
X93572624Y-71476824D01*
X93566195Y-71475978D01*
X93566193Y-71475977D01*
X93435348Y-71458751D01*
X93428915Y-71457904D01*
X93422482Y-71458751D01*
X93291637Y-71475977D01*
X93291635Y-71475978D01*
X93285206Y-71476824D01*
X93151290Y-71532293D01*
X93036294Y-71620533D01*
X92948054Y-71735529D01*
X92892585Y-71869445D01*
X92891739Y-71875874D01*
X92891738Y-71875876D01*
X92879379Y-71969750D01*
X92873665Y-72013154D01*
X92250000Y-72013154D01*
X92250000Y-69700927D01*
X93293289Y-69700927D01*
X93294136Y-69707360D01*
X93311299Y-69837722D01*
X93312209Y-69844636D01*
X93367678Y-69978552D01*
X93455918Y-70093548D01*
X93570914Y-70181788D01*
X93704830Y-70237257D01*
X93711259Y-70238103D01*
X93711261Y-70238104D01*
X93842106Y-70255330D01*
X93848539Y-70256177D01*
X93854972Y-70255330D01*
X93985817Y-70238104D01*
X93985819Y-70238103D01*
X93992248Y-70237257D01*
X94126164Y-70181788D01*
X94241160Y-70093548D01*
X94329400Y-69978552D01*
X94330871Y-69975000D01*
X98169750Y-69975000D01*
X98170597Y-69981433D01*
X98185878Y-70097499D01*
X98188670Y-70118709D01*
X98244139Y-70252625D01*
X98332379Y-70367621D01*
X98447375Y-70455861D01*
X98581291Y-70511330D01*
X98587720Y-70512176D01*
X98587722Y-70512177D01*
X98604207Y-70514347D01*
X98659432Y-70540688D01*
X98688627Y-70594459D01*
X98680641Y-70655121D01*
X98638524Y-70699503D01*
X98604207Y-70710653D01*
X98587722Y-70712823D01*
X98587720Y-70712824D01*
X98581291Y-70713670D01*
X98447375Y-70769139D01*
X98332379Y-70857379D01*
X98244139Y-70972375D01*
X98188670Y-71106291D01*
X98169750Y-71250000D01*
X98188670Y-71393709D01*
X98244139Y-71527625D01*
X98332379Y-71642621D01*
X98447375Y-71730861D01*
X98581291Y-71786330D01*
X98587720Y-71787176D01*
X98587722Y-71787177D01*
X98604207Y-71789347D01*
X98659432Y-71815688D01*
X98688627Y-71869459D01*
X98680641Y-71930121D01*
X98638524Y-71974503D01*
X98604207Y-71985653D01*
X98587722Y-71987823D01*
X98587720Y-71987824D01*
X98581291Y-71988670D01*
X98447375Y-72044139D01*
X98332379Y-72132379D01*
X98244139Y-72247375D01*
X98188670Y-72381291D01*
X98187824Y-72387720D01*
X98187823Y-72387722D01*
X98185360Y-72406433D01*
X98169750Y-72525000D01*
X98188670Y-72668709D01*
X98244139Y-72802625D01*
X98332379Y-72917621D01*
X98447375Y-73005861D01*
X98581291Y-73061330D01*
X98587720Y-73062176D01*
X98587722Y-73062177D01*
X98718567Y-73079403D01*
X98725000Y-73080250D01*
X98731433Y-73079403D01*
X98862278Y-73062177D01*
X98862280Y-73062176D01*
X98868709Y-73061330D01*
X99002625Y-73005861D01*
X99117621Y-72917621D01*
X99205861Y-72802625D01*
X99261330Y-72668709D01*
X99264347Y-72645793D01*
X99290688Y-72590568D01*
X99344459Y-72561373D01*
X99405121Y-72569359D01*
X99449503Y-72611476D01*
X99460653Y-72645793D01*
X99463670Y-72668709D01*
X99519139Y-72802625D01*
X99607379Y-72917621D01*
X99722375Y-73005861D01*
X99856291Y-73061330D01*
X99862720Y-73062176D01*
X99862722Y-73062177D01*
X99993567Y-73079403D01*
X100000000Y-73080250D01*
X100006433Y-73079403D01*
X100137278Y-73062177D01*
X100137280Y-73062176D01*
X100143709Y-73061330D01*
X100277625Y-73005861D01*
X100392621Y-72917621D01*
X100480861Y-72802625D01*
X100536330Y-72668709D01*
X100539347Y-72645793D01*
X100565688Y-72590568D01*
X100619459Y-72561373D01*
X100680121Y-72569359D01*
X100724503Y-72611476D01*
X100735653Y-72645793D01*
X100738670Y-72668709D01*
X100794139Y-72802625D01*
X100882379Y-72917621D01*
X100997375Y-73005861D01*
X101131291Y-73061330D01*
X101137720Y-73062176D01*
X101137722Y-73062177D01*
X101268567Y-73079403D01*
X101275000Y-73080250D01*
X101281433Y-73079403D01*
X101412278Y-73062177D01*
X101412280Y-73062176D01*
X101418709Y-73061330D01*
X101552625Y-73005861D01*
X101667621Y-72917621D01*
X101755861Y-72802625D01*
X101811330Y-72668709D01*
X101830250Y-72525000D01*
X101814640Y-72406433D01*
X101813793Y-72400000D01*
X105644750Y-72400000D01*
X105648407Y-72427779D01*
X105662054Y-72531433D01*
X105663670Y-72543709D01*
X105719139Y-72677625D01*
X105807379Y-72792621D01*
X105922375Y-72880861D01*
X106056291Y-72936330D01*
X106062720Y-72937176D01*
X106062722Y-72937177D01*
X106193567Y-72954403D01*
X106200000Y-72955250D01*
X106206433Y-72954403D01*
X106337278Y-72937177D01*
X106337280Y-72937176D01*
X106343709Y-72936330D01*
X106477625Y-72880861D01*
X106592621Y-72792621D01*
X106680861Y-72677625D01*
X106736330Y-72543709D01*
X106737947Y-72531433D01*
X106751593Y-72427779D01*
X106755250Y-72400000D01*
X106751593Y-72372221D01*
X106737177Y-72262722D01*
X106737176Y-72262720D01*
X106736330Y-72256291D01*
X106680861Y-72122375D01*
X106592621Y-72007379D01*
X106477625Y-71919139D01*
X106343709Y-71863670D01*
X106337280Y-71862824D01*
X106337278Y-71862823D01*
X106206433Y-71845597D01*
X106200000Y-71844750D01*
X106193567Y-71845597D01*
X106062722Y-71862823D01*
X106062720Y-71862824D01*
X106056291Y-71863670D01*
X105922375Y-71919139D01*
X105807379Y-72007379D01*
X105719139Y-72122375D01*
X105663670Y-72256291D01*
X105662824Y-72262720D01*
X105662823Y-72262722D01*
X105648407Y-72372221D01*
X105644750Y-72400000D01*
X101813793Y-72400000D01*
X101812177Y-72387722D01*
X101812176Y-72387720D01*
X101811330Y-72381291D01*
X101755861Y-72247375D01*
X101667621Y-72132379D01*
X101552625Y-72044139D01*
X101418709Y-71988670D01*
X101412280Y-71987824D01*
X101412278Y-71987823D01*
X101395793Y-71985653D01*
X101340568Y-71959312D01*
X101311373Y-71905541D01*
X101319359Y-71844879D01*
X101361476Y-71800497D01*
X101395793Y-71789347D01*
X101412278Y-71787177D01*
X101412280Y-71787176D01*
X101418709Y-71786330D01*
X101552625Y-71730861D01*
X101667621Y-71642621D01*
X101755861Y-71527625D01*
X101811330Y-71393709D01*
X101830250Y-71250000D01*
X101811330Y-71106291D01*
X101755861Y-70972375D01*
X101667621Y-70857379D01*
X101552625Y-70769139D01*
X101418709Y-70713670D01*
X101412280Y-70712824D01*
X101412278Y-70712823D01*
X101395793Y-70710653D01*
X101340568Y-70684312D01*
X101311373Y-70630541D01*
X101319359Y-70569879D01*
X101361476Y-70525497D01*
X101395793Y-70514347D01*
X101412278Y-70512177D01*
X101412280Y-70512176D01*
X101418709Y-70511330D01*
X101552625Y-70455861D01*
X101667621Y-70367621D01*
X101755861Y-70252625D01*
X101811330Y-70118709D01*
X101814123Y-70097499D01*
X101829403Y-69981433D01*
X101830250Y-69975000D01*
X101813087Y-69844636D01*
X101812177Y-69837722D01*
X101812176Y-69837720D01*
X101811330Y-69831291D01*
X101755861Y-69697375D01*
X101667621Y-69582379D01*
X101552625Y-69494139D01*
X101418709Y-69438670D01*
X101412280Y-69437824D01*
X101412278Y-69437823D01*
X101281433Y-69420597D01*
X101275000Y-69419750D01*
X101268567Y-69420597D01*
X101137722Y-69437823D01*
X101137720Y-69437824D01*
X101131291Y-69438670D01*
X100997375Y-69494139D01*
X100882379Y-69582379D01*
X100794139Y-69697375D01*
X100738670Y-69831291D01*
X100737824Y-69837720D01*
X100737823Y-69837722D01*
X100735653Y-69854207D01*
X100709312Y-69909432D01*
X100655541Y-69938627D01*
X100594879Y-69930641D01*
X100550497Y-69888524D01*
X100539347Y-69854207D01*
X100537177Y-69837722D01*
X100537176Y-69837720D01*
X100536330Y-69831291D01*
X100480861Y-69697375D01*
X100392621Y-69582379D01*
X100277625Y-69494139D01*
X100143709Y-69438670D01*
X100137280Y-69437824D01*
X100137278Y-69437823D01*
X100006433Y-69420597D01*
X100000000Y-69419750D01*
X99993567Y-69420597D01*
X99862722Y-69437823D01*
X99862720Y-69437824D01*
X99856291Y-69438670D01*
X99722375Y-69494139D01*
X99607379Y-69582379D01*
X99519139Y-69697375D01*
X99463670Y-69831291D01*
X99462824Y-69837720D01*
X99462823Y-69837722D01*
X99460653Y-69854207D01*
X99434312Y-69909432D01*
X99380541Y-69938627D01*
X99319879Y-69930641D01*
X99275497Y-69888524D01*
X99264347Y-69854207D01*
X99262177Y-69837722D01*
X99262176Y-69837720D01*
X99261330Y-69831291D01*
X99205861Y-69697375D01*
X99117621Y-69582379D01*
X99002625Y-69494139D01*
X98868709Y-69438670D01*
X98862280Y-69437824D01*
X98862278Y-69437823D01*
X98731433Y-69420597D01*
X98725000Y-69419750D01*
X98718567Y-69420597D01*
X98587722Y-69437823D01*
X98587720Y-69437824D01*
X98581291Y-69438670D01*
X98447375Y-69494139D01*
X98332379Y-69582379D01*
X98244139Y-69697375D01*
X98188670Y-69831291D01*
X98187824Y-69837720D01*
X98187823Y-69837722D01*
X98186913Y-69844636D01*
X98169750Y-69975000D01*
X94330871Y-69975000D01*
X94384869Y-69844636D01*
X94385780Y-69837722D01*
X94402942Y-69707360D01*
X94403789Y-69700927D01*
X94397884Y-69656076D01*
X94409034Y-69595917D01*
X94458151Y-69551692D01*
X94502203Y-69533445D01*
X94617199Y-69445205D01*
X94705439Y-69330209D01*
X94760908Y-69196293D01*
X94768803Y-69136330D01*
X94778981Y-69059017D01*
X94778981Y-69059016D01*
X94779828Y-69052584D01*
X94760908Y-68908875D01*
X94705439Y-68774959D01*
X94617199Y-68659963D01*
X94539054Y-68600000D01*
X105644750Y-68600000D01*
X105663670Y-68743709D01*
X105719139Y-68877625D01*
X105807379Y-68992621D01*
X105922375Y-69080861D01*
X106056291Y-69136330D01*
X106062720Y-69137176D01*
X106062722Y-69137177D01*
X106193567Y-69154403D01*
X106200000Y-69155250D01*
X106206433Y-69154403D01*
X106337278Y-69137177D01*
X106337280Y-69137176D01*
X106343709Y-69136330D01*
X106477625Y-69080861D01*
X106592621Y-68992621D01*
X106680861Y-68877625D01*
X106736330Y-68743709D01*
X106755250Y-68600000D01*
X106744551Y-68518737D01*
X106737177Y-68462722D01*
X106737176Y-68462720D01*
X106736330Y-68456291D01*
X106680861Y-68322375D01*
X106592621Y-68207379D01*
X106477625Y-68119139D01*
X106343709Y-68063670D01*
X106337280Y-68062824D01*
X106337278Y-68062823D01*
X106206433Y-68045597D01*
X106200000Y-68044750D01*
X106193567Y-68045597D01*
X106062722Y-68062823D01*
X106062720Y-68062824D01*
X106056291Y-68063670D01*
X105922375Y-68119139D01*
X105807379Y-68207379D01*
X105719139Y-68322375D01*
X105663670Y-68456291D01*
X105662824Y-68462720D01*
X105662823Y-68462722D01*
X105655449Y-68518737D01*
X105644750Y-68600000D01*
X94539054Y-68600000D01*
X94502203Y-68571723D01*
X94368287Y-68516254D01*
X94361858Y-68515408D01*
X94361856Y-68515407D01*
X94231011Y-68498181D01*
X94224578Y-68497334D01*
X94218145Y-68498181D01*
X94087300Y-68515407D01*
X94087298Y-68515408D01*
X94080869Y-68516254D01*
X93946953Y-68571723D01*
X93831957Y-68659963D01*
X93743717Y-68774959D01*
X93688248Y-68908875D01*
X93669328Y-69052584D01*
X93675233Y-69097435D01*
X93664083Y-69157594D01*
X93614966Y-69201819D01*
X93570914Y-69220066D01*
X93455918Y-69308306D01*
X93367678Y-69423302D01*
X93312209Y-69557218D01*
X93311363Y-69563647D01*
X93311362Y-69563649D01*
X93307114Y-69595917D01*
X93293289Y-69700927D01*
X92250000Y-69700927D01*
X92250000Y-68019863D01*
X96295250Y-68019863D01*
X96314170Y-68163572D01*
X96369639Y-68297488D01*
X96457879Y-68412484D01*
X96572875Y-68500724D01*
X96706791Y-68556193D01*
X96713220Y-68557039D01*
X96713222Y-68557040D01*
X96844067Y-68574266D01*
X96850500Y-68575113D01*
X96856933Y-68574266D01*
X96987778Y-68557040D01*
X96987780Y-68557039D01*
X96994209Y-68556193D01*
X97128125Y-68500724D01*
X97243121Y-68412484D01*
X97331361Y-68297488D01*
X97386830Y-68163572D01*
X97405750Y-68019863D01*
X97386830Y-67876154D01*
X97331361Y-67742238D01*
X97243121Y-67627242D01*
X97128125Y-67539002D01*
X96994209Y-67483533D01*
X96987780Y-67482687D01*
X96987778Y-67482686D01*
X96856933Y-67465460D01*
X96850500Y-67464613D01*
X96844067Y-67465460D01*
X96713222Y-67482686D01*
X96713220Y-67482687D01*
X96706791Y-67483533D01*
X96572875Y-67539002D01*
X96457879Y-67627242D01*
X96369639Y-67742238D01*
X96314170Y-67876154D01*
X96295250Y-68019863D01*
X92250000Y-68019863D01*
X92250000Y-65982284D01*
X92268907Y-65924093D01*
X92318407Y-65888129D01*
X92379593Y-65888129D01*
X92386868Y-65890813D01*
X92464111Y-65922808D01*
X92470540Y-65923654D01*
X92470542Y-65923655D01*
X92601387Y-65940881D01*
X92607820Y-65941728D01*
X92614253Y-65940881D01*
X92745098Y-65923655D01*
X92745100Y-65923654D01*
X92751529Y-65922808D01*
X92885445Y-65867339D01*
X93000441Y-65779099D01*
X93088681Y-65664103D01*
X93131340Y-65561114D01*
X93171075Y-65514589D01*
X93222803Y-65500000D01*
X102174856Y-65500000D01*
X102233047Y-65518907D01*
X102269011Y-65568407D01*
X102273856Y-65599000D01*
X102273856Y-67048544D01*
X102273479Y-67057173D01*
X102270092Y-67095885D01*
X102272334Y-67104252D01*
X102280152Y-67133427D01*
X102282022Y-67141861D01*
X102288768Y-67180123D01*
X102293098Y-67187622D01*
X102295094Y-67193107D01*
X102297560Y-67198394D01*
X102299802Y-67206762D01*
X102320369Y-67236134D01*
X102322088Y-67238589D01*
X102326727Y-67245870D01*
X102346162Y-67279533D01*
X102360694Y-67291727D01*
X102375927Y-67304509D01*
X102382295Y-67310343D01*
X102783092Y-67711140D01*
X102810869Y-67765657D01*
X102811241Y-67794062D01*
X102806570Y-67829542D01*
X102825490Y-67973251D01*
X102880959Y-68107167D01*
X102969199Y-68222163D01*
X103084195Y-68310403D01*
X103218111Y-68365872D01*
X103224540Y-68366718D01*
X103224542Y-68366719D01*
X103355387Y-68383945D01*
X103361820Y-68384792D01*
X103368253Y-68383945D01*
X103499098Y-68366719D01*
X103499100Y-68366718D01*
X103505529Y-68365872D01*
X103639445Y-68310403D01*
X103754441Y-68222163D01*
X103842681Y-68107167D01*
X103898150Y-67973251D01*
X103917070Y-67829542D01*
X103900377Y-67702747D01*
X103898997Y-67692264D01*
X103898996Y-67692262D01*
X103898150Y-67685833D01*
X103848881Y-67566885D01*
X103844081Y-67505888D01*
X103876050Y-67453719D01*
X103902460Y-67437536D01*
X103921243Y-67429756D01*
X103977261Y-67406553D01*
X104092257Y-67318313D01*
X104180497Y-67203317D01*
X104220139Y-67107611D01*
X105569044Y-67107611D01*
X105569699Y-67113544D01*
X105569699Y-67113548D01*
X105583504Y-67238589D01*
X105587649Y-67276135D01*
X105645916Y-67435356D01*
X105649241Y-67440305D01*
X105649242Y-67440306D01*
X105662339Y-67459796D01*
X105740480Y-67576083D01*
X105865883Y-67690191D01*
X106014885Y-67771092D01*
X106049839Y-67780262D01*
X106173114Y-67812603D01*
X106173118Y-67812604D01*
X106178883Y-67814116D01*
X106184844Y-67814210D01*
X106184847Y-67814210D01*
X106263646Y-67815447D01*
X106348410Y-67816779D01*
X106354225Y-67815447D01*
X106354227Y-67815447D01*
X106507856Y-67780262D01*
X106507859Y-67780261D01*
X106513679Y-67778928D01*
X106529260Y-67771092D01*
X106659815Y-67705429D01*
X106665148Y-67702747D01*
X106669685Y-67698872D01*
X106669688Y-67698870D01*
X106789538Y-67596508D01*
X106789541Y-67596505D01*
X106794073Y-67592634D01*
X106823331Y-67551917D01*
X106889527Y-67459796D01*
X106889528Y-67459794D01*
X106893011Y-67454947D01*
X106900011Y-67437536D01*
X106954027Y-67303167D01*
X106954028Y-67303165D01*
X106956251Y-67297634D01*
X106957092Y-67291727D01*
X106979684Y-67132985D01*
X106979684Y-67132979D01*
X106980140Y-67129778D01*
X106980295Y-67115000D01*
X106969442Y-67025314D01*
X106960643Y-66952602D01*
X106960642Y-66952599D01*
X106959926Y-66946680D01*
X106899995Y-66788077D01*
X106894611Y-66780242D01*
X106819371Y-66670769D01*
X106803962Y-66648349D01*
X106677371Y-66535560D01*
X106527531Y-66456224D01*
X106445311Y-66435571D01*
X106368881Y-66416373D01*
X106368878Y-66416373D01*
X106363091Y-66414919D01*
X106277491Y-66414471D01*
X106199511Y-66414062D01*
X106199509Y-66414062D01*
X106193545Y-66414031D01*
X106187749Y-66415423D01*
X106187745Y-66415423D01*
X106080353Y-66441207D01*
X106028682Y-66453612D01*
X105953351Y-66492493D01*
X105883325Y-66528636D01*
X105883323Y-66528638D01*
X105878019Y-66531375D01*
X105750254Y-66642831D01*
X105746823Y-66647713D01*
X105746822Y-66647714D01*
X105670654Y-66756091D01*
X105652763Y-66781547D01*
X105650595Y-66787108D01*
X105596563Y-66925692D01*
X105591174Y-66939513D01*
X105569044Y-67107611D01*
X104220139Y-67107611D01*
X104235966Y-67069401D01*
X104254886Y-66925692D01*
X104239298Y-66807290D01*
X104236813Y-66788414D01*
X104236812Y-66788412D01*
X104235966Y-66781983D01*
X104180497Y-66648067D01*
X104092257Y-66533071D01*
X103977261Y-66444831D01*
X103843345Y-66389362D01*
X103836916Y-66388516D01*
X103836914Y-66388515D01*
X103706069Y-66371289D01*
X103699636Y-66370442D01*
X103664159Y-66375113D01*
X103604000Y-66363964D01*
X103581234Y-66346964D01*
X103451591Y-66217321D01*
X103423814Y-66162804D01*
X103422595Y-66147317D01*
X103422595Y-62857611D01*
X105569044Y-62857611D01*
X105569699Y-62863544D01*
X105569699Y-62863548D01*
X105586994Y-63020204D01*
X105587649Y-63026135D01*
X105645916Y-63185356D01*
X105649241Y-63190305D01*
X105649242Y-63190306D01*
X105662339Y-63209796D01*
X105740480Y-63326083D01*
X105865883Y-63440191D01*
X106014885Y-63521092D01*
X106049839Y-63530262D01*
X106173114Y-63562603D01*
X106173118Y-63562604D01*
X106178883Y-63564116D01*
X106184844Y-63564210D01*
X106184847Y-63564210D01*
X106263646Y-63565447D01*
X106348410Y-63566779D01*
X106354225Y-63565447D01*
X106354227Y-63565447D01*
X106507856Y-63530262D01*
X106507859Y-63530261D01*
X106513679Y-63528928D01*
X106529260Y-63521092D01*
X106659815Y-63455429D01*
X106665148Y-63452747D01*
X106669685Y-63448872D01*
X106669688Y-63448870D01*
X106789538Y-63346508D01*
X106789541Y-63346505D01*
X106794073Y-63342634D01*
X106893011Y-63204947D01*
X106951246Y-63060086D01*
X106954027Y-63053167D01*
X106954028Y-63053165D01*
X106956251Y-63047634D01*
X106958513Y-63031739D01*
X106979684Y-62882985D01*
X106979684Y-62882979D01*
X106980140Y-62879778D01*
X106980295Y-62865000D01*
X106959926Y-62696680D01*
X106899995Y-62538077D01*
X106803962Y-62398349D01*
X106677371Y-62285560D01*
X106527531Y-62206224D01*
X106445311Y-62185572D01*
X106368881Y-62166373D01*
X106368878Y-62166373D01*
X106363091Y-62164919D01*
X106277491Y-62164471D01*
X106199511Y-62164062D01*
X106199509Y-62164062D01*
X106193545Y-62164031D01*
X106187749Y-62165423D01*
X106187745Y-62165423D01*
X106080353Y-62191207D01*
X106028682Y-62203612D01*
X106001800Y-62217487D01*
X105883325Y-62278636D01*
X105883323Y-62278638D01*
X105878019Y-62281375D01*
X105750254Y-62392831D01*
X105652763Y-62531547D01*
X105591174Y-62689513D01*
X105569044Y-62857611D01*
X103422595Y-62857611D01*
X103422595Y-61804170D01*
X103441502Y-61745979D01*
X103462596Y-61727040D01*
X103461456Y-61725554D01*
X103571303Y-61641265D01*
X103576452Y-61637314D01*
X103664692Y-61522318D01*
X103720161Y-61388402D01*
X103739081Y-61244693D01*
X103738234Y-61238260D01*
X103738234Y-61236308D01*
X103757141Y-61178117D01*
X103806641Y-61142153D01*
X103850155Y-61138155D01*
X103980000Y-61155250D01*
X103986433Y-61154403D01*
X104117278Y-61137177D01*
X104117280Y-61137176D01*
X104123709Y-61136330D01*
X104257625Y-61080861D01*
X104372621Y-60992621D01*
X104460861Y-60877625D01*
X104516330Y-60743709D01*
X104520984Y-60708363D01*
X104534403Y-60606433D01*
X104535250Y-60600000D01*
X104524068Y-60515065D01*
X104517177Y-60462722D01*
X104517176Y-60462720D01*
X104516330Y-60456291D01*
X104460861Y-60322375D01*
X104372621Y-60207379D01*
X104257625Y-60119139D01*
X104123709Y-60063670D01*
X104117280Y-60062824D01*
X104117278Y-60062823D01*
X103986433Y-60045597D01*
X103980000Y-60044750D01*
X103973567Y-60045597D01*
X103842722Y-60062823D01*
X103842720Y-60062824D01*
X103836291Y-60063670D01*
X103702375Y-60119139D01*
X103587379Y-60207379D01*
X103499139Y-60322375D01*
X103443670Y-60456291D01*
X103442824Y-60462720D01*
X103442823Y-60462722D01*
X103435932Y-60515065D01*
X103424750Y-60600000D01*
X103425597Y-60606433D01*
X103425597Y-60608385D01*
X103406690Y-60666576D01*
X103357190Y-60702540D01*
X103313676Y-60706538D01*
X103183831Y-60689443D01*
X103161728Y-60692353D01*
X103046553Y-60707516D01*
X103046551Y-60707517D01*
X103040122Y-60708363D01*
X102906206Y-60763832D01*
X102901059Y-60767782D01*
X102901053Y-60767785D01*
X102879864Y-60784044D01*
X102822188Y-60804468D01*
X102759331Y-60784045D01*
X102712125Y-60747822D01*
X102706132Y-60745339D01*
X102706129Y-60745338D01*
X102584207Y-60694837D01*
X102584204Y-60694836D01*
X102578209Y-60692353D01*
X102572953Y-60691661D01*
X102522060Y-60658608D01*
X102500000Y-60596308D01*
X102500000Y-59099000D01*
X102518907Y-59040809D01*
X102568407Y-59004845D01*
X102599000Y-59000000D01*
X105154620Y-59000000D01*
X105212811Y-59018907D01*
G37*
%TD.AperFunction*%
%TD*%
%TA.AperFunction,Conductor*%
%TO.N,GND*%
G36*
X102209191Y-59018907D02*
G01*
X102245155Y-59068407D01*
X102250000Y-59099000D01*
X102250000Y-60698654D01*
X102231093Y-60756845D01*
X102203827Y-60782381D01*
X102112746Y-60839848D01*
X102112743Y-60839851D01*
X102106780Y-60843613D01*
X102102113Y-60848897D01*
X102102111Y-60848899D01*
X102016544Y-60945786D01*
X102016542Y-60945788D01*
X102011877Y-60951071D01*
X101950947Y-61080846D01*
X101928891Y-61222506D01*
X101947480Y-61364662D01*
X102005220Y-61495886D01*
X102018292Y-61511437D01*
X102092931Y-61600232D01*
X102092934Y-61600234D01*
X102097470Y-61605631D01*
X102103341Y-61609539D01*
X102103342Y-61609540D01*
X102205858Y-61677781D01*
X102243821Y-61725765D01*
X102250000Y-61760192D01*
X102250000Y-65151000D01*
X102231093Y-65209191D01*
X102181593Y-65245155D01*
X102151000Y-65250000D01*
X95599000Y-65250000D01*
X95540809Y-65231093D01*
X95504845Y-65181593D01*
X95500000Y-65151000D01*
X95500000Y-62498659D01*
X99119391Y-62498659D01*
X99120306Y-62505656D01*
X99120306Y-62505657D01*
X99121814Y-62517190D01*
X99137980Y-62640815D01*
X99140821Y-62647271D01*
X99140821Y-62647272D01*
X99148586Y-62664918D01*
X99195720Y-62772039D01*
X99208792Y-62787590D01*
X99283431Y-62876385D01*
X99283434Y-62876387D01*
X99287970Y-62881784D01*
X99293841Y-62885692D01*
X99293842Y-62885693D01*
X99311689Y-62897573D01*
X99407313Y-62961226D01*
X99507920Y-62992657D01*
X99537425Y-63001875D01*
X99537426Y-63001875D01*
X99544157Y-63003978D01*
X99615828Y-63005292D01*
X99680445Y-63006477D01*
X99680447Y-63006477D01*
X99687499Y-63006606D01*
X99694302Y-63004751D01*
X99694304Y-63004751D01*
X99769503Y-62984249D01*
X99825817Y-62968896D01*
X99947991Y-62893881D01*
X99949370Y-62896128D01*
X99995355Y-62877818D01*
X100056620Y-62894199D01*
X100157313Y-62961226D01*
X100257920Y-62992657D01*
X100287425Y-63001875D01*
X100287426Y-63001875D01*
X100294157Y-63003978D01*
X100365828Y-63005292D01*
X100430445Y-63006477D01*
X100430447Y-63006477D01*
X100437499Y-63006606D01*
X100444302Y-63004751D01*
X100444304Y-63004751D01*
X100519503Y-62984249D01*
X100575817Y-62968896D01*
X100697991Y-62893881D01*
X100705403Y-62885693D01*
X100789468Y-62792818D01*
X100794200Y-62787590D01*
X100856710Y-62658569D01*
X100860875Y-62633818D01*
X100879862Y-62520960D01*
X100879862Y-62520956D01*
X100880496Y-62517190D01*
X100880647Y-62504836D01*
X100860323Y-62362918D01*
X100800984Y-62232408D01*
X100707400Y-62123799D01*
X100587095Y-62045821D01*
X100449739Y-62004743D01*
X100366497Y-62004234D01*
X100313427Y-62003910D01*
X100313426Y-62003910D01*
X100306376Y-62003867D01*
X100299599Y-62005804D01*
X100299598Y-62005804D01*
X100175309Y-62041326D01*
X100175307Y-62041327D01*
X100168529Y-62043264D01*
X100162567Y-62047026D01*
X100162564Y-62047027D01*
X100052128Y-62116707D01*
X99992825Y-62131768D01*
X99945453Y-62116055D01*
X99843016Y-62049659D01*
X99843017Y-62049659D01*
X99837095Y-62045821D01*
X99699739Y-62004743D01*
X99616497Y-62004234D01*
X99563427Y-62003910D01*
X99563426Y-62003910D01*
X99556376Y-62003867D01*
X99549599Y-62005804D01*
X99549598Y-62005804D01*
X99425309Y-62041326D01*
X99425307Y-62041327D01*
X99418529Y-62043264D01*
X99297280Y-62119766D01*
X99292613Y-62125050D01*
X99292611Y-62125052D01*
X99207044Y-62221939D01*
X99207042Y-62221941D01*
X99202377Y-62227224D01*
X99141447Y-62356999D01*
X99119391Y-62498659D01*
X95500000Y-62498659D01*
X95500000Y-59099000D01*
X95518907Y-59040809D01*
X95568407Y-59004845D01*
X95599000Y-59000000D01*
X102151000Y-59000000D01*
X102209191Y-59018907D01*
G37*
%TD.AperFunction*%
%TD*%
M02*
