%TF.GenerationSoftware,KiCad,Pcbnew,5.99.0-unknown-a208dac8d8~131~ubuntu20.04.1*%
%TF.CreationDate,2021-09-06T21:34:53-05:00*%
%TF.ProjectId,minimum,6d696e69-6d75-46d2-9e6b-696361645f70,rev?*%
%TF.SameCoordinates,Original*%
%TF.FileFunction,Paste,Bot*%
%TF.FilePolarity,Positive*%
%FSLAX46Y46*%
G04 Gerber Fmt 4.6, Leading zero omitted, Abs format (unit mm)*
G04 Created by KiCad (PCBNEW 5.99.0-unknown-a208dac8d8~131~ubuntu20.04.1) date 2021-09-06 21:34:53*
%MOMM*%
%LPD*%
G01*
G04 APERTURE LIST*
G04 Aperture macros list*
%AMRoundRect*
0 Rectangle with rounded corners*
0 $1 Rounding radius*
0 $2 $3 $4 $5 $6 $7 $8 $9 X,Y pos of 4 corners*
0 Add a 4 corners polygon primitive as box body*
4,1,4,$2,$3,$4,$5,$6,$7,$8,$9,$2,$3,0*
0 Add four circle primitives for the rounded corners*
1,1,$1+$1,$2,$3*
1,1,$1+$1,$4,$5*
1,1,$1+$1,$6,$7*
1,1,$1+$1,$8,$9*
0 Add four rect primitives between the rounded corners*
20,1,$1+$1,$2,$3,$4,$5,0*
20,1,$1+$1,$4,$5,$6,$7,0*
20,1,$1+$1,$6,$7,$8,$9,0*
20,1,$1+$1,$8,$9,$2,$3,0*%
G04 Aperture macros list end*
%ADD10RoundRect,0.250000X0.292217X0.292217X-0.292217X0.292217X-0.292217X-0.292217X0.292217X-0.292217X0*%
%ADD11RoundRect,0.050000X0.387500X0.050000X-0.387500X0.050000X-0.387500X-0.050000X0.387500X-0.050000X0*%
%ADD12RoundRect,0.050000X0.050000X0.387500X-0.050000X0.387500X-0.050000X-0.387500X0.050000X-0.387500X0*%
%ADD13RoundRect,0.140000X-0.140000X-0.170000X0.140000X-0.170000X0.140000X0.170000X-0.140000X0.170000X0*%
%ADD14RoundRect,0.140000X0.140000X0.170000X-0.140000X0.170000X-0.140000X-0.170000X0.140000X-0.170000X0*%
%ADD15RoundRect,0.135000X0.135000X0.185000X-0.135000X0.185000X-0.135000X-0.185000X0.135000X-0.185000X0*%
%ADD16RoundRect,0.140000X0.170000X-0.140000X0.170000X0.140000X-0.170000X0.140000X-0.170000X-0.140000X0*%
%ADD17RoundRect,0.135000X-0.185000X0.135000X-0.185000X-0.135000X0.185000X-0.135000X0.185000X0.135000X0*%
%ADD18RoundRect,0.140000X-0.170000X0.140000X-0.170000X-0.140000X0.170000X-0.140000X0.170000X0.140000X0*%
%ADD19RoundRect,0.135000X0.185000X-0.135000X0.185000X0.135000X-0.185000X0.135000X-0.185000X-0.135000X0*%
%ADD20R,0.254000X0.812800*%
%ADD21R,1.600200X0.203200*%
%ADD22R,1.000000X0.900000*%
G04 APERTURE END LIST*
D10*
%TO.C,U1*%
X99362500Y-70612500D03*
X100637500Y-71887500D03*
X100637500Y-70612500D03*
X99362500Y-71887500D03*
D11*
X103437500Y-68650000D03*
X103437500Y-69050000D03*
X103437500Y-69450000D03*
X103437500Y-69850000D03*
X103437500Y-70250000D03*
X103437500Y-70650000D03*
X103437500Y-71050000D03*
X103437500Y-71450000D03*
X103437500Y-71850000D03*
X103437500Y-72250000D03*
X103437500Y-72650000D03*
X103437500Y-73050000D03*
X103437500Y-73450000D03*
X103437500Y-73850000D03*
D12*
X102600000Y-74687500D03*
X102200000Y-74687500D03*
X101800000Y-74687500D03*
X101400000Y-74687500D03*
X101000000Y-74687500D03*
X100600000Y-74687500D03*
X100200000Y-74687500D03*
X99800000Y-74687500D03*
X99400000Y-74687500D03*
X99000000Y-74687500D03*
X98600000Y-74687500D03*
X98200000Y-74687500D03*
X97800000Y-74687500D03*
X97400000Y-74687500D03*
D11*
X96562500Y-73850000D03*
X96562500Y-73450000D03*
X96562500Y-73050000D03*
X96562500Y-72650000D03*
X96562500Y-72250000D03*
X96562500Y-71850000D03*
X96562500Y-71450000D03*
X96562500Y-71050000D03*
X96562500Y-70650000D03*
X96562500Y-70250000D03*
X96562500Y-69850000D03*
X96562500Y-69450000D03*
X96562500Y-69050000D03*
X96562500Y-68650000D03*
D12*
X97400000Y-67812500D03*
X97800000Y-67812500D03*
X98200000Y-67812500D03*
X98600000Y-67812500D03*
X99000000Y-67812500D03*
X99400000Y-67812500D03*
X99800000Y-67812500D03*
X100200000Y-67812500D03*
X100600000Y-67812500D03*
X101000000Y-67812500D03*
X101400000Y-67812500D03*
X101800000Y-67812500D03*
X102200000Y-67812500D03*
X102600000Y-67812500D03*
%TD*%
D13*
%TO.C,C15*%
X98120000Y-78400000D03*
X99080000Y-78400000D03*
%TD*%
D14*
%TO.C,C7*%
X94980000Y-67000000D03*
X94020000Y-67000000D03*
%TD*%
%TO.C,C10*%
X94980000Y-66000000D03*
X94020000Y-66000000D03*
%TD*%
D15*
%TO.C,R10*%
X94290000Y-74030000D03*
X93270000Y-74030000D03*
%TD*%
D16*
%TO.C,C11*%
X97300000Y-65500000D03*
X97300000Y-64540000D03*
%TD*%
D17*
%TO.C,R1*%
X99290000Y-65490000D03*
X99290000Y-66510000D03*
%TD*%
D18*
%TO.C,C14*%
X103400000Y-76400000D03*
X103400000Y-77360000D03*
%TD*%
D14*
%TO.C,C1*%
X95080000Y-68600000D03*
X94120000Y-68600000D03*
%TD*%
D19*
%TO.C,R5*%
X99010000Y-77440000D03*
X99010000Y-76420000D03*
%TD*%
D20*
%TO.C,U3*%
X102249999Y-62101600D03*
X102750000Y-62101600D03*
X103250000Y-62101600D03*
X103750001Y-62101600D03*
X103750001Y-64898400D03*
X103250000Y-64898400D03*
X102750000Y-64898400D03*
X102249999Y-64898400D03*
D21*
X103000000Y-63500000D03*
%TD*%
D16*
%TO.C,C12*%
X101230000Y-65320000D03*
X101230000Y-64360000D03*
%TD*%
D14*
%TO.C,C2*%
X94210000Y-72750000D03*
X93250000Y-72750000D03*
%TD*%
D13*
%TO.C,C3*%
X104720000Y-68600000D03*
X105680000Y-68600000D03*
%TD*%
%TO.C,C4*%
X104720000Y-72400000D03*
X105680000Y-72400000D03*
%TD*%
D19*
%TO.C,R2*%
X98290000Y-66510000D03*
X98290000Y-65490000D03*
%TD*%
D14*
%TO.C,C13*%
X97680000Y-76400000D03*
X96720000Y-76400000D03*
%TD*%
D13*
%TO.C,C16*%
X102290000Y-60280000D03*
X103250000Y-60280000D03*
%TD*%
D15*
%TO.C,R9*%
X94290000Y-70510000D03*
X93270000Y-70510000D03*
%TD*%
D22*
%TO.C,Y1*%
X100375000Y-76587500D03*
X102025000Y-76587500D03*
X102025000Y-77812500D03*
X100375000Y-77812500D03*
%TD*%
D16*
%TO.C,C6*%
X100270000Y-65320000D03*
X100270000Y-64360000D03*
%TD*%
D14*
%TO.C,C5*%
X97680000Y-77400000D03*
X96720000Y-77400000D03*
%TD*%
D15*
%TO.C,R8*%
X94290000Y-71470000D03*
X93270000Y-71470000D03*
%TD*%
M02*
