%TF.GenerationSoftware,KiCad,Pcbnew,5.99.0-unknown-a208dac8d8~131~ubuntu20.04.1*%
%TF.CreationDate,2021-09-06T21:34:52-05:00*%
%TF.ProjectId,minimum,6d696e69-6d75-46d2-9e6b-696361645f70,rev?*%
%TF.SameCoordinates,Original*%
%TF.FileFunction,Paste,Top*%
%TF.FilePolarity,Positive*%
%FSLAX46Y46*%
G04 Gerber Fmt 4.6, Leading zero omitted, Abs format (unit mm)*
G04 Created by KiCad (PCBNEW 5.99.0-unknown-a208dac8d8~131~ubuntu20.04.1) date 2021-09-06 21:34:52*
%MOMM*%
%LPD*%
G01*
G04 APERTURE LIST*
G04 Aperture macros list*
%AMRoundRect*
0 Rectangle with rounded corners*
0 $1 Rounding radius*
0 $2 $3 $4 $5 $6 $7 $8 $9 X,Y pos of 4 corners*
0 Add a 4 corners polygon primitive as box body*
4,1,4,$2,$3,$4,$5,$6,$7,$8,$9,$2,$3,0*
0 Add four circle primitives for the rounded corners*
1,1,$1+$1,$2,$3*
1,1,$1+$1,$4,$5*
1,1,$1+$1,$6,$7*
1,1,$1+$1,$8,$9*
0 Add four rect primitives between the rounded corners*
20,1,$1+$1,$2,$3,$4,$5,0*
20,1,$1+$1,$4,$5,$6,$7,0*
20,1,$1+$1,$6,$7,$8,$9,0*
20,1,$1+$1,$8,$9,$2,$3,0*%
%AMOutline5P*
0 Free polygon, 5 corners , with rotation*
0 The origin of the aperture is its center*
0 number of corners: always 5*
0 $1 to $10 corner X, Y*
0 $11 Rotation angle, in degrees counterclockwise*
0 create outline with 5 corners*
4,1,5,$1,$2,$3,$4,$5,$6,$7,$8,$9,$10,$1,$2,$11*%
%AMOutline6P*
0 Free polygon, 6 corners , with rotation*
0 The origin of the aperture is its center*
0 number of corners: always 6*
0 $1 to $12 corner X, Y*
0 $13 Rotation angle, in degrees counterclockwise*
0 create outline with 6 corners*
4,1,6,$1,$2,$3,$4,$5,$6,$7,$8,$9,$10,$11,$12,$1,$2,$13*%
%AMOutline7P*
0 Free polygon, 7 corners , with rotation*
0 The origin of the aperture is its center*
0 number of corners: always 7*
0 $1 to $14 corner X, Y*
0 $15 Rotation angle, in degrees counterclockwise*
0 create outline with 7 corners*
4,1,7,$1,$2,$3,$4,$5,$6,$7,$8,$9,$10,$11,$12,$13,$14,$1,$2,$15*%
%AMOutline8P*
0 Free polygon, 8 corners , with rotation*
0 The origin of the aperture is its center*
0 number of corners: always 8*
0 $1 to $16 corner X, Y*
0 $17 Rotation angle, in degrees counterclockwise*
0 create outline with 8 corners*
4,1,8,$1,$2,$3,$4,$5,$6,$7,$8,$9,$10,$11,$12,$13,$14,$15,$16,$1,$2,$17*%
G04 Aperture macros list end*
%ADD10R,1.300000X0.600000*%
%ADD11R,0.600000X1.300000*%
%ADD12R,1.600000X1.600000*%
%ADD13RoundRect,0.135000X0.185000X-0.135000X0.185000X0.135000X-0.185000X0.135000X-0.185000X-0.135000X0*%
%ADD14RoundRect,0.140000X-0.170000X0.140000X-0.170000X-0.140000X0.170000X-0.140000X0.170000X0.140000X0*%
%ADD15R,0.900000X0.850000*%
%ADD16R,0.500000X0.450000*%
%ADD17RoundRect,0.135000X-0.185000X0.135000X-0.185000X-0.135000X0.185000X-0.135000X0.185000X0.135000X0*%
%ADD18RoundRect,0.135000X0.135000X0.185000X-0.135000X0.185000X-0.135000X-0.185000X0.135000X-0.185000X0*%
%ADD19R,0.325000X0.300000*%
%ADD20R,2.050000X0.350000*%
%ADD21R,0.850000X0.500000*%
%ADD22Outline5P,-0.375000X0.900000X0.375000X0.900000X0.375000X-0.900000X0.000000X-0.900000X-0.375000X-0.525000X90.000000*%
%ADD23R,1.800000X0.600000*%
%ADD24R,0.900000X1.300000*%
%ADD25Outline5P,-0.375000X0.900000X0.375000X0.900000X0.375000X-0.525000X0.000000X-0.900000X-0.375000X-0.900000X90.000000*%
%ADD26RoundRect,0.225000X-0.250000X0.225000X-0.250000X-0.225000X0.250000X-0.225000X0.250000X0.225000X0*%
%ADD27RoundRect,0.225000X0.250000X-0.225000X0.250000X0.225000X-0.250000X0.225000X-0.250000X-0.225000X0*%
%ADD28R,0.350000X1.900000*%
%ADD29R,1.200000X1.200000*%
%ADD30R,1.500000X1.300000*%
%ADD31R,1.500000X1.400000*%
%ADD32R,0.650000X2.100000*%
%ADD33RoundRect,0.140000X0.170000X-0.140000X0.170000X0.140000X-0.170000X0.140000X-0.170000X-0.140000X0*%
G04 APERTURE END LIST*
D10*
%TO.C,U2*%
X95700000Y-70100000D03*
X95700000Y-71350000D03*
X95700000Y-72600000D03*
X95700000Y-73850000D03*
X95700000Y-75100000D03*
D11*
X97500000Y-76900000D03*
X98750000Y-76900000D03*
X100000000Y-76900000D03*
X101250000Y-76900000D03*
X102500000Y-76900000D03*
D10*
X104300000Y-75100000D03*
X104300000Y-73850000D03*
X104300000Y-72600000D03*
X104300000Y-71350000D03*
X104300000Y-70100000D03*
D11*
X102500000Y-68300000D03*
X101250000Y-68300000D03*
X100000000Y-68300000D03*
X98750000Y-68300000D03*
X97500000Y-68300000D03*
D12*
X101200000Y-73800000D03*
X98800000Y-71400000D03*
X101200000Y-71400000D03*
X98800000Y-73800000D03*
%TD*%
D13*
%TO.C,R4*%
X106400000Y-78010000D03*
X106400000Y-76990000D03*
%TD*%
D14*
%TO.C,C8*%
X106500000Y-69520000D03*
X106500000Y-70480000D03*
%TD*%
D15*
%TO.C,D1*%
X92550000Y-73575000D03*
D16*
X92950000Y-72625000D03*
X92950000Y-71775000D03*
D15*
X92550000Y-70825000D03*
%TD*%
D17*
%TO.C,R3*%
X106400000Y-75110000D03*
X106400000Y-76130000D03*
%TD*%
D18*
%TO.C,R6*%
X103480000Y-66050000D03*
X102460000Y-66050000D03*
%TD*%
%TO.C,R7*%
X97090000Y-66160000D03*
X96070000Y-66160000D03*
%TD*%
D19*
%TO.C,U4*%
X93062500Y-64850000D03*
X93062500Y-65400000D03*
X93062500Y-65950000D03*
X94937500Y-65950000D03*
X94937500Y-65400000D03*
X94937500Y-64850000D03*
D20*
X94000000Y-64150000D03*
X94000000Y-66650000D03*
D21*
X94000000Y-65025000D03*
X94000000Y-65775000D03*
%TD*%
D22*
%TO.C,SW1*%
X105374650Y-66215000D03*
D23*
X105372950Y-64990000D03*
D24*
X107328750Y-63140000D03*
X107328750Y-66840000D03*
D25*
X105374650Y-63765000D03*
%TD*%
D26*
%TO.C,C18*%
X92810000Y-68035000D03*
X92810000Y-69585000D03*
%TD*%
D27*
%TO.C,C17*%
X93500000Y-62775000D03*
X93500000Y-61225000D03*
%TD*%
D28*
%TO.C,J1*%
X97250000Y-63950000D03*
X98750000Y-63950000D03*
X99250000Y-63950000D03*
X99750000Y-63950000D03*
X100250000Y-63950000D03*
X101750000Y-63950000D03*
X102250000Y-63950000D03*
X102750000Y-63950000D03*
X101250000Y-63950000D03*
X100750000Y-63950000D03*
X98250000Y-63950000D03*
X97750000Y-63950000D03*
D29*
X101750000Y-59250000D03*
D30*
X95450000Y-61850000D03*
D29*
X98750000Y-61000000D03*
D31*
X104550000Y-59350000D03*
D32*
X96600000Y-63850000D03*
D29*
X101250000Y-61000000D03*
D32*
X103400000Y-63850000D03*
D31*
X104550000Y-61850000D03*
D29*
X98250000Y-59250000D03*
D31*
X95450000Y-59350000D03*
%TD*%
D33*
%TO.C,C9*%
X93550000Y-76270000D03*
X93550000Y-75310000D03*
%TD*%
M02*
