%TF.GenerationSoftware,KiCad,Pcbnew,5.99.0-unknown-a208dac8d8~131~ubuntu20.04.1*%
%TF.CreationDate,2021-09-06T21:34:52-05:00*%
%TF.ProjectId,minimum,6d696e69-6d75-46d2-9e6b-696361645f70,rev?*%
%TF.SameCoordinates,Original*%
%TF.FileFunction,Copper,L4,Bot*%
%TF.FilePolarity,Positive*%
%FSLAX46Y46*%
G04 Gerber Fmt 4.6, Leading zero omitted, Abs format (unit mm)*
G04 Created by KiCad (PCBNEW 5.99.0-unknown-a208dac8d8~131~ubuntu20.04.1) date 2021-09-06 21:34:52*
%MOMM*%
%LPD*%
G01*
G04 APERTURE LIST*
G04 Aperture macros list*
%AMRoundRect*
0 Rectangle with rounded corners*
0 $1 Rounding radius*
0 $2 $3 $4 $5 $6 $7 $8 $9 X,Y pos of 4 corners*
0 Add a 4 corners polygon primitive as box body*
4,1,4,$2,$3,$4,$5,$6,$7,$8,$9,$2,$3,0*
0 Add four circle primitives for the rounded corners*
1,1,$1+$1,$2,$3*
1,1,$1+$1,$4,$5*
1,1,$1+$1,$6,$7*
1,1,$1+$1,$8,$9*
0 Add four rect primitives between the rounded corners*
20,1,$1+$1,$2,$3,$4,$5,0*
20,1,$1+$1,$4,$5,$6,$7,0*
20,1,$1+$1,$6,$7,$8,$9,0*
20,1,$1+$1,$8,$9,$2,$3,0*%
G04 Aperture macros list end*
%TA.AperFunction,SMDPad,CuDef*%
%ADD10RoundRect,0.050000X0.387500X0.050000X-0.387500X0.050000X-0.387500X-0.050000X0.387500X-0.050000X0*%
%TD*%
%TA.AperFunction,SMDPad,CuDef*%
%ADD11RoundRect,0.050000X0.050000X0.387500X-0.050000X0.387500X-0.050000X-0.387500X0.050000X-0.387500X0*%
%TD*%
%TA.AperFunction,ComponentPad*%
%ADD12C,0.600000*%
%TD*%
%TA.AperFunction,SMDPad,CuDef*%
%ADD13RoundRect,0.144000X1.456000X1.456000X-1.456000X1.456000X-1.456000X-1.456000X1.456000X-1.456000X0*%
%TD*%
%TA.AperFunction,SMDPad,CuDef*%
%ADD14RoundRect,0.140000X-0.140000X-0.170000X0.140000X-0.170000X0.140000X0.170000X-0.140000X0.170000X0*%
%TD*%
%TA.AperFunction,SMDPad,CuDef*%
%ADD15RoundRect,0.140000X0.140000X0.170000X-0.140000X0.170000X-0.140000X-0.170000X0.140000X-0.170000X0*%
%TD*%
%TA.AperFunction,SMDPad,CuDef*%
%ADD16RoundRect,0.135000X0.135000X0.185000X-0.135000X0.185000X-0.135000X-0.185000X0.135000X-0.185000X0*%
%TD*%
%TA.AperFunction,SMDPad,CuDef*%
%ADD17RoundRect,0.140000X0.170000X-0.140000X0.170000X0.140000X-0.170000X0.140000X-0.170000X-0.140000X0*%
%TD*%
%TA.AperFunction,SMDPad,CuDef*%
%ADD18RoundRect,0.135000X-0.185000X0.135000X-0.185000X-0.135000X0.185000X-0.135000X0.185000X0.135000X0*%
%TD*%
%TA.AperFunction,SMDPad,CuDef*%
%ADD19RoundRect,0.140000X-0.170000X0.140000X-0.170000X-0.140000X0.170000X-0.140000X0.170000X0.140000X0*%
%TD*%
%TA.AperFunction,SMDPad,CuDef*%
%ADD20RoundRect,0.135000X0.185000X-0.135000X0.185000X0.135000X-0.185000X0.135000X-0.185000X-0.135000X0*%
%TD*%
%TA.AperFunction,SMDPad,CuDef*%
%ADD21R,0.254000X0.812800*%
%TD*%
%TA.AperFunction,SMDPad,CuDef*%
%ADD22R,1.600200X0.203200*%
%TD*%
%TA.AperFunction,SMDPad,CuDef*%
%ADD23R,1.000000X0.900000*%
%TD*%
%TA.AperFunction,ViaPad*%
%ADD24C,0.600000*%
%TD*%
%TA.AperFunction,Conductor*%
%ADD25C,0.150000*%
%TD*%
%TA.AperFunction,Conductor*%
%ADD26C,0.200000*%
%TD*%
%TA.AperFunction,Conductor*%
%ADD27C,0.218186*%
%TD*%
G04 APERTURE END LIST*
D10*
%TO.P,U1,1,IOVDD*%
%TO.N,+3V3*%
X103437500Y-68650000D03*
%TO.P,U1,2,GPIO0*%
%TO.N,unconnected-(U1-Pad2)*%
X103437500Y-69050000D03*
%TO.P,U1,3,GPIO1*%
%TO.N,unconnected-(U1-Pad3)*%
X103437500Y-69450000D03*
%TO.P,U1,4,GPIO2*%
%TO.N,unconnected-(U1-Pad4)*%
X103437500Y-69850000D03*
%TO.P,U1,5,GPIO3*%
%TO.N,unconnected-(U1-Pad5)*%
X103437500Y-70250000D03*
%TO.P,U1,6,GPIO4*%
%TO.N,unconnected-(U1-Pad6)*%
X103437500Y-70650000D03*
%TO.P,U1,7,GPIO5*%
%TO.N,unconnected-(U1-Pad7)*%
X103437500Y-71050000D03*
%TO.P,U1,8,GPIO6*%
%TO.N,unconnected-(U1-Pad8)*%
X103437500Y-71450000D03*
%TO.P,U1,9,GPIO7*%
%TO.N,unconnected-(U1-Pad9)*%
X103437500Y-71850000D03*
%TO.P,U1,10,IOVDD*%
%TO.N,+3V3*%
X103437500Y-72250000D03*
%TO.P,U1,11,GPIO8*%
%TO.N,unconnected-(U1-Pad11)*%
X103437500Y-72650000D03*
%TO.P,U1,12,GPIO9*%
%TO.N,unconnected-(U1-Pad12)*%
X103437500Y-73050000D03*
%TO.P,U1,13,GPIO10*%
%TO.N,/SDA*%
X103437500Y-73450000D03*
%TO.P,U1,14,GPIO11*%
%TO.N,/SCL*%
X103437500Y-73850000D03*
D11*
%TO.P,U1,15,GPIO12*%
%TO.N,unconnected-(U1-Pad15)*%
X102600000Y-74687500D03*
%TO.P,U1,16,GPIO13*%
%TO.N,unconnected-(U1-Pad16)*%
X102200000Y-74687500D03*
%TO.P,U1,17,GPIO14*%
%TO.N,unconnected-(U1-Pad17)*%
X101800000Y-74687500D03*
%TO.P,U1,18,GPIO15*%
%TO.N,unconnected-(U1-Pad18)*%
X101400000Y-74687500D03*
%TO.P,U1,19,TESTEN*%
%TO.N,GND*%
X101000000Y-74687500D03*
%TO.P,U1,20,XIN*%
%TO.N,/XIN*%
X100600000Y-74687500D03*
%TO.P,U1,21,XOUT*%
%TO.N,/XOUT*%
X100200000Y-74687500D03*
%TO.P,U1,22,IOVDD*%
%TO.N,+3V3*%
X99800000Y-74687500D03*
%TO.P,U1,23,DVDD*%
%TO.N,+1V1*%
X99400000Y-74687500D03*
%TO.P,U1,24,SWCLK*%
%TO.N,unconnected-(U1-Pad24)*%
X99000000Y-74687500D03*
%TO.P,U1,25,SWD*%
%TO.N,unconnected-(U1-Pad25)*%
X98600000Y-74687500D03*
%TO.P,U1,26,RUN*%
%TO.N,/RUN*%
X98200000Y-74687500D03*
%TO.P,U1,27,GPIO16*%
%TO.N,unconnected-(U1-Pad27)*%
X97800000Y-74687500D03*
%TO.P,U1,28,GPIO17*%
%TO.N,unconnected-(U1-Pad28)*%
X97400000Y-74687500D03*
D10*
%TO.P,U1,29,GPIO18*%
%TO.N,unconnected-(U1-Pad29)*%
X96562500Y-73850000D03*
%TO.P,U1,30,GPIO19*%
%TO.N,unconnected-(U1-Pad30)*%
X96562500Y-73450000D03*
%TO.P,U1,31,GPIO20*%
%TO.N,unconnected-(U1-Pad31)*%
X96562500Y-73050000D03*
%TO.P,U1,32,GPIO21*%
%TO.N,/LED_B*%
X96562500Y-72650000D03*
%TO.P,U1,33,IOVDD*%
%TO.N,+3V3*%
X96562500Y-72250000D03*
%TO.P,U1,34,GPIO22*%
%TO.N,/LED_R*%
X96562500Y-71850000D03*
%TO.P,U1,35,GPIO23*%
%TO.N,/LED_G*%
X96562500Y-71450000D03*
%TO.P,U1,36,GPIO24*%
%TO.N,unconnected-(U1-Pad36)*%
X96562500Y-71050000D03*
%TO.P,U1,37,GPIO25*%
%TO.N,unconnected-(U1-Pad37)*%
X96562500Y-70650000D03*
%TO.P,U1,38,GPIO26_ADC0*%
%TO.N,unconnected-(U1-Pad38)*%
X96562500Y-70250000D03*
%TO.P,U1,39,GPIO27_ADC1*%
%TO.N,unconnected-(U1-Pad39)*%
X96562500Y-69850000D03*
%TO.P,U1,40,GPIO28_ADC2*%
%TO.N,unconnected-(U1-Pad40)*%
X96562500Y-69450000D03*
%TO.P,U1,41,GPIO29_ADC3*%
%TO.N,unconnected-(U1-Pad41)*%
X96562500Y-69050000D03*
%TO.P,U1,42,IOVDD*%
%TO.N,+3V3*%
X96562500Y-68650000D03*
D11*
%TO.P,U1,43,ADC_AVDD*%
X97400000Y-67812500D03*
%TO.P,U1,44,VREG_IN*%
X97800000Y-67812500D03*
%TO.P,U1,45,VREG_VOUT*%
%TO.N,+1V1*%
X98200000Y-67812500D03*
%TO.P,U1,46,USB_DM*%
%TO.N,/Pi_USB_D-*%
X98600000Y-67812500D03*
%TO.P,U1,47,USB_DP*%
%TO.N,/Pi_USB_D+*%
X99000000Y-67812500D03*
%TO.P,U1,48,USB_VDD*%
%TO.N,+3V3*%
X99400000Y-67812500D03*
%TO.P,U1,49,IOVDD*%
X99800000Y-67812500D03*
%TO.P,U1,50,DVDD*%
%TO.N,+1V1*%
X100200000Y-67812500D03*
%TO.P,U1,51,QSPI_SD3*%
%TO.N,/QSPI_SD3*%
X100600000Y-67812500D03*
%TO.P,U1,52,QSPI_SCLK*%
%TO.N,/QSPI_SCLK*%
X101000000Y-67812500D03*
%TO.P,U1,53,QSPI_SD0*%
%TO.N,/QSPI_SD0*%
X101400000Y-67812500D03*
%TO.P,U1,54,QSPI_SD2*%
%TO.N,/QSPI_SD2*%
X101800000Y-67812500D03*
%TO.P,U1,55,QSPI_SD1*%
%TO.N,/QSPI_SD1*%
X102200000Y-67812500D03*
%TO.P,U1,56,QSPI_SS*%
%TO.N,/QSPI_SS*%
X102600000Y-67812500D03*
D12*
%TO.P,U1,57,GND*%
%TO.N,GND*%
X98725000Y-72525000D03*
D13*
X100000000Y-71250000D03*
D12*
X100000000Y-72525000D03*
X101275000Y-72525000D03*
X98725000Y-71250000D03*
X100000000Y-69975000D03*
X101275000Y-71250000D03*
X100000000Y-71250000D03*
X101275000Y-69975000D03*
X98725000Y-69975000D03*
%TD*%
D14*
%TO.P,C15,1*%
%TO.N,GND*%
X98120000Y-78400000D03*
%TO.P,C15,2*%
%TO.N,/XOUTc*%
X99080000Y-78400000D03*
%TD*%
D15*
%TO.P,C7,1*%
%TO.N,+3V3*%
X94980000Y-67000000D03*
%TO.P,C7,2*%
%TO.N,GND*%
X94020000Y-67000000D03*
%TD*%
%TO.P,C10,1*%
%TO.N,+3V3*%
X94980000Y-66000000D03*
%TO.P,C10,2*%
%TO.N,GND*%
X94020000Y-66000000D03*
%TD*%
D16*
%TO.P,R10,1*%
%TO.N,/LED_B*%
X94290000Y-74030000D03*
%TO.P,R10,2*%
%TO.N,Net-(D1-Pad1)*%
X93270000Y-74030000D03*
%TD*%
D17*
%TO.P,C11,1*%
%TO.N,+1V1*%
X97300000Y-65500000D03*
%TO.P,C11,2*%
%TO.N,GND*%
X97300000Y-64540000D03*
%TD*%
D18*
%TO.P,R1,1*%
%TO.N,/USB_D+*%
X99290000Y-65490000D03*
%TO.P,R1,2*%
%TO.N,/Pi_USB_D+*%
X99290000Y-66510000D03*
%TD*%
D19*
%TO.P,C14,1*%
%TO.N,GND*%
X103400000Y-76400000D03*
%TO.P,C14,2*%
%TO.N,/XIN*%
X103400000Y-77360000D03*
%TD*%
D15*
%TO.P,C1,1*%
%TO.N,+3V3*%
X95080000Y-68600000D03*
%TO.P,C1,2*%
%TO.N,GND*%
X94120000Y-68600000D03*
%TD*%
D20*
%TO.P,R5,1*%
%TO.N,/XOUTc*%
X99010000Y-77440000D03*
%TO.P,R5,2*%
%TO.N,/XOUT*%
X99010000Y-76420000D03*
%TD*%
D21*
%TO.P,U3,1,CS*%
%TO.N,/QSPI_SS*%
X102249999Y-62101600D03*
%TO.P,U3,2,DO_IO1*%
%TO.N,/QSPI_SD1*%
X102750000Y-62101600D03*
%TO.P,U3,3,IO2*%
%TO.N,/QSPI_SD2*%
X103250000Y-62101600D03*
%TO.P,U3,4,GND*%
%TO.N,GND*%
X103750001Y-62101600D03*
%TO.P,U3,5,DI_IO0*%
%TO.N,/QSPI_SD0*%
X103750001Y-64898400D03*
%TO.P,U3,6,CLK*%
%TO.N,/QSPI_SCLK*%
X103250000Y-64898400D03*
%TO.P,U3,7,IO3*%
%TO.N,/QSPI_SD3*%
X102750000Y-64898400D03*
%TO.P,U3,8,VCC*%
%TO.N,+3V3*%
X102249999Y-64898400D03*
D22*
%TO.P,U3,9*%
%TO.N,N/C*%
X103000000Y-63500000D03*
%TD*%
D17*
%TO.P,C12,1*%
%TO.N,+1V1*%
X101230000Y-65320000D03*
%TO.P,C12,2*%
%TO.N,GND*%
X101230000Y-64360000D03*
%TD*%
D15*
%TO.P,C2,1*%
%TO.N,+3V3*%
X94210000Y-72750000D03*
%TO.P,C2,2*%
%TO.N,GND*%
X93250000Y-72750000D03*
%TD*%
D14*
%TO.P,C3,1*%
%TO.N,+3V3*%
X104720000Y-68600000D03*
%TO.P,C3,2*%
%TO.N,GND*%
X105680000Y-68600000D03*
%TD*%
%TO.P,C4,1*%
%TO.N,+3V3*%
X104720000Y-72400000D03*
%TO.P,C4,2*%
%TO.N,GND*%
X105680000Y-72400000D03*
%TD*%
D20*
%TO.P,R2,1*%
%TO.N,/Pi_USB_D-*%
X98290000Y-66510000D03*
%TO.P,R2,2*%
%TO.N,/USB_D-*%
X98290000Y-65490000D03*
%TD*%
D15*
%TO.P,C13,1*%
%TO.N,+1V1*%
X97680000Y-76400000D03*
%TO.P,C13,2*%
%TO.N,GND*%
X96720000Y-76400000D03*
%TD*%
D14*
%TO.P,C16,1*%
%TO.N,+3V3*%
X102290000Y-60280000D03*
%TO.P,C16,2*%
%TO.N,GND*%
X103250000Y-60280000D03*
%TD*%
D16*
%TO.P,R9,1*%
%TO.N,/LED_G*%
X94290000Y-70510000D03*
%TO.P,R9,2*%
%TO.N,Net-(D1-Pad4)*%
X93270000Y-70510000D03*
%TD*%
D23*
%TO.P,Y1,1,1*%
%TO.N,/XOUTc*%
X100375000Y-76587500D03*
%TO.P,Y1,2,2*%
%TO.N,GND*%
X102025000Y-76587500D03*
%TO.P,Y1,3,3*%
%TO.N,/XIN*%
X102025000Y-77812500D03*
%TO.P,Y1,4,4*%
%TO.N,GND*%
X100375000Y-77812500D03*
%TD*%
D17*
%TO.P,C6,1*%
%TO.N,+3V3*%
X100270000Y-65320000D03*
%TO.P,C6,2*%
%TO.N,GND*%
X100270000Y-64360000D03*
%TD*%
D15*
%TO.P,C5,1*%
%TO.N,+3V3*%
X97680000Y-77400000D03*
%TO.P,C5,2*%
%TO.N,GND*%
X96720000Y-77400000D03*
%TD*%
D16*
%TO.P,R8,1*%
%TO.N,/LED_R*%
X94290000Y-71470000D03*
%TO.P,R8,2*%
%TO.N,Net-(D1-Pad3)*%
X93270000Y-71470000D03*
%TD*%
D24*
%TO.N,+3V3*%
X105870000Y-75040000D03*
X94500000Y-72290000D03*
X95000000Y-69200000D03*
X107000000Y-69000000D03*
X106400000Y-78650000D03*
X105509368Y-71640816D03*
X103032947Y-59524975D03*
X93540000Y-76810000D03*
X96861995Y-78310888D03*
X95660000Y-67600000D03*
X93000000Y-67000000D03*
X104740000Y-68109011D03*
X100743233Y-65957329D03*
%TO.N,GND*%
X103980000Y-60600000D03*
X94224578Y-69052584D03*
X104310000Y-77090000D03*
X100700498Y-59280000D03*
X96140000Y-76890000D03*
X97255295Y-62495112D03*
X106200000Y-72400000D03*
X106200000Y-68600000D03*
X96850500Y-68019863D03*
X92607820Y-65386478D03*
%TO.N,/QSPI_SD1*%
X103183831Y-61244693D03*
X103699636Y-66925692D03*
%TO.N,/QSPI_SS*%
X102434500Y-61228683D03*
X103361820Y-67829542D03*
%TO.N,/USB_D+*%
X99625000Y-62504836D03*
%TO.N,/USB_D-*%
X100375000Y-62504836D03*
%TO.N,/SCL*%
X103010011Y-75604095D03*
%TO.N,/SDA*%
X104228806Y-76299011D03*
%TO.N,Net-(D1-Pad3)*%
X93428915Y-72013154D03*
%TO.N,Net-(D1-Pad4)*%
X93848539Y-69700927D03*
%TO.N,Net-(D1-Pad1)*%
X93240000Y-73550000D03*
%TD*%
D25*
%TO.N,+1V1*%
X100200000Y-69360000D02*
X100200000Y-67812500D01*
D26*
X99180000Y-75390000D02*
X98370000Y-75390000D01*
D25*
X101267734Y-65357734D02*
X101267734Y-66192266D01*
D26*
X99400000Y-75170000D02*
X99180000Y-75390000D01*
D25*
X98510000Y-69380000D02*
X100180000Y-69380000D01*
X101042743Y-66420829D02*
X100200000Y-67263572D01*
D26*
X98200000Y-68910000D02*
X97850000Y-69260000D01*
D25*
X98200000Y-69070000D02*
X98510000Y-69380000D01*
D26*
X99400000Y-74225030D02*
X99400000Y-74687500D01*
X98370000Y-75390000D02*
X97680000Y-76080000D01*
D25*
X101267734Y-66192266D02*
X101042744Y-66417256D01*
D26*
X98804970Y-73630000D02*
X99400000Y-74225030D01*
D25*
X97620000Y-67130000D02*
X97300000Y-66810000D01*
D26*
X99400000Y-74687500D02*
X99400000Y-75170000D01*
X97850000Y-73250000D02*
X98210000Y-73610000D01*
X98210000Y-73630000D02*
X98804970Y-73630000D01*
D25*
X101042744Y-66417256D02*
X101042743Y-66420829D01*
D26*
X98200000Y-67812500D02*
X98200000Y-68500000D01*
X97850000Y-69260000D02*
X97850000Y-73250000D01*
D25*
X97300000Y-66810000D02*
X97300000Y-65500000D01*
D26*
X98200000Y-68500000D02*
X98200000Y-68910000D01*
D25*
X98200000Y-67812500D02*
X98200000Y-67375000D01*
X98200000Y-67375000D02*
X97955000Y-67130000D01*
X98200000Y-68500000D02*
X98200000Y-69070000D01*
X100180000Y-69380000D02*
X100200000Y-69360000D01*
D26*
X98210000Y-73610000D02*
X98210000Y-73630000D01*
D25*
X100200000Y-67263572D02*
X100200000Y-67812500D01*
X97955000Y-67130000D02*
X97620000Y-67130000D01*
D26*
X97680000Y-76080000D02*
X97680000Y-76400000D01*
%TO.N,+3V3*%
X94980000Y-66000000D02*
X94980000Y-67000000D01*
D25*
X99800000Y-67240000D02*
X99800000Y-67812500D01*
X100270000Y-65484096D02*
X100743233Y-65957329D01*
D26*
X104720000Y-68600000D02*
X104720000Y-68129011D01*
X97400000Y-67812500D02*
X97400000Y-67448928D01*
D25*
X102249999Y-64116427D02*
X101898488Y-63764916D01*
D26*
X103437500Y-68650000D02*
X104670000Y-68650000D01*
X104720000Y-68129011D02*
X104740000Y-68109011D01*
X97800000Y-67812500D02*
X97400000Y-67812500D01*
D25*
X100743233Y-66296767D02*
X99800000Y-67240000D01*
D26*
X103437500Y-72250000D02*
X104570000Y-72250000D01*
X97680000Y-77400000D02*
X98259520Y-76820480D01*
X102290000Y-60267922D02*
X103032947Y-59524975D01*
X98514773Y-75739511D02*
X99324773Y-75739511D01*
X95080000Y-68600000D02*
X95080000Y-69120000D01*
X99324773Y-75739511D02*
X99800000Y-75264284D01*
X97400000Y-67448928D02*
X96951072Y-67000000D01*
X97680000Y-77492883D02*
X96861995Y-78310888D01*
D25*
X102249999Y-64898400D02*
X102249999Y-64116427D01*
D26*
X104750184Y-72400000D02*
X105509368Y-71640816D01*
X94210000Y-72580000D02*
X94500000Y-72290000D01*
D25*
X100743233Y-65957329D02*
X100743233Y-66296767D01*
D26*
X96562500Y-72250000D02*
X94540000Y-72250000D01*
X99800000Y-75264284D02*
X99800000Y-74687500D01*
X96951072Y-67000000D02*
X94980000Y-67000000D01*
X95580000Y-67600000D02*
X94980000Y-67000000D01*
X99400000Y-67812500D02*
X99800000Y-67812500D01*
D25*
X101898488Y-63764916D02*
X101898488Y-60671512D01*
D26*
X94210000Y-72750000D02*
X94210000Y-72580000D01*
X98259520Y-76820480D02*
X98259520Y-75994764D01*
X95080000Y-69120000D02*
X95000000Y-69200000D01*
X94540000Y-72250000D02*
X94500000Y-72290000D01*
X96562500Y-68650000D02*
X95130000Y-68650000D01*
X95660000Y-67600000D02*
X95580000Y-67600000D01*
X98259520Y-75994764D02*
X98514773Y-75739511D01*
D25*
X101898488Y-60671512D02*
X102290000Y-60280000D01*
D26*
%TO.N,GND*%
X96720000Y-76890000D02*
X96140000Y-76890000D01*
X101000000Y-74687500D02*
X101000000Y-75220682D01*
X94120000Y-68948006D02*
X94224578Y-69052584D01*
D25*
X101230000Y-64260000D02*
X101570000Y-63920000D01*
D26*
X103212500Y-76587500D02*
X103400000Y-76400000D01*
X96720000Y-76400000D02*
X96720000Y-76890000D01*
D25*
X101570000Y-60149502D02*
X100700498Y-59280000D01*
D26*
X101000000Y-74687500D02*
X101000000Y-72800000D01*
D25*
X101230000Y-64360000D02*
X101230000Y-64260000D01*
D26*
X103750001Y-60829999D02*
X103980000Y-60600000D01*
X103400000Y-76400000D02*
X104090000Y-77090000D01*
D25*
X101570000Y-63920000D02*
X101570000Y-60149502D01*
D26*
X105680000Y-68600000D02*
X106200000Y-68600000D01*
X103250000Y-60280000D02*
X103660000Y-60280000D01*
X102025000Y-76587500D02*
X103212500Y-76587500D01*
X100290000Y-64420000D02*
X101260000Y-64420000D01*
X101000000Y-72800000D02*
X101275000Y-72525000D01*
X104090000Y-77090000D02*
X104310000Y-77090000D01*
D25*
X94020000Y-66000000D02*
X94020000Y-67000000D01*
D26*
X94120000Y-68600000D02*
X94120000Y-68948006D01*
X103750001Y-62101600D02*
X103750001Y-60829999D01*
X101000000Y-75220682D02*
X102025000Y-76245682D01*
X103660000Y-60280000D02*
X103980000Y-60600000D01*
X96720000Y-77400000D02*
X96720000Y-76890000D01*
X105680000Y-72400000D02*
X106200000Y-72400000D01*
D25*
%TO.N,/QSPI_SD3*%
X101318512Y-66567746D02*
X101979472Y-65906786D01*
X101979472Y-65906786D02*
X102623214Y-65906786D01*
X101318512Y-66571757D02*
X101318512Y-66567746D01*
X102623214Y-65906786D02*
X102750000Y-65780000D01*
X100600000Y-67290269D02*
X101318512Y-66571757D01*
X102750000Y-65780000D02*
X102750000Y-64898400D01*
X100600000Y-67812500D02*
X100600000Y-67290269D01*
%TO.N,/QSPI_SCLK*%
X101000000Y-67812500D02*
X101000000Y-67313841D01*
X101000000Y-67313841D02*
X102095269Y-66218572D01*
X103250000Y-65720000D02*
X103250000Y-64898400D01*
X102751428Y-66218572D02*
X103250000Y-65720000D01*
X102095269Y-66218572D02*
X102751428Y-66218572D01*
%TO.N,/QSPI_SD0*%
X103750001Y-64898400D02*
X103750001Y-65649999D01*
X102182185Y-66578531D02*
X102159709Y-66578531D01*
X102182188Y-66578528D02*
X102182185Y-66578531D01*
X102182194Y-66578528D02*
X102182188Y-66578528D01*
X102880880Y-66519120D02*
X102241598Y-66519120D01*
X103750001Y-65649999D02*
X102880880Y-66519120D01*
X102159709Y-66578531D02*
X101400000Y-67338240D01*
X102241598Y-66519120D02*
X102182194Y-66578528D01*
X101400000Y-67338240D02*
X101400000Y-67812500D01*
%TO.N,/QSPI_SD2*%
X102364786Y-66819510D02*
X103044062Y-66819510D01*
X104150000Y-63299278D02*
X103940722Y-63090000D01*
X103250000Y-62658000D02*
X103250000Y-62101600D01*
X103940722Y-63090000D02*
X103682000Y-63090000D01*
X102306266Y-66878034D02*
X102364786Y-66819510D01*
X101800000Y-67361812D02*
X102283778Y-66878034D01*
X102283778Y-66878034D02*
X102306266Y-66878034D01*
X104150000Y-65713572D02*
X104150000Y-63299278D01*
X101800000Y-67812500D02*
X101800000Y-67361812D01*
X103682000Y-63090000D02*
X103250000Y-62658000D01*
X103044062Y-66819510D02*
X104150000Y-65713572D01*
%TO.N,/QSPI_SD1*%
X102200000Y-67812500D02*
X102200000Y-67385384D01*
X102750000Y-62101600D02*
X102750000Y-61678524D01*
X103474848Y-67150480D02*
X103699636Y-66925692D01*
X102200000Y-67385384D02*
X102434904Y-67150480D01*
X102750000Y-61678524D02*
X103183831Y-61244693D01*
X102434904Y-67150480D02*
X103474848Y-67150480D01*
%TO.N,/QSPI_SS*%
X103344778Y-67812500D02*
X103361820Y-67829542D01*
X102600000Y-67812500D02*
X103344778Y-67812500D01*
X102249999Y-61413184D02*
X102434500Y-61228683D01*
X102249999Y-62101600D02*
X102249999Y-61413184D01*
D27*
%TO.N,/USB_D+*%
X99145337Y-64599546D02*
X99145336Y-64599546D01*
X99106255Y-61214093D02*
X98674093Y-61646255D01*
X98890000Y-62378186D02*
X98858186Y-62378186D01*
X98674093Y-63023745D02*
X98974093Y-63323745D01*
X99145336Y-64231360D02*
X99145337Y-64231360D01*
X99316580Y-63666231D02*
X99316580Y-63691931D01*
X99316580Y-64402603D02*
X99316580Y-64428303D01*
X98974093Y-64034417D02*
X98974093Y-64060117D01*
X98674093Y-61646255D02*
X98674093Y-61825907D01*
X99815907Y-62313929D02*
X99625000Y-62504836D01*
X99815907Y-62313929D02*
X99815907Y-61646255D01*
X99145337Y-63863174D02*
X99145336Y-63863174D01*
X98674093Y-62612279D02*
X98674093Y-63023745D01*
X98974093Y-65174093D02*
X99290000Y-65490000D01*
X98674093Y-62562279D02*
X98674093Y-62612279D01*
X98858186Y-62010000D02*
X98890000Y-62010000D01*
X99383745Y-61214093D02*
X99106255Y-61214093D01*
X99145336Y-63494988D02*
X99145337Y-63494988D01*
X98974093Y-64770789D02*
X98974093Y-64796489D01*
X99815907Y-61646255D02*
X99383745Y-61214093D01*
X98974093Y-64796489D02*
X98974093Y-65174093D01*
X99145336Y-63494988D02*
G75*
G02*
X98974093Y-63323745I0J171243D01*
G01*
X98890000Y-62378186D02*
G75*
G03*
X99074093Y-62194093I-1J184094D01*
G01*
X99316580Y-63666231D02*
G75*
G03*
X99145337Y-63494988I-171243J0D01*
G01*
X99145336Y-64231360D02*
G75*
G02*
X98974093Y-64060117I0J171243D01*
G01*
X98674093Y-62562279D02*
G75*
G02*
X98858186Y-62378186I184094J-1D01*
G01*
X98858186Y-62010000D02*
G75*
G02*
X98674093Y-61825907I1J184094D01*
G01*
X98974093Y-64034417D02*
G75*
G02*
X99145336Y-63863174I171243J0D01*
G01*
X99316580Y-64402603D02*
G75*
G03*
X99145337Y-64231360I-171243J0D01*
G01*
X99145337Y-64599546D02*
G75*
G03*
X99316580Y-64428303I0J171243D01*
G01*
X99074093Y-62194093D02*
G75*
G03*
X98890000Y-62010000I-184094J-1D01*
G01*
X99145337Y-63863174D02*
G75*
G03*
X99316580Y-63691931I0J171243D01*
G01*
X98974093Y-64770789D02*
G75*
G02*
X99145336Y-64599546I171243J0D01*
G01*
%TO.N,/USB_D-*%
X99536255Y-60845907D02*
X98953745Y-60845907D01*
X100184093Y-61493745D02*
X99536255Y-60845907D01*
X98605907Y-63476255D02*
X98605907Y-65174093D01*
X100184093Y-62313929D02*
X100375000Y-62504836D01*
X100184093Y-62313929D02*
X100184093Y-61493745D01*
X98305907Y-61493745D02*
X98305907Y-63176255D01*
X98953745Y-60845907D02*
X98305907Y-61493745D01*
X98305907Y-63176255D02*
X98605907Y-63476255D01*
X98605907Y-65174093D02*
X98290000Y-65490000D01*
D26*
%TO.N,/XIN*%
X100600000Y-75385676D02*
X101200000Y-75985676D01*
X101200000Y-77687500D02*
X101325000Y-77812500D01*
X102477500Y-77360000D02*
X102025000Y-77812500D01*
X103400000Y-77360000D02*
X102477500Y-77360000D01*
X101325000Y-77812500D02*
X102025000Y-77812500D01*
X101200000Y-75985676D02*
X101200000Y-77687500D01*
X100600000Y-74687500D02*
X100600000Y-75385676D01*
%TO.N,/XOUT*%
X100200000Y-75430000D02*
X99210000Y-76420000D01*
X100200000Y-74687500D02*
X100200000Y-75430000D01*
%TO.N,/XOUTc*%
X99010000Y-77440000D02*
X99010000Y-78330000D01*
X99862500Y-76587500D02*
X100375000Y-76587500D01*
X99010000Y-77440000D02*
X99862500Y-76587500D01*
%TO.N,/SCL*%
X103437500Y-73850000D02*
X103437500Y-75176606D01*
X103437500Y-75176606D02*
X103010011Y-75604095D01*
%TO.N,/SDA*%
X103437500Y-73450000D02*
X103899970Y-73450000D01*
X103899970Y-73450000D02*
X104228806Y-73778836D01*
X104228806Y-73778836D02*
X104228806Y-76299011D01*
D27*
%TO.N,/Pi_USB_D+*%
X99290000Y-66510000D02*
X98974093Y-66825907D01*
D26*
X99000000Y-67268129D02*
X98974093Y-67242222D01*
X99000000Y-67812500D02*
X99000000Y-67268129D01*
D27*
X98974093Y-66825907D02*
X98974093Y-67242222D01*
D26*
%TO.N,/Pi_USB_D-*%
X98600000Y-67248129D02*
X98605907Y-67242222D01*
D27*
X98290000Y-66510000D02*
X98605907Y-66825907D01*
X98605907Y-66825907D02*
X98605907Y-67242222D01*
D26*
X98600000Y-67812500D02*
X98600000Y-67248129D01*
%TO.N,Net-(D1-Pad3)*%
X93270000Y-71854239D02*
X93428915Y-72013154D01*
X93270000Y-71520000D02*
X93270000Y-71854239D01*
D25*
%TO.N,Net-(D1-Pad4)*%
X93848539Y-69931461D02*
X93270000Y-70510000D01*
X93848539Y-69700927D02*
X93848539Y-69931461D01*
D26*
%TO.N,Net-(D1-Pad1)*%
X93270000Y-74030000D02*
X93270000Y-73580000D01*
X93270000Y-73580000D02*
X93240000Y-73550000D01*
D25*
%TO.N,/LED_R*%
X94290000Y-71470000D02*
X95040000Y-71470000D01*
X95420000Y-71850000D02*
X96562500Y-71850000D01*
X95040000Y-71470000D02*
X95420000Y-71850000D01*
%TO.N,/LED_G*%
X94503572Y-70510000D02*
X94290000Y-70510000D01*
X95443572Y-71450000D02*
X94503572Y-70510000D01*
X96562500Y-71450000D02*
X95443572Y-71450000D01*
%TO.N,/LED_B*%
X95950000Y-72650000D02*
X96562500Y-72650000D01*
X94290000Y-74030000D02*
X94570000Y-74030000D01*
X94570000Y-74030000D02*
X95950000Y-72650000D01*
%TD*%
%TA.AperFunction,Conductor*%
%TO.N,GND*%
G36*
X103959191Y-58218907D02*
G01*
X103995155Y-58268407D01*
X104000000Y-58299000D01*
X104000000Y-59726262D01*
X103981093Y-59784453D01*
X103931593Y-59820417D01*
X103870407Y-59820417D01*
X103822143Y-59786117D01*
X103779510Y-59729950D01*
X103770050Y-59720490D01*
X103662955Y-59639201D01*
X103651305Y-59632637D01*
X103600778Y-59612632D01*
X103553634Y-59573631D01*
X103538564Y-59527425D01*
X103538594Y-59524975D01*
X103518270Y-59383057D01*
X103458931Y-59252547D01*
X103365347Y-59143938D01*
X103245042Y-59065960D01*
X103107686Y-59024882D01*
X103024444Y-59024373D01*
X102971374Y-59024049D01*
X102971373Y-59024049D01*
X102964323Y-59024006D01*
X102957546Y-59025943D01*
X102957545Y-59025943D01*
X102833256Y-59061465D01*
X102833254Y-59061466D01*
X102826476Y-59063403D01*
X102705227Y-59139905D01*
X102700560Y-59145189D01*
X102700558Y-59145191D01*
X102614991Y-59242078D01*
X102614989Y-59242080D01*
X102610324Y-59247363D01*
X102549394Y-59377138D01*
X102548309Y-59384107D01*
X102548308Y-59384110D01*
X102538912Y-59444458D01*
X102527338Y-59518798D01*
X102528253Y-59525796D01*
X102531054Y-59547216D01*
X102519852Y-59607367D01*
X102502894Y-59630056D01*
X102392446Y-59740504D01*
X102337929Y-59768281D01*
X102322442Y-59769500D01*
X102128662Y-59769501D01*
X102110100Y-59769501D01*
X102106890Y-59769924D01*
X102106883Y-59769924D01*
X102068025Y-59775039D01*
X102068024Y-59775039D01*
X102060513Y-59776028D01*
X102012466Y-59798433D01*
X101959534Y-59823115D01*
X101959532Y-59823116D01*
X101951684Y-59826776D01*
X101866776Y-59911684D01*
X101863116Y-59919532D01*
X101863115Y-59919534D01*
X101837799Y-59973825D01*
X101816028Y-60020513D01*
X101809500Y-60070099D01*
X101809501Y-60214683D01*
X101809501Y-60329875D01*
X101790594Y-60388065D01*
X101780505Y-60399879D01*
X101729757Y-60450627D01*
X101714755Y-60462938D01*
X101699864Y-60472888D01*
X101684495Y-60495889D01*
X101684494Y-60495890D01*
X101681270Y-60500715D01*
X101638973Y-60564017D01*
X101637071Y-60573580D01*
X101637070Y-60573582D01*
X101633947Y-60589284D01*
X101621193Y-60653401D01*
X101591296Y-60706785D01*
X101535731Y-60732401D01*
X101475721Y-60720464D01*
X101454091Y-60704091D01*
X100250000Y-59500000D01*
X98000000Y-59500000D01*
X97250000Y-60250000D01*
X97250000Y-63761000D01*
X97231093Y-63819191D01*
X97181593Y-63855155D01*
X97151000Y-63860000D01*
X97091034Y-63860000D01*
X97085080Y-63860359D01*
X97006295Y-63869893D01*
X96994067Y-63872999D01*
X96868695Y-63922637D01*
X96857045Y-63929201D01*
X96749950Y-64010490D01*
X96740490Y-64019950D01*
X96659201Y-64127045D01*
X96652637Y-64138695D01*
X96602998Y-64264068D01*
X96599893Y-64276295D01*
X96594068Y-64324432D01*
X96596636Y-64337522D01*
X96598156Y-64338934D01*
X96602984Y-64340000D01*
X97151000Y-64340000D01*
X97209191Y-64358907D01*
X97245155Y-64408407D01*
X97250000Y-64439000D01*
X97250000Y-64641000D01*
X97231093Y-64699191D01*
X97181593Y-64735155D01*
X97151000Y-64740000D01*
X96607864Y-64740000D01*
X96595179Y-64744122D01*
X96593959Y-64745800D01*
X96593481Y-64750720D01*
X96599893Y-64803705D01*
X96602998Y-64815932D01*
X96652637Y-64941305D01*
X96659201Y-64952955D01*
X96740490Y-65060050D01*
X96749955Y-65069515D01*
X96789580Y-65099592D01*
X96824500Y-65149834D01*
X96823218Y-65211006D01*
X96819453Y-65220278D01*
X96796028Y-65270513D01*
X96789500Y-65320099D01*
X96789501Y-65679900D01*
X96789924Y-65683110D01*
X96789924Y-65683117D01*
X96792975Y-65706295D01*
X96796028Y-65729487D01*
X96814411Y-65768909D01*
X96842512Y-65829171D01*
X96846776Y-65838316D01*
X96931684Y-65923224D01*
X96967342Y-65939852D01*
X97012087Y-65981577D01*
X97024500Y-66029574D01*
X97024500Y-66600260D01*
X97005593Y-66658451D01*
X96956093Y-66694415D01*
X96938839Y-66698357D01*
X96937074Y-66698597D01*
X96923735Y-66699500D01*
X95497917Y-66699500D01*
X95439726Y-66680593D01*
X95408191Y-66642336D01*
X95406884Y-66639533D01*
X95403224Y-66631684D01*
X95341544Y-66570004D01*
X95313767Y-66515487D01*
X95323338Y-66455055D01*
X95341544Y-66429996D01*
X95403224Y-66368316D01*
X95453972Y-66259487D01*
X95460500Y-66209901D01*
X95460499Y-65790100D01*
X95459877Y-65785370D01*
X95454961Y-65748025D01*
X95454961Y-65748024D01*
X95453972Y-65740513D01*
X95403224Y-65631684D01*
X95318316Y-65546776D01*
X95310468Y-65543116D01*
X95310466Y-65543115D01*
X95216356Y-65499231D01*
X95209487Y-65496028D01*
X95159901Y-65489500D01*
X94980028Y-65489500D01*
X94800100Y-65489501D01*
X94796890Y-65489924D01*
X94796883Y-65489924D01*
X94758025Y-65495039D01*
X94758024Y-65495039D01*
X94750513Y-65496028D01*
X94700286Y-65519449D01*
X94639558Y-65526906D01*
X94586044Y-65497243D01*
X94579592Y-65489580D01*
X94549515Y-65449955D01*
X94540050Y-65440490D01*
X94432955Y-65359201D01*
X94421305Y-65352637D01*
X94295932Y-65302998D01*
X94283705Y-65299893D01*
X94235568Y-65294068D01*
X94222478Y-65296636D01*
X94221066Y-65298156D01*
X94220000Y-65302984D01*
X94220000Y-67101000D01*
X94201093Y-67159191D01*
X94151593Y-67195155D01*
X94121000Y-67200000D01*
X93919000Y-67200000D01*
X93860809Y-67181093D01*
X93824845Y-67131593D01*
X93820000Y-67101000D01*
X93820000Y-66215680D01*
X93815878Y-66202995D01*
X93811757Y-66200000D01*
X93355680Y-66200000D01*
X93342995Y-66204122D01*
X93340000Y-66208243D01*
X93340000Y-66208966D01*
X93340359Y-66214920D01*
X93349893Y-66293705D01*
X93352999Y-66305933D01*
X93402635Y-66431302D01*
X93412137Y-66448165D01*
X93424230Y-66508144D01*
X93398759Y-66563776D01*
X93345453Y-66593811D01*
X93284673Y-66586778D01*
X93272039Y-66579839D01*
X93261537Y-66573032D01*
X93212095Y-66540985D01*
X93074739Y-66499907D01*
X92991497Y-66499398D01*
X92938427Y-66499074D01*
X92938426Y-66499074D01*
X92931376Y-66499031D01*
X92924599Y-66500968D01*
X92924598Y-66500968D01*
X92800309Y-66536490D01*
X92800307Y-66536491D01*
X92793529Y-66538428D01*
X92672280Y-66614930D01*
X92667613Y-66620214D01*
X92667611Y-66620216D01*
X92582044Y-66717103D01*
X92582042Y-66717105D01*
X92577377Y-66722388D01*
X92516447Y-66852163D01*
X92515362Y-66859132D01*
X92515361Y-66859135D01*
X92500897Y-66952039D01*
X92494391Y-66993823D01*
X92495306Y-67000820D01*
X92495306Y-67000821D01*
X92512031Y-67128723D01*
X92512980Y-67135979D01*
X92515821Y-67142435D01*
X92515821Y-67142436D01*
X92566979Y-67258700D01*
X92570720Y-67267203D01*
X92580377Y-67278691D01*
X92658431Y-67371549D01*
X92658434Y-67371551D01*
X92662970Y-67376948D01*
X92782313Y-67456390D01*
X92882920Y-67487821D01*
X92912425Y-67497039D01*
X92912426Y-67497039D01*
X92919157Y-67499142D01*
X92990828Y-67500456D01*
X93055445Y-67501641D01*
X93055447Y-67501641D01*
X93062499Y-67501770D01*
X93069302Y-67499915D01*
X93069304Y-67499915D01*
X93158856Y-67475500D01*
X93200817Y-67464060D01*
X93277452Y-67417006D01*
X93336934Y-67402670D01*
X93393483Y-67426036D01*
X93408110Y-67441517D01*
X93490490Y-67550050D01*
X93499950Y-67559510D01*
X93607045Y-67640799D01*
X93618695Y-67647363D01*
X93744067Y-67697001D01*
X93756296Y-67700107D01*
X93830370Y-67709071D01*
X93885868Y-67734832D01*
X93915625Y-67788294D01*
X93908274Y-67849036D01*
X93866624Y-67893857D01*
X93849918Y-67900498D01*
X93849981Y-67900657D01*
X93718695Y-67952637D01*
X93707045Y-67959201D01*
X93599950Y-68040490D01*
X93590490Y-68049950D01*
X93509201Y-68157045D01*
X93502637Y-68168695D01*
X93452999Y-68294067D01*
X93449893Y-68306295D01*
X93440359Y-68385080D01*
X93440341Y-68385370D01*
X93444122Y-68397005D01*
X93448243Y-68400000D01*
X94221000Y-68400000D01*
X94279191Y-68418907D01*
X94315155Y-68468407D01*
X94320000Y-68499000D01*
X94320000Y-68701000D01*
X94301093Y-68759191D01*
X94251593Y-68795155D01*
X94221000Y-68800000D01*
X93455680Y-68800000D01*
X93442995Y-68804122D01*
X93440000Y-68808243D01*
X93440000Y-68808966D01*
X93440359Y-68814920D01*
X93449893Y-68893705D01*
X93452999Y-68905933D01*
X93502637Y-69031305D01*
X93509201Y-69042955D01*
X93587764Y-69146459D01*
X93607885Y-69204241D01*
X93590201Y-69262815D01*
X93561735Y-69290041D01*
X93535619Y-69306519D01*
X93520819Y-69315857D01*
X93516152Y-69321141D01*
X93516150Y-69321143D01*
X93430583Y-69418030D01*
X93430581Y-69418032D01*
X93425916Y-69423315D01*
X93364986Y-69553090D01*
X93363901Y-69560059D01*
X93363900Y-69560062D01*
X93351530Y-69639515D01*
X93342930Y-69694750D01*
X93343845Y-69701747D01*
X93343845Y-69701748D01*
X93354102Y-69780184D01*
X93361519Y-69836906D01*
X93364360Y-69843363D01*
X93364361Y-69843366D01*
X93367556Y-69850627D01*
X93373687Y-69911505D01*
X93342864Y-69964359D01*
X93286861Y-69989002D01*
X93276941Y-69989500D01*
X93095684Y-69989500D01*
X93046827Y-69995932D01*
X93039959Y-69999135D01*
X93039958Y-69999135D01*
X92947446Y-70042274D01*
X92947444Y-70042275D01*
X92939596Y-70045935D01*
X92855935Y-70129596D01*
X92852275Y-70137444D01*
X92852274Y-70137446D01*
X92832345Y-70180184D01*
X92805932Y-70236827D01*
X92799500Y-70285684D01*
X92799500Y-70734316D01*
X92805932Y-70783173D01*
X92809135Y-70790041D01*
X92809135Y-70790042D01*
X92847871Y-70873110D01*
X92855935Y-70890404D01*
X92885527Y-70919996D01*
X92913304Y-70974513D01*
X92903733Y-71034945D01*
X92885527Y-71060004D01*
X92855935Y-71089596D01*
X92852276Y-71097443D01*
X92852274Y-71097446D01*
X92809135Y-71189958D01*
X92805932Y-71196827D01*
X92799500Y-71245684D01*
X92799500Y-71694316D01*
X92805932Y-71743173D01*
X92809135Y-71750041D01*
X92809135Y-71750042D01*
X92847118Y-71831495D01*
X92855935Y-71850404D01*
X92899770Y-71894239D01*
X92927547Y-71948756D01*
X92927588Y-71979472D01*
X92923306Y-72006977D01*
X92923553Y-72008863D01*
X92904693Y-72064580D01*
X92861761Y-72097463D01*
X92848695Y-72102636D01*
X92837045Y-72109201D01*
X92729950Y-72190490D01*
X92720490Y-72199950D01*
X92639201Y-72307045D01*
X92632637Y-72318695D01*
X92582999Y-72444067D01*
X92579893Y-72456295D01*
X92570359Y-72535080D01*
X92570341Y-72535370D01*
X92574122Y-72547005D01*
X92578243Y-72550000D01*
X93351000Y-72550000D01*
X93409191Y-72568907D01*
X93445155Y-72618407D01*
X93450000Y-72649000D01*
X93450000Y-72851000D01*
X93431093Y-72909191D01*
X93381593Y-72945155D01*
X93351000Y-72950000D01*
X92585680Y-72950000D01*
X92572995Y-72954122D01*
X92570000Y-72958243D01*
X92570000Y-72958966D01*
X92570359Y-72964920D01*
X92579893Y-73043705D01*
X92582999Y-73055933D01*
X92632637Y-73181305D01*
X92639201Y-73192955D01*
X92720490Y-73300050D01*
X92730676Y-73310236D01*
X92758453Y-73364753D01*
X92755844Y-73402069D01*
X92756447Y-73402163D01*
X92734391Y-73543823D01*
X92735306Y-73550820D01*
X92735306Y-73550821D01*
X92746957Y-73639922D01*
X92752980Y-73685979D01*
X92755821Y-73692435D01*
X92755821Y-73692436D01*
X92791116Y-73772649D01*
X92799500Y-73812521D01*
X92799500Y-74254316D01*
X92799923Y-74257529D01*
X92802906Y-74280184D01*
X92805932Y-74303173D01*
X92809135Y-74310041D01*
X92809135Y-74310042D01*
X92823414Y-74340662D01*
X92855935Y-74410404D01*
X92939596Y-74494065D01*
X92947444Y-74497725D01*
X92947446Y-74497726D01*
X93037904Y-74539907D01*
X93046827Y-74544068D01*
X93095684Y-74550500D01*
X93444316Y-74550500D01*
X93493173Y-74544068D01*
X93502096Y-74539907D01*
X93592554Y-74497726D01*
X93592556Y-74497725D01*
X93600404Y-74494065D01*
X93684065Y-74410404D01*
X93690277Y-74397081D01*
X93732005Y-74352336D01*
X93792067Y-74340662D01*
X93847519Y-74366521D01*
X93869722Y-74397080D01*
X93875935Y-74410404D01*
X93959596Y-74494065D01*
X93967444Y-74497725D01*
X93967446Y-74497726D01*
X94057904Y-74539907D01*
X94066827Y-74544068D01*
X94115684Y-74550500D01*
X94464316Y-74550500D01*
X94513173Y-74544068D01*
X94522096Y-74539907D01*
X94612554Y-74497726D01*
X94612556Y-74497725D01*
X94620404Y-74494065D01*
X94704065Y-74410404D01*
X94736587Y-74340662D01*
X94750865Y-74310042D01*
X94750865Y-74310041D01*
X94754068Y-74303173D01*
X94759706Y-74260348D01*
X94775542Y-74218271D01*
X94778572Y-74213736D01*
X94790885Y-74198731D01*
X95770755Y-73218861D01*
X95825272Y-73191084D01*
X95885704Y-73200655D01*
X95928969Y-73243920D01*
X95937857Y-73308178D01*
X95924500Y-73375326D01*
X95924500Y-73524674D01*
X95939034Y-73597740D01*
X95944452Y-73605848D01*
X95947047Y-73612114D01*
X95951848Y-73673110D01*
X95947047Y-73687886D01*
X95944452Y-73694152D01*
X95939034Y-73702260D01*
X95924500Y-73775326D01*
X95924500Y-73924674D01*
X95939034Y-73997740D01*
X95944451Y-74005847D01*
X95974007Y-74050081D01*
X95994399Y-74080601D01*
X96077260Y-74135966D01*
X96150326Y-74150500D01*
X96974674Y-74150500D01*
X96979438Y-74149552D01*
X96979442Y-74149552D01*
X96985179Y-74148411D01*
X97045940Y-74155603D01*
X97090869Y-74197137D01*
X97102805Y-74257147D01*
X97101589Y-74264821D01*
X97100448Y-74270558D01*
X97099500Y-74275326D01*
X97099500Y-75099674D01*
X97114034Y-75172740D01*
X97119451Y-75180847D01*
X97156292Y-75235984D01*
X97169399Y-75255601D01*
X97252260Y-75310966D01*
X97325326Y-75325500D01*
X97474674Y-75325500D01*
X97547740Y-75310966D01*
X97555848Y-75305548D01*
X97562114Y-75302953D01*
X97623110Y-75298152D01*
X97637886Y-75302953D01*
X97644152Y-75305548D01*
X97652260Y-75310966D01*
X97725326Y-75325500D01*
X97770521Y-75325500D01*
X97828712Y-75344407D01*
X97864676Y-75393907D01*
X97864676Y-75455093D01*
X97840525Y-75494504D01*
X97505349Y-75829680D01*
X97502220Y-75832380D01*
X97497731Y-75834575D01*
X97491513Y-75841278D01*
X97464107Y-75870822D01*
X97461531Y-75873498D01*
X97447752Y-75887277D01*
X97447715Y-75887331D01*
X97414907Y-75912631D01*
X97400284Y-75919450D01*
X97339558Y-75926906D01*
X97286044Y-75897243D01*
X97279592Y-75889580D01*
X97249515Y-75849955D01*
X97240050Y-75840490D01*
X97132955Y-75759201D01*
X97121305Y-75752637D01*
X96995932Y-75702998D01*
X96983705Y-75699893D01*
X96935568Y-75694068D01*
X96922478Y-75696636D01*
X96921066Y-75698156D01*
X96920000Y-75702984D01*
X96920000Y-77501000D01*
X96901093Y-77559191D01*
X96851593Y-77595155D01*
X96821000Y-77600000D01*
X96055680Y-77600000D01*
X96042995Y-77604122D01*
X96040000Y-77608243D01*
X96040000Y-77608966D01*
X96040359Y-77614920D01*
X96049893Y-77693705D01*
X96052999Y-77705933D01*
X96102637Y-77831305D01*
X96109201Y-77842955D01*
X96190490Y-77950050D01*
X96199950Y-77959510D01*
X96307045Y-78040799D01*
X96318699Y-78047366D01*
X96319538Y-78047698D01*
X96320070Y-78048138D01*
X96324574Y-78050676D01*
X96324117Y-78051487D01*
X96366681Y-78086701D01*
X96381894Y-78145965D01*
X96379008Y-78161846D01*
X96378442Y-78163051D01*
X96356386Y-78304711D01*
X96357301Y-78311708D01*
X96357301Y-78311709D01*
X96368478Y-78397183D01*
X96374975Y-78446867D01*
X96377816Y-78453323D01*
X96377816Y-78453324D01*
X96429799Y-78571463D01*
X96432715Y-78578091D01*
X96449759Y-78598367D01*
X96520426Y-78682437D01*
X96520429Y-78682439D01*
X96524965Y-78687836D01*
X96530836Y-78691744D01*
X96530837Y-78691745D01*
X96560799Y-78711689D01*
X96644308Y-78767278D01*
X96718687Y-78790515D01*
X96774420Y-78807927D01*
X96774421Y-78807927D01*
X96781152Y-78810030D01*
X96852823Y-78811344D01*
X96917440Y-78812529D01*
X96917442Y-78812529D01*
X96924494Y-78812658D01*
X96931297Y-78810803D01*
X96931299Y-78810803D01*
X97022351Y-78785979D01*
X97062812Y-78774948D01*
X97184986Y-78699933D01*
X97192398Y-78691745D01*
X97273705Y-78601917D01*
X97326773Y-78571463D01*
X97387606Y-78578018D01*
X97432969Y-78619077D01*
X97445386Y-78656460D01*
X97449893Y-78693704D01*
X97452999Y-78705933D01*
X97502637Y-78831305D01*
X97509201Y-78842955D01*
X97590490Y-78950050D01*
X97599950Y-78959510D01*
X97707045Y-79040799D01*
X97718695Y-79047363D01*
X97844068Y-79097002D01*
X97856295Y-79100107D01*
X97904432Y-79105932D01*
X97917522Y-79103364D01*
X97918934Y-79101844D01*
X97920000Y-79097016D01*
X97920000Y-78299000D01*
X97938907Y-78240809D01*
X97988407Y-78204845D01*
X98019000Y-78200000D01*
X98221000Y-78200000D01*
X98279191Y-78218907D01*
X98315155Y-78268407D01*
X98320000Y-78299000D01*
X98320000Y-79092136D01*
X98324122Y-79104821D01*
X98325800Y-79106041D01*
X98330720Y-79106519D01*
X98383705Y-79100107D01*
X98395932Y-79097002D01*
X98521305Y-79047363D01*
X98532955Y-79040799D01*
X98640050Y-78959510D01*
X98649515Y-78950045D01*
X98679592Y-78910420D01*
X98729834Y-78875500D01*
X98791006Y-78876782D01*
X98800278Y-78880547D01*
X98850513Y-78903972D01*
X98900099Y-78910500D01*
X99079972Y-78910500D01*
X99259900Y-78910499D01*
X99263110Y-78910076D01*
X99263117Y-78910076D01*
X99301975Y-78904961D01*
X99301976Y-78904961D01*
X99309487Y-78903972D01*
X99370545Y-78875500D01*
X99410466Y-78856885D01*
X99410468Y-78856884D01*
X99418316Y-78853224D01*
X99503224Y-78768316D01*
X99520702Y-78730836D01*
X99552706Y-78662202D01*
X99594434Y-78617454D01*
X99654495Y-78605779D01*
X99687375Y-78615832D01*
X99742906Y-78644127D01*
X99757547Y-78648884D01*
X99839673Y-78661891D01*
X99847412Y-78662500D01*
X100159320Y-78662500D01*
X100172005Y-78658378D01*
X100175000Y-78654257D01*
X100175000Y-77711500D01*
X100193907Y-77653309D01*
X100243407Y-77617345D01*
X100274000Y-77612500D01*
X100476000Y-77612500D01*
X100534191Y-77631407D01*
X100570155Y-77680907D01*
X100575000Y-77711500D01*
X100575000Y-78646819D01*
X100579122Y-78659504D01*
X100583243Y-78662499D01*
X100902585Y-78662499D01*
X100910329Y-78661889D01*
X100992449Y-78648884D01*
X101007091Y-78644127D01*
X101106106Y-78593677D01*
X101118551Y-78584635D01*
X101197135Y-78506051D01*
X101206177Y-78493606D01*
X101233262Y-78440448D01*
X101276527Y-78397183D01*
X101336959Y-78387612D01*
X101379093Y-78409080D01*
X101380448Y-78407052D01*
X101446769Y-78451367D01*
X101456332Y-78453269D01*
X101456334Y-78453270D01*
X101479005Y-78457779D01*
X101505252Y-78463000D01*
X102544748Y-78463000D01*
X102570995Y-78457779D01*
X102593666Y-78453270D01*
X102593668Y-78453269D01*
X102603231Y-78451367D01*
X102669552Y-78407052D01*
X102713867Y-78340731D01*
X102725500Y-78282248D01*
X102725500Y-77759500D01*
X102744407Y-77701309D01*
X102793907Y-77665345D01*
X102824500Y-77660500D01*
X102870597Y-77660500D01*
X102928788Y-77679407D01*
X102946241Y-77697168D01*
X102946776Y-77698316D01*
X103031684Y-77783224D01*
X103039532Y-77786884D01*
X103039534Y-77786885D01*
X103124305Y-77826414D01*
X103140513Y-77833972D01*
X103190099Y-77840500D01*
X103399967Y-77840500D01*
X103609900Y-77840499D01*
X103613110Y-77840076D01*
X103613117Y-77840076D01*
X103651975Y-77834961D01*
X103651976Y-77834961D01*
X103659487Y-77833972D01*
X103711069Y-77809919D01*
X103760466Y-77786885D01*
X103760468Y-77786884D01*
X103768316Y-77783224D01*
X103853224Y-77698316D01*
X103856935Y-77690359D01*
X103900769Y-77596356D01*
X103903972Y-77589487D01*
X103910500Y-77539901D01*
X103910499Y-77180100D01*
X103907926Y-77160547D01*
X103904961Y-77138025D01*
X103904961Y-77138024D01*
X103903972Y-77130513D01*
X103880551Y-77080286D01*
X103873094Y-77019558D01*
X103902757Y-76966044D01*
X103910420Y-76959592D01*
X103950045Y-76929515D01*
X103959510Y-76920050D01*
X104028394Y-76829298D01*
X104078636Y-76794378D01*
X104136773Y-76794657D01*
X104141231Y-76796050D01*
X104141232Y-76796050D01*
X104147963Y-76798153D01*
X104219634Y-76799467D01*
X104284251Y-76800652D01*
X104284253Y-76800652D01*
X104291305Y-76800781D01*
X104298108Y-76798926D01*
X104298110Y-76798926D01*
X104373309Y-76778424D01*
X104429623Y-76763071D01*
X104551797Y-76688056D01*
X104569877Y-76668082D01*
X104643274Y-76586993D01*
X104648006Y-76581765D01*
X104710516Y-76452744D01*
X104714307Y-76430216D01*
X104733668Y-76315135D01*
X104733668Y-76315131D01*
X104734302Y-76311365D01*
X104734453Y-76299011D01*
X104714129Y-76157093D01*
X104654790Y-76026583D01*
X104604910Y-75968695D01*
X104565813Y-75923320D01*
X104565811Y-75923318D01*
X104561206Y-75917974D01*
X104561318Y-75917877D01*
X104531804Y-75868560D01*
X104529306Y-75846460D01*
X104529306Y-75033823D01*
X105364391Y-75033823D01*
X105365306Y-75040820D01*
X105365306Y-75040821D01*
X105366785Y-75052134D01*
X105382980Y-75175979D01*
X105385821Y-75182435D01*
X105385821Y-75182436D01*
X105433840Y-75291566D01*
X105440720Y-75307203D01*
X105468255Y-75339960D01*
X105528431Y-75411549D01*
X105528434Y-75411551D01*
X105532970Y-75416948D01*
X105538841Y-75420856D01*
X105538842Y-75420857D01*
X105551143Y-75429045D01*
X105652313Y-75496390D01*
X105735136Y-75522265D01*
X105782425Y-75537039D01*
X105782426Y-75537039D01*
X105789157Y-75539142D01*
X105860828Y-75540456D01*
X105925445Y-75541641D01*
X105925447Y-75541641D01*
X105932499Y-75541770D01*
X105939302Y-75539915D01*
X105939304Y-75539915D01*
X106014503Y-75519413D01*
X106070817Y-75504060D01*
X106192991Y-75429045D01*
X106200403Y-75420857D01*
X106284468Y-75327982D01*
X106289200Y-75322754D01*
X106351710Y-75193733D01*
X106355875Y-75168982D01*
X106374862Y-75056124D01*
X106374862Y-75056120D01*
X106375496Y-75052354D01*
X106375647Y-75040000D01*
X106355323Y-74898082D01*
X106295984Y-74767572D01*
X106202400Y-74658963D01*
X106082095Y-74580985D01*
X105944739Y-74539907D01*
X105861497Y-74539398D01*
X105808427Y-74539074D01*
X105808426Y-74539074D01*
X105801376Y-74539031D01*
X105794599Y-74540968D01*
X105794598Y-74540968D01*
X105670309Y-74576490D01*
X105670307Y-74576491D01*
X105663529Y-74578428D01*
X105542280Y-74654930D01*
X105537613Y-74660214D01*
X105537611Y-74660216D01*
X105452044Y-74757103D01*
X105452042Y-74757105D01*
X105447377Y-74762388D01*
X105444381Y-74768770D01*
X105444380Y-74768771D01*
X105435587Y-74787500D01*
X105386447Y-74892163D01*
X105364391Y-75033823D01*
X104529306Y-75033823D01*
X104529306Y-73832344D01*
X104529609Y-73828219D01*
X104531231Y-73823494D01*
X104529376Y-73774074D01*
X104529306Y-73770361D01*
X104529306Y-73750888D01*
X104528481Y-73746458D01*
X104528144Y-73741253D01*
X104527375Y-73720762D01*
X104527032Y-73711627D01*
X104523424Y-73703229D01*
X104522487Y-73701048D01*
X104516123Y-73680099D01*
X104515690Y-73677772D01*
X104515688Y-73677767D01*
X104514015Y-73668783D01*
X104500038Y-73646107D01*
X104493354Y-73633240D01*
X104485601Y-73615194D01*
X104485600Y-73615193D01*
X104482842Y-73608773D01*
X104478828Y-73603887D01*
X104474464Y-73599523D01*
X104460193Y-73581468D01*
X104460070Y-73581269D01*
X104455274Y-73573488D01*
X104432037Y-73555818D01*
X104421967Y-73547026D01*
X104150290Y-73275349D01*
X104147590Y-73272220D01*
X104145395Y-73267731D01*
X104109148Y-73234107D01*
X104106472Y-73231531D01*
X104100327Y-73225386D01*
X104072550Y-73170869D01*
X104073234Y-73136066D01*
X104075500Y-73124674D01*
X104075500Y-72975326D01*
X104060966Y-72902260D01*
X104055548Y-72894152D01*
X104052953Y-72887886D01*
X104048152Y-72826890D01*
X104052953Y-72812114D01*
X104055548Y-72805848D01*
X104060966Y-72797740D01*
X104075500Y-72724674D01*
X104076068Y-72724787D01*
X104099225Y-72671851D01*
X104152013Y-72640913D01*
X104212903Y-72646913D01*
X104258638Y-72687557D01*
X104262937Y-72695748D01*
X104296776Y-72768316D01*
X104381684Y-72853224D01*
X104389532Y-72856884D01*
X104389534Y-72856885D01*
X104483644Y-72900769D01*
X104490513Y-72903972D01*
X104540099Y-72910500D01*
X104719972Y-72910500D01*
X104899900Y-72910499D01*
X104903110Y-72910076D01*
X104903117Y-72910076D01*
X104941975Y-72904961D01*
X104941976Y-72904961D01*
X104949487Y-72903972D01*
X104999714Y-72880551D01*
X105060442Y-72873094D01*
X105113956Y-72902757D01*
X105120408Y-72910420D01*
X105150485Y-72950045D01*
X105159950Y-72959510D01*
X105267045Y-73040799D01*
X105278695Y-73047363D01*
X105404068Y-73097002D01*
X105416295Y-73100107D01*
X105464432Y-73105932D01*
X105477522Y-73103364D01*
X105478934Y-73101844D01*
X105480000Y-73097016D01*
X105480000Y-72608243D01*
X105880000Y-72608243D01*
X105880000Y-73092136D01*
X105884122Y-73104821D01*
X105885800Y-73106041D01*
X105890720Y-73106519D01*
X105943705Y-73100107D01*
X105955932Y-73097002D01*
X106081305Y-73047363D01*
X106092955Y-73040799D01*
X106200050Y-72959510D01*
X106209510Y-72950050D01*
X106290799Y-72842955D01*
X106297363Y-72831305D01*
X106347001Y-72705933D01*
X106350107Y-72693705D01*
X106359641Y-72614920D01*
X106359659Y-72614630D01*
X106355878Y-72602995D01*
X106351757Y-72600000D01*
X105895680Y-72600000D01*
X105882995Y-72604122D01*
X105880000Y-72608243D01*
X105480000Y-72608243D01*
X105480000Y-72299000D01*
X105498907Y-72240809D01*
X105548407Y-72204845D01*
X105579000Y-72200000D01*
X106344320Y-72200000D01*
X106357005Y-72195878D01*
X106360000Y-72191757D01*
X106360000Y-72191034D01*
X106359641Y-72185080D01*
X106350107Y-72106295D01*
X106347001Y-72094067D01*
X106297363Y-71968695D01*
X106290799Y-71957045D01*
X106209510Y-71849950D01*
X106200050Y-71840490D01*
X106092955Y-71759201D01*
X106081308Y-71752638D01*
X106077011Y-71750937D01*
X106029866Y-71711937D01*
X106015607Y-71653179D01*
X106014864Y-71653170D01*
X106014900Y-71650263D01*
X106014900Y-71650261D01*
X106015015Y-71640816D01*
X105994691Y-71498898D01*
X105935352Y-71368388D01*
X105841768Y-71259779D01*
X105721463Y-71181801D01*
X105584107Y-71140723D01*
X105500865Y-71140214D01*
X105447795Y-71139890D01*
X105447794Y-71139890D01*
X105440744Y-71139847D01*
X105433967Y-71141784D01*
X105433966Y-71141784D01*
X105309677Y-71177306D01*
X105309675Y-71177307D01*
X105302897Y-71179244D01*
X105181648Y-71255746D01*
X105176981Y-71261030D01*
X105176979Y-71261032D01*
X105091412Y-71357919D01*
X105091410Y-71357921D01*
X105086745Y-71363204D01*
X105025815Y-71492979D01*
X105024730Y-71499948D01*
X105024729Y-71499951D01*
X105010993Y-71588177D01*
X105003759Y-71634639D01*
X105004674Y-71641636D01*
X105004674Y-71641638D01*
X105007475Y-71663058D01*
X104996273Y-71723209D01*
X104979315Y-71745898D01*
X104864709Y-71860504D01*
X104810192Y-71888281D01*
X104794705Y-71889500D01*
X104561758Y-71889501D01*
X104540100Y-71889501D01*
X104536890Y-71889924D01*
X104536883Y-71889924D01*
X104498025Y-71895039D01*
X104498024Y-71895039D01*
X104490513Y-71896028D01*
X104408943Y-71934065D01*
X104395735Y-71940224D01*
X104353896Y-71949500D01*
X104174500Y-71949500D01*
X104116309Y-71930593D01*
X104080345Y-71881093D01*
X104075500Y-71850500D01*
X104075500Y-71775326D01*
X104060966Y-71702260D01*
X104055548Y-71694152D01*
X104052953Y-71687886D01*
X104048152Y-71626890D01*
X104052953Y-71612114D01*
X104055548Y-71605848D01*
X104060966Y-71597740D01*
X104075500Y-71524674D01*
X104075500Y-71375326D01*
X104060966Y-71302260D01*
X104055548Y-71294152D01*
X104052953Y-71287886D01*
X104048152Y-71226890D01*
X104052953Y-71212114D01*
X104055548Y-71205848D01*
X104060966Y-71197740D01*
X104075500Y-71124674D01*
X104075500Y-70975326D01*
X104060966Y-70902260D01*
X104055548Y-70894152D01*
X104052953Y-70887886D01*
X104048152Y-70826890D01*
X104052953Y-70812114D01*
X104055548Y-70805848D01*
X104060966Y-70797740D01*
X104075500Y-70724674D01*
X104075500Y-70575326D01*
X104060966Y-70502260D01*
X104055548Y-70494152D01*
X104052953Y-70487886D01*
X104048152Y-70426890D01*
X104052953Y-70412114D01*
X104055548Y-70405848D01*
X104060966Y-70397740D01*
X104075500Y-70324674D01*
X104075500Y-70175326D01*
X104060966Y-70102260D01*
X104055548Y-70094152D01*
X104052953Y-70087886D01*
X104048152Y-70026890D01*
X104052953Y-70012114D01*
X104055548Y-70005848D01*
X104060966Y-69997740D01*
X104075500Y-69924674D01*
X104075500Y-69775326D01*
X104060966Y-69702260D01*
X104055548Y-69694152D01*
X104052953Y-69687886D01*
X104048152Y-69626890D01*
X104052953Y-69612114D01*
X104055548Y-69605848D01*
X104060966Y-69597740D01*
X104075500Y-69524674D01*
X104075500Y-69375326D01*
X104060966Y-69302260D01*
X104055548Y-69294152D01*
X104052953Y-69287886D01*
X104048152Y-69226890D01*
X104052953Y-69212114D01*
X104055548Y-69205848D01*
X104060966Y-69197740D01*
X104075500Y-69124674D01*
X104075500Y-69049500D01*
X104094407Y-68991309D01*
X104143907Y-68955345D01*
X104174500Y-68950500D01*
X104237952Y-68950500D01*
X104296143Y-68969407D01*
X104307956Y-68979496D01*
X104381684Y-69053224D01*
X104389532Y-69056884D01*
X104389534Y-69056885D01*
X104451099Y-69085593D01*
X104490513Y-69103972D01*
X104540099Y-69110500D01*
X104719972Y-69110500D01*
X104899900Y-69110499D01*
X104903110Y-69110076D01*
X104903117Y-69110076D01*
X104941975Y-69104961D01*
X104941976Y-69104961D01*
X104949487Y-69103972D01*
X104999714Y-69080551D01*
X105060442Y-69073094D01*
X105113956Y-69102757D01*
X105120408Y-69110420D01*
X105150485Y-69150045D01*
X105159950Y-69159510D01*
X105267045Y-69240799D01*
X105278695Y-69247363D01*
X105404068Y-69297002D01*
X105416295Y-69300107D01*
X105464432Y-69305932D01*
X105477522Y-69303364D01*
X105478934Y-69301844D01*
X105480000Y-69297016D01*
X105480000Y-68808243D01*
X105880000Y-68808243D01*
X105880000Y-69292136D01*
X105884122Y-69304821D01*
X105885800Y-69306041D01*
X105890720Y-69306519D01*
X105943705Y-69300107D01*
X105955932Y-69297002D01*
X106081305Y-69247363D01*
X106092955Y-69240799D01*
X106200050Y-69159510D01*
X106209510Y-69150050D01*
X106290799Y-69042955D01*
X106297363Y-69031305D01*
X106308492Y-69003197D01*
X106347493Y-68956053D01*
X106406756Y-68940836D01*
X106463645Y-68963360D01*
X106496430Y-69015020D01*
X106498704Y-69026803D01*
X106504757Y-69073094D01*
X106509235Y-69107336D01*
X106512980Y-69135979D01*
X106515821Y-69142435D01*
X106515821Y-69142436D01*
X106567539Y-69259973D01*
X106570720Y-69267203D01*
X106608227Y-69311823D01*
X106658431Y-69371549D01*
X106658434Y-69371551D01*
X106662970Y-69376948D01*
X106668841Y-69380856D01*
X106668842Y-69380857D01*
X106681143Y-69389045D01*
X106782313Y-69456390D01*
X106866701Y-69482754D01*
X106912425Y-69497039D01*
X106912426Y-69497039D01*
X106919157Y-69499142D01*
X106990828Y-69500456D01*
X107055445Y-69501641D01*
X107055447Y-69501641D01*
X107062499Y-69501770D01*
X107069302Y-69499915D01*
X107069304Y-69499915D01*
X107144503Y-69479413D01*
X107200817Y-69464060D01*
X107322991Y-69389045D01*
X107330403Y-69380857D01*
X107414468Y-69287982D01*
X107419200Y-69282754D01*
X107481710Y-69153733D01*
X107485875Y-69128982D01*
X107504862Y-69016124D01*
X107504862Y-69016120D01*
X107505496Y-69012354D01*
X107505647Y-69000000D01*
X107485323Y-68858082D01*
X107433690Y-68744521D01*
X107428905Y-68733996D01*
X107428904Y-68733995D01*
X107425984Y-68727572D01*
X107332400Y-68618963D01*
X107212095Y-68540985D01*
X107074739Y-68499907D01*
X106991497Y-68499398D01*
X106938427Y-68499074D01*
X106938426Y-68499074D01*
X106931376Y-68499031D01*
X106924599Y-68500968D01*
X106924598Y-68500968D01*
X106800309Y-68536490D01*
X106800307Y-68536491D01*
X106793529Y-68538428D01*
X106672280Y-68614930D01*
X106667613Y-68620214D01*
X106667611Y-68620216D01*
X106582044Y-68717103D01*
X106582042Y-68717105D01*
X106577377Y-68722388D01*
X106538169Y-68805897D01*
X106537395Y-68807546D01*
X106495550Y-68852184D01*
X106435458Y-68863701D01*
X106380073Y-68837697D01*
X106359873Y-68805897D01*
X106351757Y-68800000D01*
X105895680Y-68800000D01*
X105882995Y-68804122D01*
X105880000Y-68808243D01*
X105480000Y-68808243D01*
X105480000Y-67907864D01*
X105478414Y-67902984D01*
X105880000Y-67902984D01*
X105880000Y-68384320D01*
X105884122Y-68397005D01*
X105888243Y-68400000D01*
X106344320Y-68400000D01*
X106357005Y-68395878D01*
X106360000Y-68391757D01*
X106360000Y-68391034D01*
X106359641Y-68385080D01*
X106350107Y-68306295D01*
X106347001Y-68294067D01*
X106297363Y-68168695D01*
X106290799Y-68157045D01*
X106209510Y-68049950D01*
X106200050Y-68040490D01*
X106092955Y-67959201D01*
X106081305Y-67952637D01*
X105992563Y-67917501D01*
X105975597Y-67903466D01*
X105952387Y-67902097D01*
X105943710Y-67899894D01*
X105895568Y-67894068D01*
X105882478Y-67896636D01*
X105881066Y-67898156D01*
X105880000Y-67902984D01*
X105478414Y-67902984D01*
X105475878Y-67895179D01*
X105474200Y-67893959D01*
X105469280Y-67893481D01*
X105416295Y-67899893D01*
X105404068Y-67902998D01*
X105315474Y-67938075D01*
X105254410Y-67941917D01*
X105202749Y-67909132D01*
X105188908Y-67887002D01*
X105168906Y-67843009D01*
X105168905Y-67843007D01*
X105165984Y-67836583D01*
X105097215Y-67756773D01*
X105077005Y-67733318D01*
X105077004Y-67733317D01*
X105072400Y-67727974D01*
X104952095Y-67649996D01*
X104814739Y-67608918D01*
X104731497Y-67608409D01*
X104678427Y-67608085D01*
X104678426Y-67608085D01*
X104671376Y-67608042D01*
X104664599Y-67609979D01*
X104664598Y-67609979D01*
X104540309Y-67645501D01*
X104540307Y-67645502D01*
X104533529Y-67647439D01*
X104412280Y-67723941D01*
X104407613Y-67729225D01*
X104407611Y-67729227D01*
X104322044Y-67826114D01*
X104322042Y-67826116D01*
X104317377Y-67831399D01*
X104314381Y-67837781D01*
X104314380Y-67837782D01*
X104309096Y-67849036D01*
X104256447Y-67961174D01*
X104255362Y-67968143D01*
X104255361Y-67968146D01*
X104244098Y-68040490D01*
X104234391Y-68102834D01*
X104235306Y-68109831D01*
X104235306Y-68109832D01*
X104252022Y-68237664D01*
X104240820Y-68297815D01*
X104196401Y-68339893D01*
X104153858Y-68349500D01*
X103789457Y-68349500D01*
X103731266Y-68330593D01*
X103695302Y-68281093D01*
X103695302Y-68219907D01*
X103716059Y-68184064D01*
X103729971Y-68168695D01*
X103772811Y-68121365D01*
X103776288Y-68117524D01*
X103781020Y-68112296D01*
X103843530Y-67983275D01*
X103846076Y-67968146D01*
X103866682Y-67845666D01*
X103866682Y-67845662D01*
X103867316Y-67841896D01*
X103867367Y-67837782D01*
X103867420Y-67833368D01*
X103867467Y-67829542D01*
X103847143Y-67687624D01*
X103787804Y-67557114D01*
X103784663Y-67553469D01*
X103769498Y-67495257D01*
X103791821Y-67438290D01*
X103842283Y-67405611D01*
X103893653Y-67391606D01*
X103893654Y-67391606D01*
X103900453Y-67389752D01*
X104022627Y-67314737D01*
X104060766Y-67272602D01*
X104114104Y-67213674D01*
X104118836Y-67208446D01*
X104167435Y-67108138D01*
X105619408Y-67108138D01*
X105620063Y-67114071D01*
X105620063Y-67114075D01*
X105629781Y-67202101D01*
X105636685Y-67264633D01*
X105643316Y-67282754D01*
X105688276Y-67405611D01*
X105690793Y-67412490D01*
X105694122Y-67417444D01*
X105775279Y-67538219D01*
X105775282Y-67538223D01*
X105778608Y-67543172D01*
X105783019Y-67547186D01*
X105783021Y-67547188D01*
X105890645Y-67645118D01*
X105895060Y-67649135D01*
X106023994Y-67719141D01*
X106033957Y-67729640D01*
X106054128Y-67729693D01*
X106119241Y-67746775D01*
X106179951Y-67762702D01*
X106179953Y-67762702D01*
X106185719Y-67764215D01*
X106191680Y-67764309D01*
X106191683Y-67764309D01*
X106264432Y-67765452D01*
X106343145Y-67766688D01*
X106360549Y-67762702D01*
X106490799Y-67732871D01*
X106490801Y-67732870D01*
X106496618Y-67731538D01*
X106501949Y-67728857D01*
X106631949Y-67663474D01*
X106631951Y-67663473D01*
X106637275Y-67660795D01*
X106655182Y-67645501D01*
X106752460Y-67562418D01*
X106752461Y-67562417D01*
X106756998Y-67558542D01*
X106833210Y-67452482D01*
X106845390Y-67435532D01*
X106845391Y-67435530D01*
X106848874Y-67430683D01*
X106860136Y-67402670D01*
X106905376Y-67290131D01*
X106905377Y-67290129D01*
X106907600Y-67284598D01*
X106909308Y-67272602D01*
X106929328Y-67131929D01*
X106929328Y-67131925D01*
X106929784Y-67128723D01*
X106929928Y-67115000D01*
X106911013Y-66958694D01*
X106855360Y-66811412D01*
X106775118Y-66694660D01*
X106769562Y-66686576D01*
X106769561Y-66686575D01*
X106766181Y-66681657D01*
X106761728Y-66677690D01*
X106761725Y-66677686D01*
X106659691Y-66586778D01*
X106648626Y-66576919D01*
X106635566Y-66570004D01*
X106514755Y-66506037D01*
X106514752Y-66506036D01*
X106509481Y-66503245D01*
X106432811Y-66483987D01*
X106362568Y-66466343D01*
X106362565Y-66466343D01*
X106356778Y-66464889D01*
X106277214Y-66464473D01*
X106205300Y-66464096D01*
X106205298Y-66464096D01*
X106199334Y-66464065D01*
X106116353Y-66483987D01*
X106053511Y-66499074D01*
X106046238Y-66500820D01*
X105991365Y-66529142D01*
X105911635Y-66570293D01*
X105911633Y-66570295D01*
X105906329Y-66573032D01*
X105787684Y-66676533D01*
X105697151Y-66805348D01*
X105639959Y-66952039D01*
X105639181Y-66957950D01*
X105639180Y-66957953D01*
X105638303Y-66964616D01*
X105619408Y-67108138D01*
X104167435Y-67108138D01*
X104181346Y-67079425D01*
X104192631Y-67012354D01*
X104204498Y-66941816D01*
X104204498Y-66941812D01*
X104205132Y-66938046D01*
X104205283Y-66925692D01*
X104184959Y-66783774D01*
X104146232Y-66698597D01*
X104128541Y-66659688D01*
X104128540Y-66659687D01*
X104125620Y-66653264D01*
X104062353Y-66579839D01*
X104036641Y-66549999D01*
X104036640Y-66549998D01*
X104032036Y-66544655D01*
X103938437Y-66483987D01*
X103899890Y-66436471D01*
X103896635Y-66375372D01*
X103922280Y-66330908D01*
X104318731Y-65934457D01*
X104333733Y-65922146D01*
X104340514Y-65917615D01*
X104348624Y-65912196D01*
X104390294Y-65849834D01*
X104409516Y-65821066D01*
X104415031Y-65793342D01*
X104428995Y-65723134D01*
X104430897Y-65713572D01*
X104427402Y-65696000D01*
X104425500Y-65676688D01*
X104425500Y-63336163D01*
X104427402Y-63316850D01*
X104428995Y-63308841D01*
X104428995Y-63308840D01*
X104430897Y-63299278D01*
X104421860Y-63253848D01*
X104409515Y-63191783D01*
X104377258Y-63143507D01*
X104363994Y-63123656D01*
X104363993Y-63123655D01*
X104348624Y-63100654D01*
X104333733Y-63090704D01*
X104318731Y-63078393D01*
X104165517Y-62925179D01*
X104137740Y-62870662D01*
X104139724Y-62858138D01*
X105619408Y-62858138D01*
X105620063Y-62864071D01*
X105620063Y-62864075D01*
X105626809Y-62925179D01*
X105636685Y-63014633D01*
X105641905Y-63028896D01*
X105683970Y-63143845D01*
X105690793Y-63162490D01*
X105694122Y-63167444D01*
X105775279Y-63288219D01*
X105775282Y-63288223D01*
X105778608Y-63293172D01*
X105783019Y-63297186D01*
X105783021Y-63297188D01*
X105890645Y-63395118D01*
X105895060Y-63399135D01*
X105916535Y-63410795D01*
X106028180Y-63471414D01*
X106028182Y-63471415D01*
X106033426Y-63474262D01*
X106113184Y-63495186D01*
X106179950Y-63512702D01*
X106179954Y-63512702D01*
X106185719Y-63514215D01*
X106191680Y-63514309D01*
X106191683Y-63514309D01*
X106264432Y-63515452D01*
X106343145Y-63516688D01*
X106360549Y-63512702D01*
X106490799Y-63482871D01*
X106490801Y-63482870D01*
X106496618Y-63481538D01*
X106501949Y-63478857D01*
X106631949Y-63413474D01*
X106631951Y-63413473D01*
X106637275Y-63410795D01*
X106650927Y-63399135D01*
X106752460Y-63312418D01*
X106752461Y-63312417D01*
X106756998Y-63308542D01*
X106834024Y-63201349D01*
X106845390Y-63185532D01*
X106845391Y-63185530D01*
X106848874Y-63180683D01*
X106869453Y-63129493D01*
X106905376Y-63040131D01*
X106905377Y-63040129D01*
X106907600Y-63034598D01*
X106909644Y-63020240D01*
X106929328Y-62881929D01*
X106929328Y-62881925D01*
X106929784Y-62878723D01*
X106929928Y-62865000D01*
X106914693Y-62739106D01*
X106911730Y-62714616D01*
X106911729Y-62714613D01*
X106911013Y-62708694D01*
X106855360Y-62561412D01*
X106766181Y-62431657D01*
X106761728Y-62427690D01*
X106761725Y-62427686D01*
X106694207Y-62367531D01*
X106648626Y-62326919D01*
X106636112Y-62320293D01*
X106514755Y-62256037D01*
X106514752Y-62256036D01*
X106509481Y-62253245D01*
X106423288Y-62231595D01*
X106362568Y-62216343D01*
X106362565Y-62216343D01*
X106356778Y-62214889D01*
X106277214Y-62214473D01*
X106205300Y-62214096D01*
X106205298Y-62214096D01*
X106199334Y-62214065D01*
X106046238Y-62250820D01*
X105973685Y-62288267D01*
X105911635Y-62320293D01*
X105911633Y-62320295D01*
X105906329Y-62323032D01*
X105787684Y-62426533D01*
X105697151Y-62555348D01*
X105639959Y-62702039D01*
X105639181Y-62707950D01*
X105639180Y-62707953D01*
X105638303Y-62714616D01*
X105619408Y-62858138D01*
X104139724Y-62858138D01*
X104147311Y-62810230D01*
X104165517Y-62785172D01*
X104199133Y-62751555D01*
X104208178Y-62739106D01*
X104258630Y-62640088D01*
X104263385Y-62625453D01*
X104276392Y-62543327D01*
X104277001Y-62535588D01*
X104277001Y-62244280D01*
X104272879Y-62231595D01*
X104268758Y-62228600D01*
X103722001Y-62228600D01*
X103663810Y-62209693D01*
X103627846Y-62160193D01*
X103623001Y-62129600D01*
X103623001Y-61508948D01*
X103632907Y-61465783D01*
X103662466Y-61404772D01*
X103665541Y-61398426D01*
X103680373Y-61310268D01*
X103680969Y-61309126D01*
X103872873Y-61309126D01*
X103877001Y-61326693D01*
X103877001Y-61958920D01*
X103881123Y-61971605D01*
X103885244Y-61974600D01*
X104261320Y-61974600D01*
X104274005Y-61970478D01*
X104277000Y-61966357D01*
X104277000Y-61667615D01*
X104276390Y-61659871D01*
X104263385Y-61577751D01*
X104258628Y-61563109D01*
X104208178Y-61464094D01*
X104199136Y-61451649D01*
X104120552Y-61373065D01*
X104108107Y-61364023D01*
X104009089Y-61313571D01*
X103994454Y-61308816D01*
X103912328Y-61295809D01*
X103904589Y-61295200D01*
X103892681Y-61295200D01*
X103879996Y-61299322D01*
X103872873Y-61309126D01*
X103680969Y-61309126D01*
X103696700Y-61278970D01*
X103689342Y-61255844D01*
X103689431Y-61248520D01*
X103689478Y-61244693D01*
X103669154Y-61102775D01*
X103666233Y-61096350D01*
X103638793Y-61035997D01*
X103631920Y-60975199D01*
X103662096Y-60921973D01*
X103669060Y-60916165D01*
X103770050Y-60839510D01*
X103779510Y-60830050D01*
X103860799Y-60722955D01*
X103867363Y-60711305D01*
X103917001Y-60585933D01*
X103920107Y-60573705D01*
X103929641Y-60494920D01*
X103929659Y-60494630D01*
X103925878Y-60482995D01*
X103921757Y-60480000D01*
X103149000Y-60480000D01*
X103090809Y-60461093D01*
X103054845Y-60411593D01*
X103050000Y-60381000D01*
X103050000Y-60179000D01*
X103068907Y-60120809D01*
X103118407Y-60084845D01*
X103149000Y-60080000D01*
X103914320Y-60080000D01*
X103927005Y-60075878D01*
X103944062Y-60052402D01*
X103955987Y-60028997D01*
X104010503Y-60001219D01*
X104025991Y-60000000D01*
X105807268Y-60000000D01*
X105858995Y-60014589D01*
X105953523Y-60072516D01*
X106128029Y-60144799D01*
X106131804Y-60145705D01*
X106131806Y-60145706D01*
X106270484Y-60179000D01*
X106311695Y-60188894D01*
X106315560Y-60189198D01*
X106315565Y-60189199D01*
X106482191Y-60202313D01*
X106488246Y-60203247D01*
X106488247Y-60203237D01*
X106493815Y-60203878D01*
X106499281Y-60205145D01*
X106499997Y-60205146D01*
X106505445Y-60203903D01*
X106505447Y-60203903D01*
X106511690Y-60202479D01*
X106533707Y-60200000D01*
X107466040Y-60200000D01*
X107488227Y-60202518D01*
X107499642Y-60205143D01*
X107510209Y-60202752D01*
X107524615Y-60203898D01*
X107577218Y-60212230D01*
X107606674Y-60221801D01*
X107662362Y-60250175D01*
X107687422Y-60268381D01*
X107731618Y-60312577D01*
X107749824Y-60337637D01*
X107778198Y-60393325D01*
X107787769Y-60422782D01*
X107796131Y-60475577D01*
X107797208Y-60489413D01*
X107794856Y-60499641D01*
X107797316Y-60510513D01*
X107797559Y-60511585D01*
X107800000Y-60533435D01*
X107800000Y-76735292D01*
X107781093Y-76793483D01*
X107726623Y-76830919D01*
X107709848Y-76835414D01*
X107588008Y-76868061D01*
X107397708Y-76956800D01*
X107394165Y-76959281D01*
X107394163Y-76959282D01*
X107359099Y-76983834D01*
X107225708Y-77077235D01*
X107077235Y-77225708D01*
X107016974Y-77311770D01*
X106988255Y-77352786D01*
X106956800Y-77397708D01*
X106868061Y-77588008D01*
X106866943Y-77592181D01*
X106817394Y-77777101D01*
X106813716Y-77790826D01*
X106795416Y-78000000D01*
X106805726Y-78117840D01*
X106806479Y-78126448D01*
X106792716Y-78186066D01*
X106746538Y-78226207D01*
X106685586Y-78231540D01*
X106654010Y-78218153D01*
X106626003Y-78200000D01*
X106612095Y-78190985D01*
X106474739Y-78149907D01*
X106391497Y-78149398D01*
X106338427Y-78149074D01*
X106338426Y-78149074D01*
X106331376Y-78149031D01*
X106324599Y-78150968D01*
X106324598Y-78150968D01*
X106200309Y-78186490D01*
X106200307Y-78186491D01*
X106193529Y-78188428D01*
X106072280Y-78264930D01*
X106067613Y-78270214D01*
X106067611Y-78270216D01*
X105982044Y-78367103D01*
X105982042Y-78367105D01*
X105977377Y-78372388D01*
X105916447Y-78502163D01*
X105915362Y-78509132D01*
X105915361Y-78509135D01*
X105904625Y-78578091D01*
X105894391Y-78643823D01*
X105895306Y-78650820D01*
X105895306Y-78650821D01*
X105911780Y-78776802D01*
X105912980Y-78785979D01*
X105915821Y-78792435D01*
X105915821Y-78792436D01*
X105967771Y-78910500D01*
X105970720Y-78917203D01*
X106002114Y-78954551D01*
X106058431Y-79021549D01*
X106058434Y-79021551D01*
X106062970Y-79026948D01*
X106068841Y-79030856D01*
X106068842Y-79030857D01*
X106081143Y-79039045D01*
X106182313Y-79106390D01*
X106267671Y-79133057D01*
X106312425Y-79147039D01*
X106312426Y-79147039D01*
X106319157Y-79149142D01*
X106390828Y-79150456D01*
X106455445Y-79151641D01*
X106455447Y-79151641D01*
X106462499Y-79151770D01*
X106469302Y-79149915D01*
X106469304Y-79149915D01*
X106544503Y-79129413D01*
X106600817Y-79114060D01*
X106722991Y-79039045D01*
X106730403Y-79030857D01*
X106814468Y-78937982D01*
X106819200Y-78932754D01*
X106881710Y-78803733D01*
X106883484Y-78793188D01*
X106884878Y-78790515D01*
X106885024Y-78790059D01*
X106885103Y-78790084D01*
X106911785Y-78738941D01*
X106966567Y-78711689D01*
X107026904Y-78721842D01*
X107062208Y-78752831D01*
X107074756Y-78770751D01*
X107077235Y-78774292D01*
X107225708Y-78922765D01*
X107278186Y-78959510D01*
X107374498Y-79026948D01*
X107397708Y-79043200D01*
X107588008Y-79131939D01*
X107644362Y-79147039D01*
X107726623Y-79169081D01*
X107777938Y-79202405D01*
X107800000Y-79264708D01*
X107800000Y-79701000D01*
X107781093Y-79759191D01*
X107731593Y-79795155D01*
X107701000Y-79800000D01*
X92341008Y-79800000D01*
X92282817Y-79781093D01*
X92271004Y-79771004D01*
X92228996Y-79728996D01*
X92201219Y-79674479D01*
X92200000Y-79658992D01*
X92200000Y-79264708D01*
X92218907Y-79206517D01*
X92273377Y-79169081D01*
X92355638Y-79147039D01*
X92411992Y-79131939D01*
X92602292Y-79043200D01*
X92625503Y-79026948D01*
X92721814Y-78959510D01*
X92774292Y-78922765D01*
X92922765Y-78774292D01*
X93010576Y-78648884D01*
X93040718Y-78605837D01*
X93040719Y-78605835D01*
X93043200Y-78602292D01*
X93131939Y-78411992D01*
X93171344Y-78264930D01*
X93185165Y-78213351D01*
X93185165Y-78213349D01*
X93186284Y-78209174D01*
X93204584Y-78000000D01*
X93186284Y-77790826D01*
X93182607Y-77777101D01*
X93133057Y-77592181D01*
X93131939Y-77588008D01*
X93043200Y-77397708D01*
X93011746Y-77352786D01*
X92983026Y-77311770D01*
X92922765Y-77225708D01*
X92774292Y-77077235D01*
X92640901Y-76983834D01*
X92605837Y-76959282D01*
X92605835Y-76959281D01*
X92602292Y-76956800D01*
X92411992Y-76868061D01*
X92290152Y-76835414D01*
X92273377Y-76830919D01*
X92231652Y-76803823D01*
X93034391Y-76803823D01*
X93035306Y-76810820D01*
X93035306Y-76810821D01*
X93045725Y-76890500D01*
X93052980Y-76945979D01*
X93055821Y-76952435D01*
X93055821Y-76952436D01*
X93107844Y-77070666D01*
X93110720Y-77077203D01*
X93148825Y-77122534D01*
X93198431Y-77181549D01*
X93198434Y-77181551D01*
X93202970Y-77186948D01*
X93208841Y-77190856D01*
X93208842Y-77190857D01*
X93222615Y-77200025D01*
X93322313Y-77266390D01*
X93422920Y-77297821D01*
X93452425Y-77307039D01*
X93452426Y-77307039D01*
X93459157Y-77309142D01*
X93530828Y-77310456D01*
X93595445Y-77311641D01*
X93595447Y-77311641D01*
X93602499Y-77311770D01*
X93609302Y-77309915D01*
X93609304Y-77309915D01*
X93684503Y-77289413D01*
X93740817Y-77274060D01*
X93862991Y-77199045D01*
X93870403Y-77190857D01*
X93954468Y-77097982D01*
X93959200Y-77092754D01*
X94021710Y-76963733D01*
X94023185Y-76954970D01*
X94044862Y-76826124D01*
X94044862Y-76826120D01*
X94045496Y-76822354D01*
X94045647Y-76810000D01*
X94025323Y-76668082D01*
X93998116Y-76608243D01*
X96040000Y-76608243D01*
X96040000Y-76608966D01*
X96040359Y-76614920D01*
X96049893Y-76693705D01*
X96052999Y-76705933D01*
X96102637Y-76831305D01*
X96112515Y-76848837D01*
X96110491Y-76849977D01*
X96127189Y-76897925D01*
X96110297Y-76949914D01*
X96112515Y-76951163D01*
X96102637Y-76968695D01*
X96052999Y-77094067D01*
X96049893Y-77106295D01*
X96040359Y-77185080D01*
X96040341Y-77185370D01*
X96044122Y-77197005D01*
X96048243Y-77200000D01*
X96504320Y-77200000D01*
X96517005Y-77195878D01*
X96520000Y-77191757D01*
X96520000Y-76615680D01*
X96515878Y-76602995D01*
X96511757Y-76600000D01*
X96055680Y-76600000D01*
X96042995Y-76604122D01*
X96040000Y-76608243D01*
X93998116Y-76608243D01*
X93965984Y-76537572D01*
X93886896Y-76445786D01*
X93877005Y-76434307D01*
X93877004Y-76434306D01*
X93872400Y-76428963D01*
X93752095Y-76350985D01*
X93614739Y-76309907D01*
X93531497Y-76309398D01*
X93478427Y-76309074D01*
X93478426Y-76309074D01*
X93471376Y-76309031D01*
X93464599Y-76310968D01*
X93464598Y-76310968D01*
X93340309Y-76346490D01*
X93340307Y-76346491D01*
X93333529Y-76348428D01*
X93212280Y-76424930D01*
X93207613Y-76430214D01*
X93207611Y-76430216D01*
X93122044Y-76527103D01*
X93122042Y-76527105D01*
X93117377Y-76532388D01*
X93114381Y-76538770D01*
X93114380Y-76538771D01*
X93097173Y-76575420D01*
X93056447Y-76662163D01*
X93055362Y-76669132D01*
X93055361Y-76669135D01*
X93051536Y-76693705D01*
X93034391Y-76803823D01*
X92231652Y-76803823D01*
X92222062Y-76797595D01*
X92200000Y-76735292D01*
X92200000Y-76185370D01*
X96040341Y-76185370D01*
X96044122Y-76197005D01*
X96048243Y-76200000D01*
X96504320Y-76200000D01*
X96517005Y-76195878D01*
X96520000Y-76191757D01*
X96520000Y-75707864D01*
X96515878Y-75695179D01*
X96514200Y-75693959D01*
X96509280Y-75693481D01*
X96456295Y-75699893D01*
X96444068Y-75702998D01*
X96318695Y-75752637D01*
X96307045Y-75759201D01*
X96199950Y-75840490D01*
X96190490Y-75849950D01*
X96109201Y-75957045D01*
X96102637Y-75968695D01*
X96052999Y-76094067D01*
X96049893Y-76106295D01*
X96040359Y-76185080D01*
X96040341Y-76185370D01*
X92200000Y-76185370D01*
X92200000Y-65785370D01*
X93340341Y-65785370D01*
X93344122Y-65797005D01*
X93348243Y-65800000D01*
X93804320Y-65800000D01*
X93817005Y-65795878D01*
X93820000Y-65791757D01*
X93820000Y-65307864D01*
X93815878Y-65295179D01*
X93814200Y-65293959D01*
X93809280Y-65293481D01*
X93756295Y-65299893D01*
X93744068Y-65302998D01*
X93618695Y-65352637D01*
X93607045Y-65359201D01*
X93499950Y-65440490D01*
X93490490Y-65449950D01*
X93409201Y-65557045D01*
X93402637Y-65568695D01*
X93352999Y-65694067D01*
X93349893Y-65706295D01*
X93340359Y-65785080D01*
X93340341Y-65785370D01*
X92200000Y-65785370D01*
X92200000Y-60533954D01*
X92202518Y-60511768D01*
X92202643Y-60511223D01*
X92205142Y-60500357D01*
X92202751Y-60489790D01*
X92203897Y-60475384D01*
X92212230Y-60422777D01*
X92221800Y-60393325D01*
X92250175Y-60337636D01*
X92268380Y-60312578D01*
X92268381Y-60312577D01*
X92312580Y-60268379D01*
X92337633Y-60250177D01*
X92393325Y-60221801D01*
X92422780Y-60212230D01*
X92435035Y-60210289D01*
X92475579Y-60203868D01*
X92489414Y-60202791D01*
X92499642Y-60205143D01*
X92510514Y-60202683D01*
X92510515Y-60202683D01*
X92511583Y-60202441D01*
X92533432Y-60200000D01*
X93465777Y-60200000D01*
X93488129Y-60202557D01*
X93499283Y-60205142D01*
X93499999Y-60205143D01*
X93505451Y-60203899D01*
X93510865Y-60203294D01*
X93516780Y-60202391D01*
X93602052Y-60195680D01*
X93684429Y-60189197D01*
X93684432Y-60189196D01*
X93688301Y-60188892D01*
X93871967Y-60144799D01*
X94046473Y-60072516D01*
X94141004Y-60014588D01*
X94192731Y-60000000D01*
X96000000Y-60000000D01*
X96000000Y-58299000D01*
X96018907Y-58240809D01*
X96068407Y-58204845D01*
X96099000Y-58200000D01*
X103901000Y-58200000D01*
X103959191Y-58218907D01*
G37*
%TD.AperFunction*%
%TA.AperFunction,Conductor*%
G36*
X102437886Y-75302953D02*
G01*
X102444152Y-75305548D01*
X102452260Y-75310966D01*
X102461823Y-75312868D01*
X102470832Y-75316600D01*
X102469981Y-75318654D01*
X102511838Y-75342096D01*
X102537453Y-75397662D01*
X102530156Y-75442712D01*
X102531518Y-75443129D01*
X102529456Y-75449872D01*
X102526458Y-75456258D01*
X102525373Y-75463227D01*
X102525372Y-75463230D01*
X102516181Y-75522265D01*
X102504402Y-75597918D01*
X102505317Y-75604915D01*
X102505317Y-75604917D01*
X102508030Y-75625664D01*
X102496827Y-75685815D01*
X102452408Y-75727893D01*
X102409866Y-75737500D01*
X102240680Y-75737500D01*
X102227995Y-75741622D01*
X102225000Y-75745743D01*
X102225000Y-76371820D01*
X102229122Y-76384505D01*
X102233243Y-76387500D01*
X102634320Y-76387500D01*
X102647005Y-76383378D01*
X102650000Y-76379257D01*
X102650000Y-76299000D01*
X102668907Y-76240809D01*
X102718407Y-76204845D01*
X102749000Y-76200000D01*
X103501000Y-76200000D01*
X103559191Y-76218907D01*
X103595155Y-76268407D01*
X103600000Y-76299000D01*
X103600000Y-76501000D01*
X103581093Y-76559191D01*
X103531593Y-76595155D01*
X103501000Y-76600000D01*
X102980680Y-76600000D01*
X102967995Y-76604122D01*
X102965000Y-76608243D01*
X102965000Y-76688500D01*
X102946093Y-76746691D01*
X102896593Y-76782655D01*
X102866000Y-76787500D01*
X101924000Y-76787500D01*
X101865809Y-76768593D01*
X101829845Y-76719093D01*
X101825000Y-76688500D01*
X101825000Y-75753181D01*
X101820878Y-75740496D01*
X101816757Y-75737501D01*
X101497415Y-75737501D01*
X101489673Y-75738110D01*
X101442577Y-75745569D01*
X101382145Y-75735997D01*
X101357087Y-75717792D01*
X101260019Y-75620724D01*
X101232242Y-75566207D01*
X101241813Y-75505775D01*
X101271205Y-75471087D01*
X101365840Y-75401188D01*
X101376190Y-75390839D01*
X101394771Y-75365682D01*
X101444552Y-75330108D01*
X101465067Y-75326941D01*
X101464972Y-75325977D01*
X101469814Y-75325500D01*
X101474674Y-75325500D01*
X101547740Y-75310966D01*
X101555848Y-75305548D01*
X101562114Y-75302953D01*
X101623110Y-75298152D01*
X101637886Y-75302953D01*
X101644152Y-75305548D01*
X101652260Y-75310966D01*
X101725326Y-75325500D01*
X101874674Y-75325500D01*
X101947740Y-75310966D01*
X101955848Y-75305548D01*
X101962114Y-75302953D01*
X102023110Y-75298152D01*
X102037886Y-75302953D01*
X102044152Y-75305548D01*
X102052260Y-75310966D01*
X102125326Y-75325500D01*
X102274674Y-75325500D01*
X102347740Y-75310966D01*
X102355848Y-75305548D01*
X102362114Y-75302953D01*
X102423110Y-75298152D01*
X102437886Y-75302953D01*
G37*
%TD.AperFunction*%
%TA.AperFunction,Conductor*%
G36*
X102437886Y-68427953D02*
G01*
X102444152Y-68430548D01*
X102452260Y-68435966D01*
X102525326Y-68450500D01*
X102674674Y-68450500D01*
X102679438Y-68449552D01*
X102679442Y-68449552D01*
X102685179Y-68448411D01*
X102745940Y-68455603D01*
X102790869Y-68497137D01*
X102802805Y-68557147D01*
X102801589Y-68564821D01*
X102800448Y-68570558D01*
X102799500Y-68575326D01*
X102799500Y-68724674D01*
X102814034Y-68797740D01*
X102819452Y-68805848D01*
X102822047Y-68812114D01*
X102826848Y-68873110D01*
X102822047Y-68887886D01*
X102819452Y-68894152D01*
X102814034Y-68902260D01*
X102799500Y-68975326D01*
X102799500Y-69124674D01*
X102814034Y-69197740D01*
X102819452Y-69205848D01*
X102822047Y-69212114D01*
X102826848Y-69273110D01*
X102822047Y-69287886D01*
X102819452Y-69294152D01*
X102814034Y-69302260D01*
X102799500Y-69375326D01*
X102799500Y-69524674D01*
X102814034Y-69597740D01*
X102819452Y-69605848D01*
X102822047Y-69612114D01*
X102826848Y-69673110D01*
X102822047Y-69687886D01*
X102819452Y-69694152D01*
X102814034Y-69702260D01*
X102799500Y-69775326D01*
X102799500Y-69924674D01*
X102814034Y-69997740D01*
X102819452Y-70005848D01*
X102822047Y-70012114D01*
X102826848Y-70073110D01*
X102822047Y-70087886D01*
X102819452Y-70094152D01*
X102814034Y-70102260D01*
X102799500Y-70175326D01*
X102799500Y-70324674D01*
X102814034Y-70397740D01*
X102819452Y-70405848D01*
X102822047Y-70412114D01*
X102826848Y-70473110D01*
X102822047Y-70487886D01*
X102819452Y-70494152D01*
X102814034Y-70502260D01*
X102799500Y-70575326D01*
X102799500Y-70724674D01*
X102814034Y-70797740D01*
X102819452Y-70805848D01*
X102822047Y-70812114D01*
X102826848Y-70873110D01*
X102822047Y-70887886D01*
X102819452Y-70894152D01*
X102814034Y-70902260D01*
X102799500Y-70975326D01*
X102799500Y-71124674D01*
X102814034Y-71197740D01*
X102819452Y-71205848D01*
X102822047Y-71212114D01*
X102826848Y-71273110D01*
X102822047Y-71287886D01*
X102819452Y-71294152D01*
X102814034Y-71302260D01*
X102799500Y-71375326D01*
X102799500Y-71524674D01*
X102814034Y-71597740D01*
X102819452Y-71605848D01*
X102822047Y-71612114D01*
X102826848Y-71673110D01*
X102822047Y-71687886D01*
X102819452Y-71694152D01*
X102814034Y-71702260D01*
X102799500Y-71775326D01*
X102799500Y-71924674D01*
X102814034Y-71997740D01*
X102819452Y-72005848D01*
X102822047Y-72012114D01*
X102826848Y-72073110D01*
X102822047Y-72087886D01*
X102819452Y-72094152D01*
X102814034Y-72102260D01*
X102799500Y-72175326D01*
X102799500Y-72324674D01*
X102814034Y-72397740D01*
X102819452Y-72405848D01*
X102822047Y-72412114D01*
X102826848Y-72473110D01*
X102822047Y-72487886D01*
X102819452Y-72494152D01*
X102814034Y-72502260D01*
X102799500Y-72575326D01*
X102799500Y-72724674D01*
X102814034Y-72797740D01*
X102819452Y-72805848D01*
X102822047Y-72812114D01*
X102826848Y-72873110D01*
X102822047Y-72887886D01*
X102819452Y-72894152D01*
X102814034Y-72902260D01*
X102799500Y-72975326D01*
X102799500Y-73124674D01*
X102814034Y-73197740D01*
X102819451Y-73205847D01*
X102822046Y-73212112D01*
X102826848Y-73273108D01*
X102822047Y-73287884D01*
X102819449Y-73294155D01*
X102814034Y-73302260D01*
X102812133Y-73311818D01*
X102812132Y-73311820D01*
X102808493Y-73330117D01*
X102799500Y-73375326D01*
X102799500Y-73524674D01*
X102814034Y-73597740D01*
X102819452Y-73605848D01*
X102822047Y-73612114D01*
X102826848Y-73673110D01*
X102822047Y-73687886D01*
X102819452Y-73694152D01*
X102814034Y-73702260D01*
X102799500Y-73775326D01*
X102799500Y-73924674D01*
X102800448Y-73929438D01*
X102800448Y-73929442D01*
X102801589Y-73935179D01*
X102794397Y-73995940D01*
X102752863Y-74040869D01*
X102692853Y-74052805D01*
X102685179Y-74051589D01*
X102679442Y-74050448D01*
X102679438Y-74050448D01*
X102674674Y-74049500D01*
X102525326Y-74049500D01*
X102452260Y-74064034D01*
X102444152Y-74069452D01*
X102437886Y-74072047D01*
X102376890Y-74076848D01*
X102362114Y-74072047D01*
X102355848Y-74069452D01*
X102347740Y-74064034D01*
X102274674Y-74049500D01*
X102125326Y-74049500D01*
X102052260Y-74064034D01*
X102044152Y-74069452D01*
X102037886Y-74072047D01*
X101976890Y-74076848D01*
X101962114Y-74072047D01*
X101955848Y-74069452D01*
X101947740Y-74064034D01*
X101874674Y-74049500D01*
X101725326Y-74049500D01*
X101652260Y-74064034D01*
X101644152Y-74069452D01*
X101637886Y-74072047D01*
X101576890Y-74076848D01*
X101562114Y-74072047D01*
X101555848Y-74069452D01*
X101547740Y-74064034D01*
X101474674Y-74049500D01*
X101469814Y-74049500D01*
X101464972Y-74049023D01*
X101465219Y-74046516D01*
X101416213Y-74030593D01*
X101394771Y-74009318D01*
X101376190Y-73984161D01*
X101365840Y-73973812D01*
X101268899Y-73902209D01*
X101255966Y-73895362D01*
X101140969Y-73854978D01*
X101129266Y-73852410D01*
X101112996Y-73850872D01*
X101102995Y-73854122D01*
X101100000Y-73858243D01*
X101100000Y-74270249D01*
X101099833Y-74273654D01*
X101099500Y-74275326D01*
X101099500Y-74688500D01*
X101080593Y-74746691D01*
X101031093Y-74782655D01*
X101000500Y-74787500D01*
X100999500Y-74787500D01*
X100941309Y-74768593D01*
X100905345Y-74719093D01*
X100900500Y-74688500D01*
X100900500Y-74275326D01*
X100900167Y-74273654D01*
X100900000Y-74270249D01*
X100900000Y-73865681D01*
X100895878Y-73852996D01*
X100892271Y-73850375D01*
X100870731Y-73852411D01*
X100859035Y-73854976D01*
X100744034Y-73895362D01*
X100731101Y-73902209D01*
X100634160Y-73973812D01*
X100623810Y-73984161D01*
X100605229Y-74009318D01*
X100555448Y-74044892D01*
X100534933Y-74048059D01*
X100535028Y-74049023D01*
X100530186Y-74049500D01*
X100525326Y-74049500D01*
X100452260Y-74064034D01*
X100444152Y-74069452D01*
X100437886Y-74072047D01*
X100376890Y-74076848D01*
X100362114Y-74072047D01*
X100355848Y-74069452D01*
X100347740Y-74064034D01*
X100274674Y-74049500D01*
X100125326Y-74049500D01*
X100052260Y-74064034D01*
X100044152Y-74069452D01*
X100037886Y-74072047D01*
X99976890Y-74076848D01*
X99962114Y-74072047D01*
X99955848Y-74069452D01*
X99947740Y-74064034D01*
X99874674Y-74049500D01*
X99725326Y-74049500D01*
X99720564Y-74050447D01*
X99720556Y-74050448D01*
X99717555Y-74051045D01*
X99716165Y-74050880D01*
X99715713Y-74050925D01*
X99715703Y-74050826D01*
X99656794Y-74043852D01*
X99628624Y-74023179D01*
X99626468Y-74019682D01*
X99603231Y-74002012D01*
X99593161Y-73993220D01*
X99055290Y-73455349D01*
X99052590Y-73452220D01*
X99050395Y-73447731D01*
X99022204Y-73421580D01*
X98992401Y-73368144D01*
X98999698Y-73307396D01*
X99041310Y-73262538D01*
X99089532Y-73250000D01*
X99784320Y-73250000D01*
X99797005Y-73245878D01*
X99800000Y-73241757D01*
X99800000Y-71458243D01*
X100200000Y-71458243D01*
X100200000Y-73234319D01*
X100204122Y-73247004D01*
X100208243Y-73249999D01*
X101495269Y-73249999D01*
X101501226Y-73249640D01*
X101580669Y-73240027D01*
X101592895Y-73236922D01*
X101719286Y-73186881D01*
X101730939Y-73180315D01*
X101838903Y-73098365D01*
X101848365Y-73088903D01*
X101930315Y-72980939D01*
X101936881Y-72969286D01*
X101986921Y-72842896D01*
X101990027Y-72830667D01*
X101999641Y-72751224D01*
X102000000Y-72745271D01*
X102000000Y-71465680D01*
X101995878Y-71452995D01*
X101991757Y-71450000D01*
X100215680Y-71450000D01*
X100202995Y-71454122D01*
X100200000Y-71458243D01*
X99800000Y-71458243D01*
X99800000Y-71149000D01*
X99818907Y-71090809D01*
X99868407Y-71054845D01*
X99899000Y-71050000D01*
X101984319Y-71050000D01*
X101997004Y-71045878D01*
X101999999Y-71041757D01*
X101999999Y-69754731D01*
X101999640Y-69748774D01*
X101990027Y-69669331D01*
X101986922Y-69657105D01*
X101936881Y-69530714D01*
X101930315Y-69519061D01*
X101848365Y-69411097D01*
X101838903Y-69401635D01*
X101730939Y-69319685D01*
X101719286Y-69313119D01*
X101592896Y-69263079D01*
X101580667Y-69259973D01*
X101501224Y-69250359D01*
X101495271Y-69250000D01*
X100574500Y-69250000D01*
X100516309Y-69231093D01*
X100480345Y-69181593D01*
X100475500Y-69151000D01*
X100475500Y-68849000D01*
X100494407Y-68790809D01*
X100543907Y-68754845D01*
X100574500Y-68750000D01*
X101500000Y-68750000D01*
X101500000Y-68519831D01*
X101518907Y-68461640D01*
X101561131Y-68428360D01*
X101562131Y-68427946D01*
X101623129Y-68423157D01*
X101637886Y-68427953D01*
X101644152Y-68430548D01*
X101652260Y-68435966D01*
X101725326Y-68450500D01*
X101874674Y-68450500D01*
X101947740Y-68435966D01*
X101955848Y-68430548D01*
X101962114Y-68427953D01*
X102023110Y-68423152D01*
X102037886Y-68427953D01*
X102044152Y-68430548D01*
X102052260Y-68435966D01*
X102125326Y-68450500D01*
X102274674Y-68450500D01*
X102347740Y-68435966D01*
X102355848Y-68430548D01*
X102362114Y-68427953D01*
X102423110Y-68423152D01*
X102437886Y-68427953D01*
G37*
%TD.AperFunction*%
%TA.AperFunction,Conductor*%
G36*
X95883691Y-68969407D02*
G01*
X95919655Y-69018907D01*
X95924500Y-69049500D01*
X95924500Y-69124674D01*
X95939034Y-69197740D01*
X95944452Y-69205848D01*
X95947047Y-69212114D01*
X95951848Y-69273110D01*
X95947047Y-69287886D01*
X95944452Y-69294152D01*
X95939034Y-69302260D01*
X95924500Y-69375326D01*
X95924500Y-69524674D01*
X95939034Y-69597740D01*
X95944452Y-69605848D01*
X95947047Y-69612114D01*
X95951848Y-69673110D01*
X95947047Y-69687886D01*
X95944452Y-69694152D01*
X95939034Y-69702260D01*
X95924500Y-69775326D01*
X95924500Y-69924674D01*
X95939034Y-69997740D01*
X95944452Y-70005848D01*
X95947047Y-70012114D01*
X95951848Y-70073110D01*
X95947047Y-70087886D01*
X95944452Y-70094152D01*
X95939034Y-70102260D01*
X95924500Y-70175326D01*
X95924500Y-70324674D01*
X95939034Y-70397740D01*
X95944452Y-70405848D01*
X95947047Y-70412114D01*
X95951848Y-70473110D01*
X95947047Y-70487886D01*
X95944452Y-70494152D01*
X95939034Y-70502260D01*
X95924500Y-70575326D01*
X95924500Y-70724674D01*
X95939034Y-70797740D01*
X95944452Y-70805848D01*
X95947047Y-70812114D01*
X95951848Y-70873110D01*
X95947047Y-70887886D01*
X95944452Y-70894152D01*
X95939034Y-70902260D01*
X95924500Y-70975326D01*
X95924500Y-71075500D01*
X95905593Y-71133691D01*
X95856093Y-71169655D01*
X95825500Y-71174500D01*
X95598696Y-71174500D01*
X95540505Y-71155593D01*
X95528692Y-71145504D01*
X94789496Y-70406308D01*
X94761719Y-70351791D01*
X94760500Y-70336304D01*
X94760500Y-70285684D01*
X94754068Y-70236827D01*
X94727655Y-70180184D01*
X94707726Y-70137446D01*
X94707725Y-70137444D01*
X94704065Y-70129596D01*
X94620404Y-70045935D01*
X94612556Y-70042275D01*
X94612554Y-70042274D01*
X94520042Y-69999135D01*
X94520041Y-69999135D01*
X94513173Y-69995932D01*
X94464316Y-69989500D01*
X94421681Y-69989500D01*
X94363490Y-69970593D01*
X94327526Y-69921093D01*
X94327368Y-69860607D01*
X94330249Y-69854660D01*
X94334414Y-69829909D01*
X94353401Y-69717051D01*
X94353401Y-69717047D01*
X94354035Y-69713281D01*
X94354186Y-69700927D01*
X94333862Y-69559009D01*
X94307837Y-69501770D01*
X94280821Y-69442350D01*
X94273948Y-69381551D01*
X94304124Y-69328325D01*
X94359049Y-69303091D01*
X94383707Y-69300107D01*
X94402095Y-69295437D01*
X94402687Y-69297768D01*
X94453427Y-69294581D01*
X94505084Y-69327372D01*
X94519411Y-69350594D01*
X94528631Y-69371549D01*
X94564243Y-69452482D01*
X94570720Y-69467203D01*
X94614311Y-69519061D01*
X94658431Y-69571549D01*
X94658434Y-69571551D01*
X94662970Y-69576948D01*
X94668841Y-69580856D01*
X94668842Y-69580857D01*
X94694205Y-69597740D01*
X94782313Y-69656390D01*
X94882776Y-69687776D01*
X94912425Y-69697039D01*
X94912426Y-69697039D01*
X94919157Y-69699142D01*
X94990828Y-69700456D01*
X95055445Y-69701641D01*
X95055447Y-69701641D01*
X95062499Y-69701770D01*
X95069302Y-69699915D01*
X95069304Y-69699915D01*
X95181483Y-69669331D01*
X95200817Y-69664060D01*
X95322991Y-69589045D01*
X95330403Y-69580857D01*
X95414468Y-69487982D01*
X95419200Y-69482754D01*
X95481710Y-69353733D01*
X95485221Y-69332868D01*
X95504862Y-69216124D01*
X95504862Y-69216120D01*
X95505496Y-69212354D01*
X95505563Y-69206915D01*
X95505600Y-69203826D01*
X95505647Y-69200000D01*
X95504807Y-69194132D01*
X95486104Y-69063534D01*
X95496571Y-69003251D01*
X95540473Y-68960633D01*
X95584104Y-68950500D01*
X95825500Y-68950500D01*
X95883691Y-68969407D01*
G37*
%TD.AperFunction*%
%TA.AperFunction,Conductor*%
G36*
X96843784Y-67319407D02*
G01*
X96855597Y-67329496D01*
X97070504Y-67544403D01*
X97098281Y-67598920D01*
X97099500Y-67614407D01*
X97099500Y-67756773D01*
X97099027Y-67766435D01*
X97098296Y-67773891D01*
X97095754Y-67782668D01*
X97096542Y-67791769D01*
X97096542Y-67791771D01*
X97099131Y-67821660D01*
X97099500Y-67830202D01*
X97099500Y-68224674D01*
X97100448Y-68229438D01*
X97100448Y-68229442D01*
X97101589Y-68235179D01*
X97094397Y-68295940D01*
X97052863Y-68340869D01*
X96992853Y-68352805D01*
X96985179Y-68351589D01*
X96979442Y-68350448D01*
X96979438Y-68350448D01*
X96974674Y-68349500D01*
X95621232Y-68349500D01*
X95563041Y-68330593D01*
X95531508Y-68292339D01*
X95507253Y-68240324D01*
X95499796Y-68179595D01*
X95529459Y-68126081D01*
X95584912Y-68100223D01*
X95598792Y-68099502D01*
X95715445Y-68101641D01*
X95715447Y-68101641D01*
X95722499Y-68101770D01*
X95729302Y-68099915D01*
X95729304Y-68099915D01*
X95804503Y-68079413D01*
X95860817Y-68064060D01*
X95982991Y-67989045D01*
X96008219Y-67961174D01*
X96074468Y-67887982D01*
X96079200Y-67882754D01*
X96141710Y-67753733D01*
X96143612Y-67742432D01*
X96164862Y-67616124D01*
X96164862Y-67616120D01*
X96165496Y-67612354D01*
X96165647Y-67600000D01*
X96145323Y-67458082D01*
X96137318Y-67440476D01*
X96130445Y-67379678D01*
X96160620Y-67326451D01*
X96216319Y-67301127D01*
X96227440Y-67300500D01*
X96785593Y-67300500D01*
X96843784Y-67319407D01*
G37*
%TD.AperFunction*%
%TD*%
M02*
